<svg xmlns="http://www.w3.org/2000/svg" xmlns:xlink="http://www.w3.org/1999/xlink" viewBox="0 0 380 348"><defs><style>.cls-1{fill:none;}.cls-2{clip-path:url(#clip-path);}.cls-3{fill:#f9a429;}.cls-4{opacity:0.3;}.cls-5{clip-path:url(#clip-path-4);}.cls-6{fill:#03036b;}.cls-7{fill:#fff;}.cls-8{opacity:0.55;}.cls-9{clip-path:url(#clip-path-5);}.cls-10{fill:#0f156d;}.cls-11{fill:#c0c6d8;}.cls-12{clip-path:url(#clip-path-6);}.cls-13{clip-path:url(#clip-path-7);}.cls-14{fill:#ff5faf;}.cls-15{clip-path:url(#clip-path-8);}.cls-16{opacity:0.6;}.cls-17{clip-path:url(#clip-path-9);}.cls-18{fill:#000072;}.cls-19{fill:#b199c5;}.cls-20{fill:#1698f9;}.cls-21{clip-path:url(#clip-path-10);}.cls-22{clip-path:url(#clip-path-11);}.cls-23{fill:#96d1fc;}</style><clipPath id="clip-path"><rect class="cls-1" x="-114" y="-108" width="608" height="608"/></clipPath><clipPath id="clip-path-4"><rect class="cls-1" x="179.19" y="236.48" width="137.97" height="75.47"/></clipPath><clipPath id="clip-path-5"><rect class="cls-1" x="61.26" y="158.67" width="186.97" height="153.28"/></clipPath><clipPath id="clip-path-6"><rect class="cls-1" x="146.1" y="296.92" width="129.28" height="23.15"/></clipPath><clipPath id="clip-path-7"><rect class="cls-1" x="166.88" y="144.93" width="45.38" height="16.17"/></clipPath><clipPath id="clip-path-8"><rect class="cls-1" x="92.18" y="126.7" width="194.79" height="83.64"/></clipPath><clipPath id="clip-path-9"><rect class="cls-1" x="107.73" y="15.91" width="163.68" height="45.83"/></clipPath><clipPath id="clip-path-10"><rect class="cls-1" x="104.24" y="178.97" width="184.11" height="121.36"/></clipPath><clipPath id="clip-path-11"><rect class="cls-1" x="78.99" y="178.97" width="218.41" height="121.35"/></clipPath></defs><title>Plan de travail 10</title><g id="Calque_2" data-name="Calque 2"><g id="Calque_4" data-name="Calque 4"><g id="Logo"><g class="cls-2"><g class="cls-2"><g class="cls-2"><path class="cls-3" d="M265,312H113.43s-70.05-7.23-47.81-68.74,66.16-82,66.16-82L159.09,160l30.12-1.36L219.5,160l27.13,1.22s40.15,18.66,63.12,74.06l.07.17.12.3q.12.27.27.69,1.37,3.28,2.59,6.73C335,304.72,265,312,265,312"/><g class="cls-4"><g class="cls-5"><path class="cls-6" d="M265,312H220.69c-39.74-14-67.79-28-2.83-22.77,110.9,8.86,95.55-44.09,92.35-52.7q1.37,3.28,2.59,6.73C335,304.72,265,312,265,312"/></g></g><path class="cls-7" d="M252.92,220.5c0,37.94-28.49,68.68-63.63,68.68s-63.64-30.74-63.64-68.68c0-26.14,13.53-48.87,33.44-60.47l30.12-1.36L219.5,160c19.9,11.61,33.42,34.34,33.42,60.46"/><g class="cls-8"><g class="cls-9"><path class="cls-7" d="M73.23,244.29c22.22-61.52,66.17-81.94,66.17-81.94l27.3-1.23,30.12-1.36,30.3,1.37,21.11,1c-1-.55-1.6-.82-1.6-.82L219.5,160l-30.29-1.37L159.09,160l-27.31,1.23s-43.94,20.42-66.16,82S113.43,312,113.43,312h1.23c-16.75-3.57-59.47-17.74-41.43-67.66"/></g></g><path class="cls-10" d="M239.35,270.14l.23-.25.2-.23.42-.44c.27-.28.54-.56.82-.83.55-.55,1.12-1.08,1.69-1.59,1.15-1,2.31-2,3.53-2.95.59-.48,1.22-.92,1.83-1.38s1.24-.9,1.87-1.32,1.27-.85,1.92-1.25,1.29-.82,1.95-1.2l1-.57c.34-.2.66-.39,1-.57l2-1.07c.68-.33,1.37-.68,2.05-1l2.1-.94c1.4-.59,2.82-1.17,4.26-1.67l1.08-.38,1.09-.35,1.09-.34.55-.17.55-.15,2.21-.6,2.24-.51c.74-.17,1.49-.29,2.24-.43l1.13-.2.56-.1.57-.07,2.26-.29c.76-.09,1.52-.14,2.27-.2l1.14-.1,1.14,0,2.27-.06,2.28.07L292,249l1.13.1,2.26.23c.75.1,1.49.24,2.23.36,1.49.22,3,.61,4.41,1,.73.17,1.44.42,2.16.65s1.42.48,2.12.74a.45.45,0,0,1,.26.58.43.43,0,0,1-.41.29h0c-1.49,0-2.95-.07-4.41-.07s-2.9-.05-4.35,0l-2.16,0c-.72.05-1.43.08-2.15.11l-1.07.05-1.07.09-2.13.16-2.12.25-1,.12-1.06.16c-.7.1-1.4.19-2.1.32l-2.08.41c-.7.12-1.38.3-2.07.46s-1.38.31-2.06.52l-2,.57-2,.65-.51.16-.5.18-1,.36-1,.36-1,.4c-1.31.51-2.6,1.09-3.88,1.67a79.81,79.81,0,0,0-7.47,4c-.61.35-1.19.74-1.79,1.11s-1.18.78-1.77,1.17l-1.73,1.2c-.57.42-1.15.82-1.7,1.26l-.84.64-.82.66c-.28.21-.55.43-.82.66s-.55.44-.81.67c-.53.45-1,.92-1.57,1.38-.26.23-.51.46-.75.7l-.37.34-.32.32-.11.11a2.88,2.88,0,0,1-4.16-4"/><path class="cls-10" d="M135,274l-.32-.32-.37-.34c-.24-.24-.49-.47-.75-.7-.52-.46-1-.93-1.57-1.38-.26-.23-.54-.45-.81-.67s-.54-.45-.82-.66l-.82-.66-.84-.64c-.55-.44-1.13-.84-1.7-1.26l-1.73-1.2c-.59-.39-1.17-.79-1.77-1.17s-1.18-.76-1.79-1.11a79.81,79.81,0,0,0-7.47-4c-1.28-.58-2.57-1.16-3.88-1.67l-1-.4-1-.36-1-.36-.5-.18-.51-.16-2-.65-2-.57c-.68-.21-1.37-.36-2.06-.52s-1.37-.34-2.07-.46l-2.08-.41c-.7-.13-1.4-.22-2.1-.32l-1.06-.16-1-.12-2.12-.25-2.13-.16-1.07-.09L85.47,253c-.72,0-1.43-.06-2.15-.11l-2.16,0c-1.45-.06-2.89,0-4.35,0s-2.92.09-4.41.07h0a.44.44,0,0,1-.44-.45.45.45,0,0,1,.29-.42c.7-.26,1.41-.5,2.12-.74s1.43-.48,2.16-.65c1.45-.36,2.92-.75,4.41-1,.74-.12,1.48-.26,2.23-.36l2.26-.23,1.13-.1,1.13-.05,2.28-.07,2.27.06,1.14,0,1.14.1c.75.06,1.51.11,2.27.2l2.27.29.56.07.56.1,1.13.2c.75.14,1.5.26,2.24.43s1.5.33,2.24.51l2.21.6.55.15.55.17,1.09.34,1.09.35,1.08.38c1.44.5,2.86,1.08,4.26,1.67l2.1.94c.68.32,1.37.67,2,1l2,1.07c.34.18.67.37,1,.57l1,.57c.66.38,1.3.8,1.95,1.2s1.28.83,1.92,1.25,1.25.87,1.87,1.32,1.24.9,1.83,1.38c1.22.93,2.38,1.93,3.53,2.95.57.51,1.14,1,1.69,1.59l.83.83.41.44.2.23.23.25a2.88,2.88,0,0,1-4.15,4Z"/><path class="cls-10" d="M265,314.84H113.14a87.92,87.92,0,0,1-18.72-4.56c-13.53-4.88-23.81-12.45-29.73-21.88-7.78-12.39-8.38-27.92-1.79-46.17A174.25,174.25,0,0,1,83,202.82a154.28,154.28,0,0,1,22.12-25.77c13.94-13,25-18.18,25.5-18.4a2.91,2.91,0,0,1,1.08-.27l57.43-2.58h.26l57.42,2.58a2.91,2.91,0,0,1,1.08.27c.47.22,11.56,5.45,25.5,18.4a154.28,154.28,0,0,1,22.12,25.77,174.25,174.25,0,0,1,20.05,39.4c6.59,18.25,6,33.78-1.78,46.17-5.93,9.43-16.21,17-29.73,21.88a88.06,88.06,0,0,1-18.72,4.56H265m-151.39-5.76H264.82a83.9,83.9,0,0,0,17.36-4.29c8.54-3.09,20.1-9,26.68-19.49,6.77-10.81,7.18-24.64,1.23-41.12-11.24-31.12-28.22-51.29-40.48-62.73-11.71-10.92-21.47-16.2-23.71-17.34l-56.69-2.55-56.69,2.55c-2.24,1.14-12,6.41-23.72,17.34-12.26,11.44-29.23,31.61-40.48,62.73-5.95,16.48-5.54,30.31,1.24,41.12,6.58,10.5,18.13,16.4,26.67,19.49a83.9,83.9,0,0,0,17.36,4.29"/><path class="cls-11" d="M285.45,304.33v3.06a12.68,12.68,0,0,1-12.68,12.68h-167a12.7,12.7,0,0,1-12.68-12.68v-3.06a7.4,7.4,0,0,1,7.41-7.4H278a7.4,7.4,0,0,1,7.41,7.4"/><g class="cls-4"><g class="cls-12"><path class="cls-6" d="M275.38,296.93c-1.47,10.93-5.52,18.27-9.79,23.14H146.1a145.59,145.59,0,0,0,47.28-23.14Z"/></g></g><path class="cls-10" d="M272.76,323H105.81a15.58,15.58,0,0,1-15.57-15.57v-3.05A10.3,10.3,0,0,1,100.53,294H278a10.3,10.3,0,0,1,10.29,10.29v3.05A15.58,15.58,0,0,1,272.76,323M100.53,299.8A4.53,4.53,0,0,0,96,304.33v3.05a9.82,9.82,0,0,0,9.81,9.81h167a9.82,9.82,0,0,0,9.81-9.81v-3.05A4.53,4.53,0,0,0,278,299.8Z"/><path class="cls-3" d="M277.21,178.67c-12,17.54-37.26,31.68-87.64,31.68h0c-49.73,0-75-13.8-87.14-31a54.79,54.79,0,0,1-8.77-20.43c-5-23.76,4.74-46.8,4.74-46.8-6.82-46.44,2.9-76.34,8.79-89.31A11.6,11.6,0,0,1,121,16.38c21,6.23,42,35,42,35a97.43,97.43,0,0,1,53.12,0s21.05-28.74,42-35A11.59,11.59,0,0,1,272,22.76c5.9,13,15.62,42.87,8.8,89.31,0,0,16,37.87-3.59,66.6"/><path class="cls-7" d="M281.39,168.89a60.33,60.33,0,0,1-4.18,9.78c-12,17.54-37.26,31.68-87.64,31.68h0c-49.73,0-75-13.8-87.14-31a54.19,54.19,0,0,1-4.62-10.41s-5.83-19.64,4.7-31.93,25.11-7.06,31.73,2.48,21.87,7.75,30.11,1.21,14.76-10,25.27-10,17,3.51,25.27,10,23.5,8.32,30.12-1.21,21.19-14.77,31.73-2.48,4.7,31.93,4.7,31.93"/><g class="cls-4"><g class="cls-13"><path class="cls-6" d="M212.26,150.92a1.3,1.3,0,0,0-2.3-.9c-2.15,2.6-4.44,3.9-9.2,3.65-5.7-.31-4.92-8.74-4.92-8.74H183.3s.78,8.43-4.92,8.74c-4.75.25-7-1-9.2-3.65a1.3,1.3,0,0,0-2.3.9c.19,3.27,1.59,7.75,7.48,9.26,9.17,2.37,14.93.79,15.21-12.86.29,13.65,6,15.23,15.22,12.86,5.89-1.51,7.28-6,7.47-9.26"/></g></g><path class="cls-6" d="M202.48,141.91c-.23-3.21-3.92-4.83-7.3-5.64a24.17,24.17,0,0,0-11.22,0c-3.37.81-7.06,2.43-7.3,5.64-.3,4.18,6.08,7.08,10,8.46a8.82,8.82,0,0,0,5.87,0c3.9-1.38,10.28-4.28,10-8.46"/><path class="cls-7" d="M196.62,139.29c0,.66-3.13,1.21-7,1.21s-7-.55-7-1.21,3.13-1.21,7-1.21,7,.54,7,1.21"/><path class="cls-6" d="M200.43,163.88c-4.06,0-7.29-1.31-9.6-3.88-4.3-4.79-3.54-12.22-3.51-12.53a2.26,2.26,0,1,1,4.5.49c0,.1-.54,5.77,2.4,9,1.43,1.59,3.46,2.36,6.21,2.36,3.25,0,5.69-.85,7.24-2.52a9,9,0,0,0,2.07-6,2.26,2.26,0,0,1,4.51-.33,13.48,13.48,0,0,1-3.26,9.4c-2.45,2.63-6,4-10.56,4"/><path class="cls-6" d="M178.72,163.88c-4.57,0-8.12-1.34-10.56-4a13.46,13.46,0,0,1-3.27-9.4,2.27,2.27,0,0,1,4.52.33,8.94,8.94,0,0,0,2.09,6c1.55,1.65,4,2.49,7.22,2.49,2.76,0,4.79-.78,6.22-2.37,2.92-3.25,2.39-9,2.38-9a2.26,2.26,0,1,1,4.5-.49c0,.31.79,7.74-3.51,12.53-2.3,2.57-5.53,3.88-9.59,3.88"/><path class="cls-7" d="M169.26,93.17c-.88,3.32-5.15,5.06-9.53,3.89s-7.22-4.8-6.34-8.12,5.15-5,9.54-3.88,7.21,4.8,6.33,8.11"/><path class="cls-7" d="M209.88,93.17c.89,3.32,5.15,5.06,9.54,3.89s7.21-4.8,6.33-8.12-5.15-5-9.53-3.88-7.22,4.8-6.34,8.11"/><path class="cls-14" d="M117.5,80.54a156.39,156.39,0,0,1,25.82-18.05,3.21,3.21,0,0,0,1.43-4c-2.66-6.91-15-22.86-21.76-25.31-10-3.64-11.13,30.72-10.81,45a3.22,3.22,0,0,0,5.32,2.37"/><path class="cls-14" d="M261.65,80.54a156.83,156.83,0,0,0-25.82-18.05,3.21,3.21,0,0,1-1.44-4c2.67-6.91,15-22.86,21.77-25.31,10-3.64,11.13,30.72,10.8,45a3.21,3.21,0,0,1-5.31,2.37"/><g class="cls-4"><g class="cls-15"><path class="cls-6" d="M285.07,126.7c.78,12-.9,26.21-9.41,38.67-11.77,17.23-36.6,31.12-86.09,31.12h0c-48.85,0-73.67-13.56-85.6-30.51a53.63,53.63,0,0,1-8.61-20.06,71,71,0,0,1-1.24-19.21c-1.79,8.71-2.95,20.35-.46,32.16a54.79,54.79,0,0,0,8.77,20.43c12.15,17.25,37.41,31,87.14,31h0c50.38,0,75.66-14.14,87.64-31.68s10.68-38.31,7.86-52"/></g></g><g class="cls-16"><g class="cls-17"><path class="cls-7" d="M258.17,16.38c-21,6.23-42,35-42,35a97.43,97.43,0,0,0-53.12,0s-21-28.74-42-35a11.6,11.6,0,0,0-13.24,5.25,12.4,12.4,0,0,1,7.7-.21c18.07,5.37,36.19,26.17,42.81,34.41a6.61,6.61,0,0,0,6.39,2.32c.48,2.72,5.73,4.21,11.81,3.34,5.87-.84,10.37-3.58,10.41-6.24,1.72,0,2.72,0,2.72,0a108.3,108.3,0,0,1,24.59,2.87,6.65,6.65,0,0,0,6.75-2.26c6.61-8.24,24.73-29,42.81-34.41a12.37,12.37,0,0,1,7.69.21,11.59,11.59,0,0,0-13.24-5.25"/></g></g><path class="cls-10" d="M189.57,212.49c-24,0-44-3.24-59.52-9.62-13.38-5.52-23.58-13.47-30.31-23.63A58.06,58.06,0,0,1,90.9,156a79.37,79.37,0,0,1-.21-21.93,94.8,94.8,0,0,1,5.45-22.26c-2.93-20.32-3-39.59-.28-57.27a126.13,126.13,0,0,1,9.33-32.66,13.79,13.79,0,0,1,16.39-7.54c9.06,2.68,19.08,9.53,29.81,20.36a159.13,159.13,0,0,1,12.44,14.18,100.27,100.27,0,0,1,51.48,0,159.75,159.75,0,0,1,12.45-14.18c10.72-10.83,20.75-17.68,29.8-20.36A13.8,13.8,0,0,1,274,21.87a126.2,126.2,0,0,1,9.32,32.66c2.75,17.68,2.66,37-.28,57.27a95.15,95.15,0,0,1,5.46,22.26,79.36,79.36,0,0,1-.22,21.93,58,58,0,0,1-8.83,23.25c-6.73,10.16-16.93,18.11-30.32,23.63-15.48,6.38-35.5,9.62-59.52,9.62M117.74,18.05a9.54,9.54,0,0,0-8.65,5.59C103,37,93.79,66.31,100.47,111.76a2.22,2.22,0,0,1-.15,1.14,90.34,90.34,0,0,0-5.39,21.81c-1.38,11.4-1,28,8.39,42.19,13.79,20.77,42.8,31.3,86.25,31.3s72.47-10.53,86.25-31.3c9.43-14.22,9.77-30.79,8.4-42.19a90.05,90.05,0,0,0-5.4-21.81,2.12,2.12,0,0,1-.14-1.14c6.67-45.45-2.54-74.72-8.63-88.12a9.49,9.49,0,0,0-11.27-5.21c-20.06,6-40.72,33.9-40.92,34.18a2.14,2.14,0,0,1-2.35.79,95.76,95.76,0,0,0-25.9-3.6h-.08a95.7,95.7,0,0,0-25.89,3.6,2.14,2.14,0,0,1-2.35-.79c-.21-.28-20.88-28.23-40.93-34.18a9.49,9.49,0,0,0-2.62-.38"/><path class="cls-18" d="M155.44,103.91c-7.92-1.51-15.91,5.5-17.85,15.66s2.9,19.62,10.82,21.14,15.9-5.5,17.85-15.66-2.91-19.63-10.82-21.14"/><path class="cls-7" d="M154.53,108.16c-2.62.69-4,4.07-3.08,7.56s3.78,5.77,6.4,5.08,4-4.08,3.08-7.57-3.78-5.76-6.4-5.07"/><path class="cls-19" d="M144.18,129.39c-1.26.67-1.57,2.58-.67,4.27s2.64,2.52,3.91,1.85,1.57-2.58.68-4.27-2.65-2.52-3.92-1.85"/><path class="cls-18" d="M223.71,103.91c7.91-1.51,15.91,5.5,17.85,15.66s-2.9,19.62-10.82,21.14-15.91-5.5-17.85-15.66,2.9-19.63,10.82-21.14"/><path class="cls-7" d="M224.62,108.16c2.61.69,4,4.07,3.07,7.56s-3.78,5.77-6.4,5.08-4-4.08-3.07-7.57,3.78-5.76,6.4-5.07"/><path class="cls-19" d="M235,129.39c1.27.67,1.57,2.58.68,4.27s-2.65,2.52-3.91,1.85-1.57-2.58-.68-4.27,2.64-2.52,3.91-1.85"/><path class="cls-20" d="M264.88,300.32H113.69c-7.27,0-13.48-4.71-14.68-11.14L81.38,194.51C79.86,186.38,86.85,179,96.05,179H282.52c9.2,0,16.19,7.4,14.68,15.53l-17.64,94.67c-1.2,6.43-7.41,11.14-14.68,11.14"/><g class="cls-4"><g class="cls-21"><path class="cls-6" d="M288.15,194.5l-17.63,94.68c-1.2,6.44-7.41,11.15-14.69,11.15H113.69a16,16,0,0,1-9.45-3H224.18c7.28,0,13.49-4.71,14.68-11.15l17.64-94.68A12.62,12.62,0,0,0,251.25,179h22.23c9.19,0,16.19,7.41,14.67,15.53"/></g></g><g class="cls-8"><g class="cls-22"><path class="cls-7" d="M282.52,179H93.87c-9.19,0-16.18,7.4-14.67,15.53l17.64,94.67c1.2,6.43,7.4,11.14,14.67,11.14H124c-7.27,0-13.48-4.71-14.68-11.14L91.63,194.51a12,12,0,0,1,.45-6.08A4.23,4.23,0,0,1,96,185.5h186.5c7.12,0,12.89,4.44,14.45,10.21l.23-1.2c1.51-8.13-5.48-15.53-14.68-15.53"/></g></g><path class="cls-10" d="M264.88,303.21H113.69c-8.69,0-16-5.68-17.51-13.5L78.54,195a15,15,0,0,1,3.36-12.53,18.22,18.22,0,0,1,14.15-6.42H282.52a18.22,18.22,0,0,1,14.15,6.42A15,15,0,0,1,300,195l-17.64,94.67c-1.46,7.82-8.82,13.5-17.51,13.5M96.05,181.86a12.52,12.52,0,0,0-9.72,4.33A9.34,9.34,0,0,0,84.21,194l17.64,94.68c1,5.09,5.93,8.78,11.84,8.78H264.88c5.91,0,10.89-3.69,11.84-8.78L294.36,194a9.34,9.34,0,0,0-2.12-7.79,12.52,12.52,0,0,0-9.72-4.33Z"/></g></g></g></g><path class="cls-23" d="M179.08,258q-6.93-1.61-7.07-7.31v-3.46q0-3.64-3.8-3.65V240.7q3.79,0,3.8-3.67V233.6a6.6,6.6,0,0,1,1.83-4.72,10.6,10.6,0,0,1,5.24-2.61l.94,2.27c-2.26.6-3.44,2.26-3.51,5V237a5.21,5.21,0,0,1-3.4,5.13,5.24,5.24,0,0,1,3.4,5.17v3.45c.07,2.7,1.25,4.36,3.51,5Z"/><path class="cls-23" d="M191.17,255.71q3.45-.92,3.54-5.06v-3.37a5.11,5.11,0,0,1,3.57-5.14,5.15,5.15,0,0,1-3.57-5.19V233.6q-.09-4.14-3.54-5.06l.94-2.27a10.31,10.31,0,0,1,5.33,2.68,6.83,6.83,0,0,1,1.75,4.86v3.24q0,3.64,3.81,3.65v2.88q-3.81,0-3.81,3.65v3.2a6.84,6.84,0,0,1-1.76,4.89,10.43,10.43,0,0,1-5.32,2.68Z"/></g></g></svg>