<?xml version="1.0" standalone="no"?>
<!DOCTYPE svg PUBLIC "-//W3C//DTD SVG 20010904//EN"
 "http://www.w3.org/TR/2001/REC-SVG-20010904/DTD/svg10.dtd">
<svg version="1.0" xmlns="http://www.w3.org/2000/svg"
 width="8333.000000pt" height="8333.000000pt" viewBox="0 0 8333.000000 8333.000000"
 preserveAspectRatio="xMidYMid meet">

<g transform="translate(0.000000,8333.000000) scale(0.100000,-0.100000)"
fill="#000000" stroke="none">
<path d="M39880 71053 c-2427 -39 -4753 -544 -6472 -1404 -333 -167 -584 -316
-647 -384 l-41 -45 -158 79 c-884 442 -1722 750 -2352 865 -252 46 -315 51
-595 51 -242 0 -282 -2 -383 -23 -389 -79 -631 -232 -900 -569 -859 -1080
-1477 -3508 -1671 -6565 l-19 -297 -154 -188 c-512 -627 -970 -1243 -1408
-1893 l-205 -306 -215 73 c-784 263 -1391 284 -1768 61 -72 -42 -272 -235
-372 -358 -368 -454 -832 -1238 -1350 -2285 -817 -1648 -1319 -3004 -1320
-3560 0 -320 161 -659 486 -1020 319 -355 820 -750 1365 -1075 l106 -63 6
-301 c13 -637 90 -1185 197 -1395 114 -226 540 -599 1165 -1019 133 -90 199
-140 198 -151 -1 -9 -13 -90 -27 -181 -54 -354 -60 -441 -61 -845 0 -409 8
-519 61 -805 107 -582 345 -1153 699 -1677 l83 -122 6 -118 c50 -855 226
-1628 544 -2383 627 -1491 1764 -2738 3232 -3542 209 -115 690 -363 858 -443
76 -37 132 -69 126 -74 -5 -4 -63 -45 -129 -91 -608 -422 -1194 -984 -1607
-1540 -314 -423 -611 -942 -776 -1355 -157 -394 -298 -920 -358 -1340 -10 -66
-20 -123 -23 -127 -5 -6 -472 -72 -1871 -263 -179 -25 -348 -52 -377 -60 -106
-32 -199 -137 -223 -251 -8 -40 -6 -114 10 -325 26 -343 107 -1367 120 -1514
16 -176 29 -157 -102 -149 -135 7 -587 -10 -818 -32 -1606 -149 -2920 -805
-3898 -1944 -818 -952 -1504 -2431 -1846 -3980 -525 -2373 -234 -4688 809
-6430 801 -1338 2010 -2311 3605 -2903 842 -312 1850 -517 2910 -591 118 -9
244 -18 280 -20 36 -3 286 -8 555 -12 635 -9 1125 8 1739 61 94 8 170 13 171
12 8 -16 267 -380 354 -497 446 -600 907 -1128 1450 -1662 148 -146 261 -265
261 -275 0 -70 265 -401 500 -627 792 -759 1837 -1191 3030 -1254 157 -9 553
-7 690 3 283 20 436 40 665 86 539 110 1070 345 1527 678 192 139 308 240 513
445 308 309 512 568 760 966 204 329 444 821 575 1182 l43 117 36 -15 c310
-133 522 -214 806 -310 967 -328 1956 -524 2965 -588 235 -15 938 -18 1165 -5
893 49 1770 210 2565 471 l155 51 225 -7 c124 -3 250 -8 280 -11 30 -3 156
-12 280 -20 1352 -93 2876 -368 4143 -746 231 -69 286 -87 1028 -329 1523
-499 2099 -658 2775 -769 401 -66 532 -76 969 -76 419 0 513 7 770 55 618 116
1135 348 1640 735 1070 821 1866 2206 2319 4032 432 1743 468 3697 95 5188
-107 425 -274 790 -499 1085 l-59 77 109 98 c424 379 947 997 1315 1555 739
1118 1120 2207 1237 3530 16 189 17 792 0 975 -51 564 -150 1048 -321 1562
-402 1217 -1101 2111 -2010 2572 -374 190 -762 308 -1166 356 -77 9 -158 19
-180 23 l-39 7 -18 110 c-34 204 -99 558 -149 810 -209 1039 -439 1752 -690
2135 -84 128 -239 283 -334 332 -126 65 -155 70 -415 76 -366 7 -956 -30
-1980 -124 -620 -57 -1890 -188 -2595 -267 -115 -14 -211 -23 -213 -22 -1 1
37 26 85 55 490 298 943 652 1352 1054 587 578 1002 1149 1376 1891 425 845
708 1738 989 3130 124 617 182 1037 241 1761 l7 81 56 1 c71 0 388 69 803 173
1403 351 2424 763 2926 1182 169 142 295 297 344 425 42 113 71 298 85 558 l6
120 122 38 c363 112 722 294 981 496 112 88 303 279 380 380 126 164 244 403
290 583 52 209 75 473 75 877 0 1711 -561 4760 -1056 5730 -78 154 -135 229
-262 352 -119 114 -226 187 -393 267 -324 157 -798 251 -1264 251 l-93 0 -22
63 c-226 617 -621 1491 -970 2141 l-90 170 25 220 c34 311 49 484 100 1201 43
609 73 1088 96 1495 17 319 23 1243 10 1510 -57 1135 -273 1891 -704 2463
-100 133 -277 317 -400 416 -554 447 -1319 649 -2307 610 -657 -26 -1471 -142
-2303 -328 -76 -17 -144 -31 -152 -31 -7 0 -71 46 -142 103 -850 682 -2033
1390 -3220 1926 -2135 964 -4431 1528 -6903 1695 -484 33 -1214 58 -1545 54
-77 -1 -205 -3 -285 -5z m1070 -683 c2774 -100 5261 -687 7640 -1805 1010
-474 2124 -1152 2851 -1734 l133 -106 -2 -65 c-11 -312 -130 -703 -316 -1038
-242 -436 -638 -889 -1108 -1270 -42 -34 -80 -62 -85 -62 -4 0 -71 64 -149
142 -259 264 -447 437 -719 664 -872 728 -1909 1333 -2955 1722 -926 345
-1837 535 -2845 593 -134 8 -408 10 -830 6 -615 -5 -793 -11 -1315 -42 -2051
-123 -4298 -476 -6369 -1000 -205 -52 -377 -95 -381 -95 -8 0 -29 36 -110 185
-18 33 -57 103 -86 156 -45 79 -290 579 -671 1367 -62 130 -66 142 -153 509
-82 348 -87 378 -72 390 33 25 539 272 692 338 1582 680 3437 1068 5470 1144
307 12 1068 12 1380 1z m-11074 -825 c458 -57 1055 -249 1804 -581 362 -160
1119 -540 1130 -567 11 -25 50 -192 50 -211 0 -7 -66 -53 -147 -101 -320 -190
-853 -541 -1210 -796 l-107 -77 -120 83 c-488 333 -901 496 -1264 497 -315 1
-564 -102 -769 -315 -188 -196 -311 -437 -432 -842 -113 -383 -209 -976 -257
-1602 l-17 -218 -331 -335 c-182 -184 -439 -451 -570 -592 -132 -142 -241
-256 -243 -254 -9 9 72 765 123 1151 298 2255 837 3924 1470 4561 111 111 223
166 406 199 100 18 339 18 484 0z m3355 -2270 c66 -138 157 -326 202 -419 l81
-169 -26 -21 c-14 -11 -83 -63 -154 -115 -468 -343 -1048 -820 -1549 -1276
-362 -329 -548 -507 -950 -910 -833 -833 -1427 -1493 -2320 -2575 -188 -228
-606 -762 -800 -1020 -59 -80 -110 -147 -111 -149 -2 -2 -68 15 -146 37 -299
86 -510 130 -774 162 -212 25 -508 44 -596 37 -38 -2 -68 -3 -68 -2 0 7 318
437 462 625 674 878 1322 1620 2118 2424 1073 1084 2171 2023 3345 2861 392
279 1136 770 1158 762 5 -1 62 -115 128 -252z m-3076 -174 c169 -36 371 -124
583 -255 l92 -57 -72 -57 c-449 -348 -960 -772 -1347 -1116 l-133 -119 7 54
c75 582 165 963 290 1224 143 302 293 386 580 326z m25004 -155 c514 -68 899
-223 1200 -480 277 -237 495 -611 626 -1071 146 -516 204 -1118 192 -2015 -9
-631 -20 -846 -131 -2434 -8 -114 -17 -210 -18 -212 -2 -2 -24 29 -48 69 -248
406 -699 1062 -1028 1497 l-94 124 6 51 c22 195 31 431 31 840 0 486 -8 617
-56 885 -96 547 -296 894 -604 1048 -197 99 -539 146 -884 123 -285 -18 -616
-74 -926 -155 -122 -32 -131 -33 -151 -17 -12 9 -104 87 -204 174 -226 195
-655 541 -898 723 -2 1 4 35 13 76 22 100 55 331 55 398 0 30 4 61 8 67 14 23
685 157 1087 217 308 47 596 79 930 106 180 14 750 5 894 -14z m-11814 -206
c1135 -66 2180 -324 3220 -795 198 -90 565 -274 565 -283 0 -4 -136 -65 -303
-136 -342 -146 -809 -355 -1126 -505 l-214 -100 -131 39 c-471 141 -1096 285
-1605 370 -1628 271 -3381 309 -4964 109 -87 -11 -163 -16 -170 -12 -7 4 -91
66 -187 138 -185 139 -708 520 -848 619 -46 32 -81 60 -79 62 6 6 552 98 887
148 1299 197 2529 310 3800 349 241 8 1007 6 1155 -3z m-9400 -866 c118 -212
156 -258 241 -300 93 -45 153 -44 339 9 462 132 1322 340 1875 453 l185 38
240 -169 c216 -152 803 -576 865 -625 21 -17 22 -20 7 -20 -32 0 -341 -68
-612 -135 -879 -215 -1732 -523 -2501 -902 -131 -65 -242 -119 -245 -121 -3
-1 -39 41 -79 95 -260 348 -633 809 -958 1184 -79 92 -143 171 -141 175 5 15
340 278 532 419 38 28 81 60 95 72 15 12 32 22 37 23 6 0 60 -88 120 -196z
m18185 -598 c1296 -1038 2497 -2305 3491 -3683 688 -954 1234 -1858 1743
-2883 181 -365 260 -534 248 -528 -4 2 -41 22 -82 45 -230 128 -608 236 -970
277 -108 13 -427 35 -501 36 -11 0 -48 68 -119 223 -132 286 -459 945 -595
1202 -644 1210 -1311 2223 -2024 3075 -58 69 -107 127 -110 130 -4 3 -21 23
-40 45 -172 202 -499 542 -721 750 -282 265 -564 493 -845 685 -66 45 -119 86
-117 91 1 6 33 51 71 102 86 114 226 337 306 484 l60 111 65 -51 c36 -28 99
-78 140 -111z m-4055 -189 c493 -340 892 -673 1311 -1091 304 -305 366 -375
344 -388 -8 -5 -103 -59 -210 -119 -107 -61 -254 -147 -327 -190 l-132 -78
-123 83 c-697 471 -1616 949 -2446 1271 -40 16 -69 32 -65 36 19 17 712 317
1178 510 248 102 261 106 285 92 14 -9 97 -65 185 -126z m-15318 -114 c184
-211 426 -499 591 -705 177 -220 382 -488 382 -498 0 -3 -62 -44 -137 -90
-284 -173 -704 -463 -962 -664 -731 -570 -1333 -1163 -1895 -1866 -274 -343
-818 -1086 -1111 -1517 -60 -89 -112 -162 -115 -162 -3 0 -52 44 -109 98
l-104 98 -22 339 c-21 304 -44 704 -60 1039 -19 387 -22 491 -12 510 29 56
709 844 1106 1280 448 492 1211 1272 1581 1616 85 79 186 173 224 209 83 77
55 51 267 240 95 85 189 170 208 187 20 18 37 33 38 33 1 0 59 -66 130 -147z
m8733 -93 c1054 -43 2053 -168 2890 -361 1874 -432 3520 -1211 4940 -2338 336
-267 676 -570 1001 -892 1766 -1752 3098 -4161 3879 -7015 302 -1103 493
-2147 654 -3569 53 -470 103 -1010 136 -1485 80 -1157 91 -2153 35 -3125 -9
-148 -19 -277 -22 -285 -3 -8 -5 -29 -4 -45 5 -68 -77 -795 -89 -795 -4 0 -5
-13 -2 -28 8 -58 -112 -706 -229 -1232 -300 -1348 -678 -2322 -1224 -3150
-580 -879 -1372 -1600 -2380 -2163 -426 -237 -971 -483 -1445 -650 -132 -46
-176 -56 -295 -71 -322 -37 -1424 -170 -1725 -207 -179 -21 -491 -60 -695 -85
-489 -60 -2484 -309 -3035 -379 -239 -30 -628 -80 -865 -110 -1111 -142 -1029
-133 -1185 -129 -893 26 -1380 51 -2070 109 -2534 214 -5008 725 -7348 1516
-651 221 -741 257 -2477 976 -489 203 -1421 664 -1862 922 -620 361 -1178 816
-1651 1346 -751 841 -1256 1840 -1492 2952 -16 76 -28 138 -27 139 1 1 92 -86
202 -194 296 -292 556 -525 1015 -912 586 -494 1325 -912 2303 -1301 1272
-508 2985 -959 4660 -1228 231 -37 238 -39 258 -67 12 -16 70 -76 128 -134
442 -440 1193 -592 1727 -350 l61 28 109 -25 c618 -136 1327 -246 1839 -283
212 -15 648 -13 797 5 449 52 856 220 1193 492 516 416 792 1046 745 1701 -5
76 -17 176 -25 223 -67 359 -260 685 -553 930 -510 427 -1291 685 -2419 799
-515 51 -857 5 -1198 -165 -276 -137 -498 -348 -649 -618 -47 -85 -50 -87 -80
-82 -17 3 -159 19 -316 36 -300 33 -382 33 -444 4 -92 -44 -206 -180 -411
-487 -80 -120 -124 -178 -136 -178 -34 0 -576 81 -870 130 -1707 286 -3073
664 -3934 1090 -597 295 -1202 721 -1855 1304 -699 625 -1447 1483 -1629 1867
-68 142 -91 314 -91 663 0 262 11 441 46 746 29 263 27 253 105 525 1094 3819
2798 7364 5058 10520 662 925 1050 1396 1592 1930 430 424 843 768 1329 1107
1819 1268 4063 1963 6705 2077 270 12 1047 12 1325 1z m13175 -181 c131 -13
246 -41 285 -69 73 -52 149 -202 196 -386 54 -215 88 -570 82 -876 l-3 -167
-56 67 c-301 358 -780 869 -1162 1241 l-129 126 34 7 c69 15 307 49 398 57
141 12 234 12 355 0z m-2962 -976 c1001 -849 2017 -2183 2917 -3833 l134 -244
-33 -161 c-46 -226 -209 -971 -224 -1024 l-12 -45 -215 -37 c-331 -58 -599
-118 -655 -146 -60 -29 -87 -53 -127 -111 l-30 -43 -127 238 c-799 1494 -1711
2692 -2891 3799 -166 157 -539 474 -708 604 -39 30 -71 58 -72 62 0 12 501
294 890 500 394 209 1020 517 1048 518 8 0 55 -35 105 -77z m-23129 -3239 c9
-143 16 -272 16 -287 l0 -27 -62 36 c-35 19 -112 60 -171 90 l-109 55 28 37
c79 105 278 361 280 359 2 -1 10 -120 18 -263z m-1985 -329 c672 -89 1318
-334 1890 -717 106 -71 321 -232 321 -240 0 -4 -65 -103 -144 -220 -625 -929
-1240 -2140 -1879 -3703 -98 -240 -162 -404 -394 -1000 -213 -548 -655 -1822
-912 -2630 -222 -700 -478 -1559 -615 -2069 -19 -73 -24 -80 -51 -88 -16 -4
-116 -9 -221 -9 -222 -2 -215 -4 -417 118 -705 422 -1421 947 -1540 1128 -71
109 -134 650 -144 1250 -21 1222 201 2457 638 3558 229 577 614 1319 1030
1983 554 887 1256 1798 1927 2503 l156 164 121 -6 c66 -4 171 -13 234 -22z
m-2914 -166 c234 -20 560 -99 871 -212 181 -66 304 -117 304 -125 0 -4 -52
-72 -116 -152 -902 -1126 -1699 -2430 -2179 -3570 -287 -681 -516 -1519 -634
-2320 -30 -201 -71 -568 -71 -633 0 -64 -10 -64 -111 4 -524 351 -949 742
-1120 1029 -60 101 -99 220 -99 301 -1 329 399 1445 913 2549 19 41 48 104 65
140 592 1278 1293 2489 1647 2846 81 83 97 94 158 114 58 19 144 33 232 39 11
0 74 -4 140 -10z m31620 -1469 c-9 -15 -98 -13 -93 3 3 6 11 43 19 81 l13 69
34 -71 c19 -39 31 -76 27 -82z m1051 -670 c543 -43 913 -173 1061 -373 103
-140 208 -394 364 -877 269 -834 622 -2324 898 -3790 108 -571 249 -1406 325
-1920 163 -1097 240 -1886 240 -2475 1 -440 -8 -475 -161 -615 -301 -276
-1054 -597 -2128 -907 -256 -73 -845 -226 -851 -220 -2 2 -8 248 -14 548 -21
1152 -91 2178 -226 3329 -275 2349 -832 4841 -1529 6838 -51 147 -96 274 -100
284 -7 19 6 22 250 62 310 51 608 87 875 106 85 6 173 12 195 14 103 8 686 5
801 -4z m2864 -1204 c352 -50 606 -149 762 -295 125 -117 188 -241 308 -601
436 -1308 868 -4120 810 -5272 -11 -223 -20 -300 -47 -408 -81 -329 -368 -637
-791 -849 -90 -45 -347 -151 -367 -151 -1 0 -5 44 -9 98 -126 1795 -808 5437
-1371 7321 -25 85 -43 161 -40 169 8 20 579 11 745 -12z m-35015 -7806 c89
-23 263 -40 405 -40 l106 0 -12 -127 c-48 -506 -46 -971 6 -1278 41 -240 111
-408 266 -641 484 -726 1402 -1672 2272 -2342 1002 -771 1809 -1156 3232
-1542 836 -227 1872 -435 2844 -572 l308 -43 -6 -70 c-11 -132 -61 -258 -155
-392 -46 -65 -54 -72 -79 -68 -15 3 -124 21 -242 40 -442 73 -982 178 -1465
286 -2193 491 -3883 1145 -4874 1888 -289 216 -831 689 -1196 1041 -455 439
-748 778 -1000 1155 -395 592 -591 1137 -646 1800 -20 238 2 810 36 963 l5 22
61 -31 c34 -17 94 -39 134 -49z m12856 -5119 c571 -74 984 -169 1315 -301 540
-216 825 -499 895 -890 17 -98 15 -329 -5 -440 -48 -273 -167 -500 -366 -700
-265 -265 -599 -419 -999 -461 -144 -15 -593 -6 -811 16 -356 35 -1105 150
-1242 191 -14 4 -11 16 22 97 45 108 92 267 114 386 55 293 50 673 -15 1031
-45 252 -152 613 -204 692 l-26 39 30 38 c142 180 378 299 661 335 99 12 406
-4 631 -33z m-2116 -842 c149 -17 275 -32 281 -34 13 -4 65 -210 88 -350 41
-245 46 -537 12 -727 -80 -442 -313 -668 -690 -668 -228 0 -448 79 -654 236
-2 1 26 44 61 96 115 166 186 327 228 519 19 85 23 134 23 269 0 91 -5 192
-12 225 l-12 60 116 175 c176 265 155 243 228 236 33 -4 183 -20 331 -37z
m-5127 -4199 c100 -44 190 -80 199 -80 10 0 293 -113 628 -251 l610 -252 79
-196 c364 -910 920 -1951 1484 -2781 831 -1223 1755 -2190 2777 -2908 311
-219 635 -342 1254 -477 199 -44 545 -104 1111 -195 793 -127 1270 -215 1615
-297 865 -205 1473 -445 1965 -773 450 -301 777 -687 973 -1150 43 -102 118
-322 132 -387 l7 -33 -184 -1 c-101 -1 -653 -5 -1228 -8 l-1045 -6 115 -32
c171 -47 1454 -395 1926 -522 226 -61 429 -111 452 -111 l42 0 0 -78 c0 -169
-48 -461 -110 -669 -68 -230 -197 -500 -340 -715 -117 -177 -200 -278 -345
-425 l-120 -122 -1100 39 c-604 22 -1101 37 -1103 35 -2 -2 352 -121 787 -265
435 -144 791 -263 791 -265 0 -8 -190 -111 -312 -170 -1246 -594 -3013 -766
-5143 -500 -1171 147 -2079 362 -2960 703 -2184 844 -3838 2351 -4945 4507
-524 1020 -920 2210 -1109 3335 -55 329 -74 504 -67 630 9 160 40 390 58 425
9 17 23 77 33 135 60 367 160 729 302 1090 68 173 259 554 368 735 436 725
1048 1353 1825 1875 106 71 380 240 390 240 4 0 88 -36 188 -80z m2682 -1025
c1526 -501 3038 -867 4700 -1139 364 -60 856 -132 1152 -168 104 -13 188 -25
188 -28 0 -3 -199 -32 -442 -64 -244 -31 -679 -89 -968 -127 -289 -38 -727
-96 -975 -128 -247 -33 -967 -128 -1599 -212 -738 -98 -1154 -149 -1163 -143
-26 16 -339 517 -531 849 -114 198 -272 493 -416 780 -214 423 -239 478 -218
470 9 -3 132 -44 272 -90z m24047 29 c12 -8 40 -38 62 -67 194 -257 425 -1000
627 -2017 53 -266 145 -783 140 -787 -2 -3 -52 -11 -111 -19 -145 -19 -269
-40 -399 -70 -60 -13 -114 -24 -121 -24 -8 0 -21 57 -38 163 -15 89 -61 371
-102 627 -194 1195 -170 1073 -219 1140 -41 56 -118 100 -189 106 -36 4 -270
-26 -747 -96 -382 -55 -792 -115 -910 -131 -387 -55 -2001 -288 -2175 -314
-93 -14 -448 -66 -787 -115 -339 -49 -634 -96 -655 -105 -93 -39 -163 -146
-163 -250 0 -85 101 -995 205 -1855 64 -523 155 -1130 221 -1465 70 -355 159
-498 325 -523 60 -8 220 5 809 68 206 23 456 49 555 60 99 11 364 40 589 65
224 25 411 44 413 41 3 -3 -11 -65 -31 -138 -118 -436 -181 -850 -194 -1273
l-7 -220 -115 -7 c-63 -4 -138 -14 -166 -23 -107 -32 -184 -136 -184 -249 0
-34 25 -216 55 -406 114 -716 153 -975 147 -981 -14 -14 -721 -111 -1112 -154
-111 -12 -157 -22 -197 -41 -95 -45 -153 -140 -153 -248 0 -28 38 -422 85
-875 80 -778 86 -828 110 -878 47 -94 141 -153 247 -153 27 0 349 27 716 60
367 32 719 64 782 69 63 6 518 47 1010 91 1021 91 1963 176 2095 187 67 6 120
4 205 -9 63 -9 207 -30 320 -47 113 -16 268 -37 345 -46 77 -8 157 -18 178
-21 l38 -6 -7 -141 c-3 -78 -9 -145 -13 -150 -16 -16 -595 -136 -1246 -256
-1547 -287 -4596 -793 -7620 -1266 -231 -36 -519 -81 -640 -100 -821 -129
-3052 -469 -4140 -631 -3239 -482 -5953 -866 -8615 -1220 l-725 -97 -40 23
c-190 107 -291 158 -415 213 -335 149 -702 252 -1080 303 -166 22 -652 31
-844 15 -706 -59 -1415 -284 -2067 -656 -179 -102 -476 -302 -624 -419 -83
-66 -130 -97 -155 -101 -53 -8 -676 -70 -1105 -109 -811 -75 -1494 -124 -2030
-147 -317 -13 -857 -6 -960 13 -66 12 -71 15 -92 53 -101 181 -262 939 -417
1965 -302 1997 -667 5467 -921 8755 -14 182 -27 348 -29 370 -13 125 -39 535
-34 540 5 5 429 65 1457 206 162 22 297 36 301 32 4 -4 13 -53 20 -108 18
-149 65 -433 111 -669 22 -114 37 -211 32 -215 -4 -4 -131 -22 -281 -39 -177
-21 -284 -37 -305 -48 -56 -29 -96 -63 -122 -108 -47 -80 -47 -113 -10 -421
19 -154 50 -410 70 -570 113 -927 100 -861 187 -940 34 -31 68 -50 106 -61 55
-16 64 -16 535 41 263 31 482 53 487 49 4 -5 52 -108 105 -229 54 -121 145
-318 203 -438 58 -119 103 -219 101 -221 -2 -2 -265 -36 -584 -75 -412 -51
-591 -77 -621 -90 -46 -21 -106 -77 -129 -120 -35 -69 -36 -111 -10 -369 110
-1065 176 -1672 325 -2962 139 -1211 298 -2280 395 -2668 56 -221 106 -302
210 -341 106 -40 176 -46 500 -45 304 0 389 4 885 44 551 45 2067 208 2965
320 1385 172 2318 290 3035 385 1026 135 2127 283 2154 289 11 3 103 -1 205
-9 707 -54 1443 -53 2071 1 952 82 1880 317 2523 641 l92 46 725 103 c399 57
894 129 1100 159 206 30 767 111 1245 180 1628 235 4563 665 5085 745 107 16
454 68 770 115 316 47 591 90 610 97 81 25 149 96 177 185 16 52 16 62 -20
381 -36 314 -114 984 -177 1522 -16 140 -45 397 -65 570 -126 1127 -226 2005
-235 2065 -5 39 -37 320 -70 625 -33 305 -65 593 -70 639 -11 96 -38 150 -101
204 -53 46 -102 57 -246 57 -333 0 -1367 -110 -4543 -485 -492 -58 -974 -114
-1070 -125 -284 -31 -2592 -308 -3220 -387 -414 -51 -415 -51 -635 20 -554
180 -1234 328 -2252 488 -116 18 -211 35 -209 36 4 4 1044 131 1256 153 140
15 2173 260 2200 265 14 3 347 43 740 90 393 47 848 101 1010 120 162 20 786
94 1385 166 600 71 1158 138 1240 149 83 11 528 65 990 120 462 55 896 107
965 116 69 8 510 62 981 118 835 100 856 103 909 132 55 30 105 87 127 147 19
52 13 236 -22 732 -26 366 -78 735 -123 869 -34 106 -71 153 -152 195 l-65 33
-145 -6 c-289 -11 -1374 -129 -4310 -466 -1217 -140 -1668 -192 -1795 -205
-140 -15 -1464 -168 -3070 -355 -473 -55 -981 -114 -1130 -130 -392 -44 -1905
-220 -1940 -226 -26 -4 -581 -69 -1405 -163 -146 -17 -442 -51 -658 -76 -216
-25 -396 -45 -401 -45 -26 0 -519 572 -753 875 -120 154 -137 180 -121 187 10
4 326 47 703 97 377 50 1074 142 1550 205 476 63 1227 163 1670 221 443 58
940 123 1105 145 342 45 1439 188 2185 284 942 122 1124 146 1600 207 261 33
754 96 1095 140 989 126 3492 439 4440 554 479 58 942 114 1030 125 535 66
2217 261 3010 350 2726 305 4284 430 4402 354z m-612 -1566 c10 -45 35 -213
35 -238 0 -24 -3 -25 -62 -28 -34 -1 -66 -7 -73 -12 -6 -5 -20 -9 -30 -10 -81
-3 -139 -9 -195 -20 -36 -6 -83 -14 -105 -16 -22 -3 -56 -8 -75 -11 -19 -4
-44 -8 -55 -9 -159 -16 -168 -18 -150 -26 13 -5 5 -6 -23 -3 -24 3 -41 2 -38
-3 2 -4 -8 -7 -25 -6 -40 3 -179 -18 -174 -26 2 -3 -13 -5 -34 -4 -39 1 -156
-13 -181 -23 -29 -11 -41 -11 -46 0 -5 16 -42 271 -39 275 3 3 1204 179 1237
181 21 1 29 -4 33 -21z m-1811 -372 c10 -74 16 -140 14 -148 -3 -7 -19 -13
-39 -13 -50 0 -249 -28 -249 -35 0 -3 -8 -6 -17 -7 -61 -3 -179 -15 -185 -19
-4 -3 -31 -7 -60 -10 -29 -3 -60 -7 -68 -11 -8 -3 -40 -7 -70 -9 -30 -2 -80
-9 -110 -16 -30 -6 -64 -12 -75 -13 -92 -7 -223 -30 -218 -38 3 -6 -10 -7 -36
-2 -26 4 -41 3 -41 -4 0 -5 -10 -8 -22 -6 -12 3 -25 0 -29 -6 -8 -13 -14 21
-30 168 -7 62 -10 116 -7 119 4 3 278 45 610 94 332 48 606 88 609 89 3 1 13
-59 23 -133z m1813 98 c-3 -3 -12 -4 -19 -1 -8 3 -5 6 6 6 11 1 17 -2 13 -5z
m-43 -13 c3 -4 -6 -6 -19 -3 -14 2 -25 6 -25 8 0 8 39 4 44 -5z m86 -5 c0 -3
-4 -8 -10 -11 -5 -3 -10 -1 -10 4 0 6 5 11 10 11 6 0 10 -2 10 -4z m-487 -73
c-7 -2 -19 -2 -25 0 -7 3 -2 5 12 5 14 0 19 -2 13 -5z m444 -45 c-3 -7 -5 -2
-5 12 0 14 2 19 5 13 2 -7 2 -19 0 -25z m-1014 -35 c-7 -2 -19 -2 -25 0 -7 3
-2 5 12 5 14 0 19 -2 13 -5z m-206 -55 c-3 -8 -6 -5 -6 6 -1 11 2 17 5 13 3
-3 4 -12 1 -19z m-2397 -11 c0 -7 7 -67 15 -132 8 -66 15 -125 15 -131 0 -7
-51 -19 -129 -30 -72 -10 -128 -21 -126 -24 2 -4 -8 -5 -23 -2 -15 2 -47 -2
-72 -8 -25 -7 -63 -13 -85 -15 -22 -1 -62 -5 -90 -9 -243 -33 -344 -50 -364
-63 -13 -8 -20 -10 -16 -4 7 12 -34 9 -55 -4 -5 -3 -12 4 -15 17 -6 28 -33
272 -30 276 2 2 930 140 958 141 9 1 17 -5 17 -12z m1787 -59 c-3 -8 -6 -5 -6
6 -1 11 2 17 5 13 3 -3 4 -12 1 -19z m-540 -54 c-3 -3 -12 -4 -19 -1 -8 3 -5
6 6 6 11 1 17 -2 13 -5z m587 -9 c-4 -8 -11 -12 -16 -9 -6 4 -5 10 3 15 19 12
19 11 13 -6z m599 -10 c-3 -9 -8 -14 -10 -11 -3 3 -2 9 2 15 9 16 15 13 8 -4z
m1284 -17 c-3 -8 -6 -5 -6 6 -1 11 2 17 5 13 3 -3 4 -12 1 -19z m-1278 -32 c9
-10 8 -15 -2 -19 -8 -3 -13 3 -14 14 -2 23 1 24 16 5z m1268 -38 c-3 -8 -6 -5
-6 6 -1 11 2 17 5 13 3 -3 4 -12 1 -19z m-3057 -40 c0 -17 -3 -19 -9 -9 -7 11
-9 11 -14 0 -3 -8 -6 -4 -6 9 -1 13 5 22 14 22 9 0 15 -9 15 -22z m-32 -54
c-3 -14 -5 -12 -10 9 -3 19 -2 25 4 19 6 -6 8 -18 6 -28z m1829 -26 c-3 -8 -6
-5 -6 6 -1 11 2 17 5 13 3 -3 4 -12 1 -19z m-2480 6 c-3 -3 -12 -4 -19 -1 -8
3 -5 6 6 6 11 1 17 -2 13 -5z m3753 -19 c0 -14 -2 -25 -4 -25 -2 0 -6 11 -8
25 -3 14 -1 25 3 25 5 0 9 -11 9 -25z m0 -72 c-11 -17 -11 -17 -6 0 3 10 6 24
7 30 0 9 2 9 5 0 3 -7 0 -20 -6 -30z m37 15 c-3 -8 -6 -5 -6 6 -1 11 2 17 5
13 3 -3 4 -12 1 -19z m-3710 -27 c0 -11 -5 -18 -9 -15 -4 3 -5 11 -1 19 7 21
12 19 10 -4z m-943 -25 c-3 -15 -8 -25 -11 -23 -2 3 -1 17 3 31 3 15 8 25 11
23 2 -3 1 -17 -3 -31z m1529 19 c-3 -9 -8 -14 -10 -11 -3 3 -2 9 2 15 9 16 15
13 8 -4z m-598 -34 c-6 -5 -25 10 -25 20 0 5 6 4 14 -3 8 -7 12 -15 11 -17z
m1835 -48 c-23 -41 -23 -38 0 20 8 21 16 34 18 28 2 -5 -6 -27 -18 -48z
m-2740 23 c0 -2 -7 -6 -15 -10 -8 -3 -15 -1 -15 4 0 6 7 10 15 10 8 0 15 -2
15 -4z m2747 -68 c-3 -8 -6 -5 -6 6 -1 11 2 17 5 13 3 -3 4 -12 1 -19z m20 0
c-3 -8 -6 -5 -6 6 -1 11 2 17 5 13 3 -3 4 -12 1 -19z m591 -3 c-3 -3 -9 2 -12
12 -6 14 -5 15 5 6 7 -7 10 -15 7 -18z m-3398 5 c0 -5 -2 -10 -4 -10 -3 0 -8
5 -11 10 -3 6 -1 10 4 10 6 0 11 -4 11 -10z m-2191 -102 c22 -194 23 -214 12
-198 -6 8 -11 10 -11 4 0 -6 -10 -9 -23 -7 -13 3 -82 -3 -153 -12 -71 -9 -178
-21 -239 -26 -119 -11 -160 -22 -150 -42 4 -6 0 -4 -7 5 -12 14 -23 15 -84 7
-38 -5 -121 -14 -184 -19 -63 -6 -128 -15 -145 -20 -16 -5 -48 -9 -70 -9 -67
0 -218 -21 -232 -33 -10 -8 -13 -7 -13 3 -1 8 -7 79 -14 159 -8 80 -13 146
-12 147 2 2 161 20 1051 117 121 13 229 24 241 25 19 1 22 -7 33 -101z m4968
15 c-3 -10 -5 -2 -5 17 0 19 2 27 5 18 2 -10 2 -26 0 -35z m1920 25 c-3 -8 -6
-5 -6 6 -1 11 2 17 5 13 3 -3 4 -12 1 -19z m-4690 -20 c-3 -8 -6 -5 -6 6 -1
11 2 17 5 13 3 -3 4 -12 1 -19z m983 -22 c0 -2 -7 -7 -16 -10 -8 -3 -12 -2 -9
4 6 10 25 14 25 6z m3700 -21 c-7 -8 -17 -15 -23 -15 -6 0 -2 7 9 15 25 19 30
19 14 0z m-1873 -17 c-3 -8 -6 -5 -6 6 -1 11 2 17 5 13 3 -3 4 -12 1 -19z
m1903 12 c0 -5 -5 -10 -11 -10 -5 0 -7 5 -4 10 3 6 8 10 11 10 2 0 4 -4 4 -10z
m-3733 -6 c-3 -3 -12 -4 -19 -1 -8 3 -5 6 6 6 11 1 17 -2 13 -5z m640 -16 c-3
-8 -6 -5 -6 6 -1 11 2 17 5 13 3 -3 4 -12 1 -19z m-644 -5 c-7 -2 -19 -2 -25
0 -7 3 -2 5 12 5 14 0 19 -2 13 -5z m3667 -13 c-8 -5 -19 -10 -25 -10 -5 0 -3
5 5 10 8 5 20 10 25 10 6 0 3 -5 -5 -10z m-3036 -16 c3 -8 2 -12 -4 -9 -6 3
-10 1 -10 -4 0 -6 -8 -11 -17 -11 -15 0 -14 2 3 19 10 11 20 20 20 20 1 1 5
-6 8 -15z m-5677 -173 c7 -80 11 -147 8 -149 -3 -3 -19 -5 -37 -4 -24 1 -28
-2 -18 -9 11 -6 6 -7 -15 -3 -16 3 -88 -2 -160 -11 -157 -20 -223 -26 -253
-26 -13 1 -20 -3 -17 -9 4 -7 -3 -8 -21 -4 -20 5 -25 4 -19 -6 6 -9 3 -10 -14
-1 -12 7 -26 9 -31 6 -5 -3 -47 -8 -92 -11 -46 -3 -85 -9 -88 -12 -3 -4 -43
-8 -90 -10 -48 -1 -87 -7 -91 -14 -4 -6 -17 -8 -28 -5 -26 6 -222 -13 -217
-22 2 -3 -26 -7 -62 -8 -37 -1 -96 -4 -132 -5 l-65 -3 -19 142 c-11 79 -17
145 -15 148 3 3 203 27 445 55 241 27 552 63 689 79 138 16 268 29 290 28 l40
-2 12 -144z m8243 139 c0 -5 -2 -10 -4 -10 -3 0 -8 5 -11 10 -3 6 -1 10 4 10
6 0 11 -4 11 -10z m-2561 -45 c0 -5 -4 -3 -9 5 -5 8 -9 22 -9 30 0 16 17 -16
18 -35z m1823 3 c-6 -6 -7 0 -4 19 5 21 7 23 10 9 2 -10 0 -22 -6 -28z m48
-12 c0 -3 -4 -8 -10 -11 -5 -3 -10 -1 -10 4 0 6 5 11 10 11 6 0 10 -2 10 -4z
m120 -22 c0 -2 -9 -4 -20 -4 -11 0 -20 4 -20 9 0 5 9 7 20 4 11 -3 20 -7 20
-9z m260 12 c0 -2 -9 -6 -20 -9 -11 -3 -18 -1 -14 4 5 9 34 13 34 5z m-2272
-41 c-3 -3 -9 2 -12 12 -6 14 -5 15 5 6 7 -7 10 -15 7 -18z m1869 3 c-3 -8 -6
-5 -6 6 -1 11 2 17 5 13 3 -3 4 -12 1 -19z m90 16 c-3 -3 -12 -4 -19 -1 -8 3
-5 6 6 6 11 1 17 -2 13 -5z m113 -3 c0 -5 -9 -7 -20 -4 -11 3 -20 7 -20 9 0 2
9 4 20 4 11 0 20 -4 20 -9z m67 3 c-3 -3 -12 -4 -19 -1 -8 3 -5 6 6 6 11 1 17
-2 13 -5z m-2120 -56 c-3 -8 -6 -5 -6 6 -1 11 2 17 5 13 3 -3 4 -12 1 -19z
m1236 7 c-3 -9 -8 -14 -10 -11 -3 3 -2 9 2 15 9 16 15 13 8 -4z m-5036 -37
c-3 -7 -5 -2 -5 12 0 14 2 19 5 13 2 -7 2 -19 0 -25z m-660 -4 c-3 -3 -12 -4
-19 -1 -8 3 -5 6 6 6 11 1 17 -2 13 -5z m60 -20 c-3 -3 -12 -4 -19 -1 -8 3 -5
6 6 6 11 1 17 -2 13 -5z m-3303 -159 c10 -71 19 -139 21 -151 2 -11 -1 -27 -7
-35 -8 -11 -9 -10 -4 4 3 11 0 17 -9 17 -8 0 -15 -6 -15 -12 0 -9 -2 -10 -8
-2 -8 13 -230 -10 -246 -26 -6 -6 -15 -10 -20 -10 -6 0 -4 5 4 10 16 11 4 10
-185 -16 -60 -8 -141 -17 -180 -20 -38 -3 -160 -16 -270 -30 -110 -14 -227
-27 -260 -29 -33 -3 -71 -8 -85 -12 -14 -3 -41 -7 -60 -8 -100 -7 -206 -18
-214 -22 -4 -3 -30 -7 -56 -9 -57 -5 -50 -16 -80 146 -12 63 -24 124 -26 136
-5 20 0 21 73 28 43 4 420 47 838 95 418 48 763 85 766 82 3 -3 14 -64 23
-136z m8816 135 c-8 -5 -19 -10 -25 -10 -5 0 -3 5 5 10 8 5 20 10 25 10 6 0 3
-5 -5 -10z m78 -7 c-10 -2 -26 -2 -35 0 -10 3 -2 5 17 5 19 0 27 -2 18 -5z
m-267 -25 c-8 -22 -41 -35 -41 -16 0 6 7 7 16 4 11 -4 15 -2 11 8 -5 12 -1 18
20 25 1 1 -1 -9 -6 -21z m72 5 c-7 -2 -19 -2 -25 0 -7 3 -2 5 12 5 14 0 19 -2
13 -5z m-4778 -33 c3 -5 1 -10 -4 -10 -6 0 -11 5 -11 10 0 6 2 10 4 10 3 0 8
-4 11 -10z m-1288 -6 c-3 -3 -12 -4 -19 -1 -8 3 -5 6 6 6 11 1 17 -2 13 -5z
m1303 -24 c0 -5 -5 -10 -11 -10 -5 0 -7 5 -4 10 3 6 8 10 11 10 2 0 4 -4 4
-10z m4163 3 c-7 -2 -19 -2 -25 0 -7 3 -2 5 12 5 14 0 19 -2 13 -5z m193 -8
c-11 -8 -27 -15 -35 -15 -10 0 -7 6 9 14 33 19 50 19 26 1z m51 9 c-3 -3 -12
-4 -19 -1 -8 3 -5 6 6 6 11 1 17 -2 13 -5z m-6364 -31 c-7 -2 -21 -2 -30 0
-10 3 -4 5 12 5 17 0 24 -2 18 -5z m4187 -18 c0 -21 -2 -24 -13 -13 -10 9 -11
16 -3 25 15 17 16 16 16 -12z m1977 9 c-3 -3 -12 -4 -19 -1 -8 3 -5 6 6 6 11
1 17 -2 13 -5z m-4547 -38 c0 -2 -9 -6 -20 -9 -11 -3 -18 -1 -14 4 5 9 34 13
34 5z m47 -12 c-3 -3 -12 -4 -19 -1 -8 3 -5 6 6 6 11 1 17 -2 13 -5z m2530
-36 c-3 -7 -5 -2 -5 12 0 14 2 19 5 13 2 -7 2 -19 0 -25z m-2820 16 c-3 -3
-12 -4 -19 -1 -8 3 -5 6 6 6 11 1 17 -2 13 -5z m-2320 -20 c-3 -3 -12 -4 -19
-1 -8 3 -5 6 6 6 11 1 17 -2 13 -5z m6095 -3 c8 12 9 12 6 0 -6 -22 -28 -25
-27 -4 0 12 2 14 6 4 5 -11 7 -11 15 0z m-975 -23 c-3 -8 -6 -5 -6 6 -1 11 2
17 5 13 3 -3 4 -12 1 -19z m-3347 -4 c0 -2 -9 -4 -20 -4 -11 0 -20 4 -20 9 0
5 9 7 20 4 11 -3 20 -7 20 -9z m4270 -4 c13 -9 13 -10 0 -10 -8 0 -22 5 -30
10 -13 9 -13 10 0 10 8 0 22 -5 30 -10z m-9331 -52 c6 -29 19 -97 29 -150 l19
-97 -26 -7 c-14 -4 -42 -8 -61 -10 -95 -8 -134 -15 -141 -25 -5 -8 -8 -8 -14
1 -4 6 -14 8 -24 5 -9 -4 -56 -9 -106 -12 -49 -3 -92 -9 -95 -13 -3 -5 -23 -8
-45 -8 -60 0 -154 -10 -340 -34 -44 -5 -102 -12 -130 -14 -86 -6 -190 -25
-199 -34 -6 -6 -15 -10 -21 -10 -5 0 -3 5 5 10 18 12 -73 5 -263 -19 -70 -10
-132 -14 -138 -11 -10 7 -62 267 -56 284 3 8 1145 148 1584 195 6 0 16 -22 22
-51z m4931 32 c0 -11 -2 -20 -4 -20 -2 0 -6 9 -9 20 -3 11 -1 20 4 20 5 0 9
-9 9 -20z m247 14 c-3 -3 -12 -4 -19 -1 -8 3 -5 6 6 6 11 1 17 -2 13 -5z
m4093 -4 c0 -5 -7 -7 -15 -4 -8 4 -15 8 -15 10 0 2 7 4 15 4 8 0 15 -4 15 -10z
m-4363 -16 c-3 -3 -12 -4 -19 -1 -8 3 -5 6 6 6 11 1 17 -2 13 -5z m66 -11 c-7
-2 -19 -2 -25 0 -7 3 -2 5 12 5 14 0 19 -2 13 -5z m3467 -39 c0 -2 -7 -4 -15
-4 -8 0 -15 4 -15 10 0 5 7 7 15 4 8 -4 15 -8 15 -10z m285 7 c-3 -5 5 -11 17
-13 21 -3 21 -4 -4 -9 -23 -5 -28 -3 -28 12 0 11 5 19 11 19 5 0 8 -4 4 -9z
m202 3 c-3 -3 -12 -4 -19 -1 -8 3 -5 6 6 6 11 1 17 -2 13 -5z m-87 -14 c0 -5
-2 -10 -4 -10 -3 0 -8 5 -11 10 -3 6 -1 10 4 10 6 0 11 -4 11 -10z m227 4 c-3
-3 -12 -4 -19 -1 -8 3 -5 6 6 6 11 1 17 -2 13 -5z m-267 -8 c0 -2 -7 -7 -16
-10 -8 -3 -12 -2 -9 4 6 10 25 14 25 6z m-130 -10 c0 -3 -4 -8 -10 -11 -5 -3
-10 -1 -10 4 0 6 5 11 10 11 6 0 10 -2 10 -4z m-6723 -12 c-3 -3 -12 -4 -19
-1 -8 3 -5 6 6 6 11 1 17 -2 13 -5z m152 -10 c10 -9 -35 -3 -49 6 -11 8 -7 9
15 4 17 -4 32 -8 34 -10z m2151 0 c0 -2 -7 -4 -15 -4 -8 0 -15 4 -15 10 0 5 7
7 15 4 8 -4 15 -8 15 -10z m4295 -34 c3 -6 -1 -7 -9 -4 -18 7 -21 14 -7 14 6
0 13 -4 16 -10z m3911 -3 c-82 -51 -388 -259 -458 -312 -49 -36 -88 -61 -88
-55 0 6 -4 8 -10 5 -5 -3 -10 -4 -10 -1 0 3 -9 67 -20 142 -11 75 -18 139 -16
141 6 6 554 90 591 91 27 1 28 0 11 -11z m-10166 -7 c0 -5 -2 -10 -4 -10 -3 0
-8 5 -11 10 -3 6 -1 10 4 10 6 0 11 -4 11 -10z m1397 4 c-3 -3 -12 -4 -19 -1
-8 3 -5 6 6 6 11 1 17 -2 13 -5z m4753 2 c0 -3 -4 -8 -10 -11 -5 -3 -10 -1
-10 4 0 6 5 11 10 11 6 0 10 -2 10 -4z m-7027 -13 c-7 -2 -19 -2 -25 0 -7 3
-2 5 12 5 14 0 19 -2 13 -5z m2424 -9 c-3 -3 -12 -4 -19 -1 -8 3 -5 6 6 6 11
1 17 -2 13 -5z m-70 -10 c-3 -3 -12 -4 -19 -1 -8 3 -5 6 6 6 11 1 17 -2 13 -5z
m-124 -11 c-7 -2 -19 -2 -25 0 -7 3 -2 5 12 5 14 0 19 -2 13 -5z m11442 -17
c959 -131 1692 -648 2216 -1561 286 -499 526 -1196 639 -1858 217 -1271 17
-2508 -604 -3742 -101 -199 -101 -200 -136 -203 -34 -3 -38 -8 -140 -179 -377
-633 -902 -1303 -1409 -1796 l-111 -109 -48 35 c-81 60 -259 164 -380 223
-318 154 -671 254 -1082 306 -166 21 -728 18 -905 -5 -851 -111 -1603 -438
-2165 -941 -46 -42 -87 -76 -90 -76 -3 0 -39 61 -79 136 -83 154 -188 333
-280 478 -35 54 -59 102 -54 106 4 4 175 35 378 69 2180 361 3692 637 4250
777 137 34 300 91 346 120 106 67 162 175 189 364 10 77 30 327 30 391 0 33 3
37 55 58 63 26 130 94 164 166 66 140 16 326 -111 413 -61 42 -119 59 -228 66
-892 63 -2045 264 -2852 497 -293 84 -457 179 -666 383 -340 332 -585 854
-696 1484 l-24 133 97 -6 c53 -3 413 -19 801 -35 388 -16 752 -32 810 -35 68
-4 100 -3 90 4 -8 5 -418 160 -910 344 -492 185 -904 339 -914 343 -18 7 -19
16 -13 185 21 571 134 1119 335 1620 89 221 198 419 231 419 9 0 496 -103
1081 -230 585 -126 1065 -228 1067 -227 1 2 -384 217 -857 478 -473 260 -858
479 -857 484 2 6 52 49 111 97 600 484 1338 779 2106 841 110 9 502 -2 615
-17z m-12191 5 c3 -5 -1 -11 -9 -14 -9 -4 -12 -1 -8 9 6 16 10 17 17 5z m23
-23 c-3 -8 -6 -5 -6 6 -1 11 2 17 5 13 3 -3 4 -12 1 -19z m328 -9 c11 0 2 -5
-19 -10 -21 -5 -41 -7 -44 -4 -3 3 3 5 14 6 18 0 18 1 -1 10 -17 8 -17 9 5 4
14 -2 34 -5 45 -6z m122 5 c-3 -3 -12 -4 -19 -1 -8 3 -5 6 6 6 11 1 17 -2 13
-5z m-5514 -162 c32 -175 31 -163 10 -155 -12 5 -14 3 -8 -7 6 -9 4 -11 -5 -5
-7 4 -16 2 -21 -6 -6 -10 -9 -11 -9 -1 0 7 -15 12 -40 12 -22 0 -40 -4 -40 -9
0 -5 -21 -9 -47 -9 -100 0 -113 -2 -113 -10 0 -5 -10 -7 -22 -5 -27 5 -448
-44 -457 -52 -3 -3 1 -10 9 -15 8 -6 12 -10 8 -10 -3 0 -15 -3 -25 -6 -15 -5
-15 -4 -3 5 11 8 12 11 2 11 -7 0 -10 5 -7 10 9 15 -91 2 -129 -16 -16 -8 -34
-14 -40 -13 -6 0 -2 5 9 10 15 7 12 8 -15 4 -19 -3 -82 -10 -140 -15 -206 -17
-395 -42 -402 -54 -6 -8 -8 -8 -8 1 0 6 -8 9 -19 6 -16 -4 -21 3 -29 44 -27
132 -45 243 -40 248 3 3 295 39 649 80 354 42 694 81 754 89 61 8 119 14 131
15 19 1 23 -11 47 -147z m5140 121 c-7 -2 -21 -2 -30 0 -10 3 -4 5 12 5 17 0
24 -2 18 -5z m-2943 -43 c0 -5 -5 -10 -11 -10 -5 0 -7 5 -4 10 3 6 8 10 11 10
2 0 4 -4 4 -10z m11258 -97 c7 -54 15 -117 19 -140 5 -38 4 -41 -18 -41 -51 0
-269 -31 -284 -40 -5 -4 -20 -5 -31 -4 -22 3 -311 -35 -323 -42 -4 -3 -45 -8
-91 -11 -47 -4 -89 -9 -93 -12 -5 -3 -23 -6 -40 -7 -92 -6 -315 -41 -310 -49
5 -9 -62 -1 -78 9 -7 4 -34 243 -28 248 6 5 1190 184 1230 185 l35 1 12 -97z
m-11308 83 c0 -2 -7 -7 -16 -10 -8 -3 -12 -2 -9 4 6 10 25 14 25 6z m653 -26
c3 -11 2 -22 -2 -24 -4 -3 -8 6 -9 20 -2 29 4 31 11 4z m27 -1 c0 -5 -4 -9
-10 -9 -5 0 -10 7 -10 16 0 8 5 12 10 9 6 -3 10 -10 10 -16z m1640 6 c0 -8 -4
-15 -10 -15 -5 0 -7 7 -4 15 4 8 8 15 10 15 2 0 4 -7 4 -15z m-2385 -5 c-27
-12 -43 -12 -25 0 8 5 22 9 30 9 10 0 8 -3 -5 -9z m109 -5 c-4 -8 -7 -15 -9
-15 -2 0 -5 7 -9 15 -3 9 0 15 9 15 9 0 12 -6 9 -15z m-177 -1 c-3 -3 -12 -4
-19 -1 -8 3 -5 6 6 6 11 1 17 -2 13 -5z m2120 -26 c0 -8 -18 -14 -46 -16 -53
-3 -51 4 5 17 21 5 39 9 40 10 0 1 1 -5 1 -11z m-220 -4 c-3 -3 -12 -4 -19 -1
-8 3 -5 6 6 6 11 1 17 -2 13 -5z m-2480 -20 c-3 -3 -12 -4 -19 -1 -8 3 -5 6 6
6 11 1 17 -2 13 -5z m2421 -1 c-10 -2 -28 -2 -40 0 -13 2 -5 4 17 4 22 1 32
-1 23 -4z m75 0 c-7 -2 -19 -2 -25 0 -7 3 -2 5 12 5 14 0 19 -2 13 -5z m-2626
-9 c-3 -3 -12 -4 -19 -1 -8 3 -5 6 6 6 11 1 17 -2 13 -5z m-104 -21 c-7 -2
-19 -2 -25 0 -7 3 -2 5 12 5 14 0 19 -2 13 -5z m94 1 c-3 -3 -12 -4 -19 -1 -8
3 -5 6 6 6 11 1 17 -2 13 -5z m1528 -22 c-3 -3 -11 0 -18 7 -9 10 -8 11 6 5
10 -3 15 -9 12 -12z m-604 -15 c-10 -9 -11 -8 -5 6 3 10 9 15 12 12 3 -3 0
-11 -7 -18z m1222 6 c-7 -2 -19 -2 -25 0 -7 3 -2 5 12 5 14 0 19 -2 13 -5z
m-80 -10 c-7 -2 -19 -2 -25 0 -7 3 -2 5 12 5 14 0 19 -2 13 -5z m-5485 -141
c13 -70 26 -136 29 -148 3 -13 -1 -21 -9 -21 -45 0 -260 -27 -293 -36 -22 -6
-67 -12 -100 -12 -65 -2 -173 -12 -219 -21 -16 -4 -43 -7 -60 -9 -17 -2 -62
-8 -101 -14 -38 -6 -74 -10 -80 -7 -6 2 -96 -7 -201 -19 -104 -13 -190 -23
-191 -22 -2 3 -61 292 -60 293 4 3 1205 142 1232 143 l30 1 23 -128z m4355
108 c3 -11 2 -22 -2 -24 -4 -3 -8 6 -9 20 -2 29 4 31 11 4z m603 -21 c2 -18 1
-29 -3 -25 -4 4 -8 21 -9 37 -2 39 7 29 12 -12z m-588 -44 c-3 -3 -9 2 -12 12
-6 14 -5 15 5 6 7 -7 10 -15 7 -18z m-1614 -11 c9 -24 2 -26 -12 -4 -7 11 -8
20 -3 20 5 0 12 -7 15 -16z m10986 -1 c0 -5 7 -60 14 -123 16 -121 14 -129
-29 -131 -11 0 -27 -2 -35 -3 -8 -2 -66 -9 -127 -16 -62 -8 -113 -17 -113 -21
0 -6 -120 -19 -185 -19 -17 -1 -25 -4 -18 -8 7 -4 -11 -8 -40 -9 -80 -2 -278
-27 -307 -39 -8 -4 -32 -6 -54 -4 -29 1 -36 -1 -31 -12 6 -10 5 -10 -5 -1 -13
12 -39 158 -40 218 l0 30 468 72 c509 77 502 76 502 66z m-9715 -43 c13 -6 15
-9 5 -9 -8 0 -22 4 -30 9 -18 12 -2 12 25 0z m98 3 c-7 -2 -19 -2 -25 0 -7 3
-2 5 12 5 14 0 19 -2 13 -5z m-1330 -43 c-3 -12 -8 -19 -11 -16 -5 6 5 36 12
36 2 0 2 -9 -1 -20z m1250 13 c-7 -2 -19 -2 -25 0 -7 3 -2 5 12 5 14 0 19 -2
13 -5z m11202 -3 c-3 -5 -11 -10 -16 -10 -6 0 -7 5 -4 10 3 6 11 10 16 10 6 0
7 -4 4 -10z m-13752 -7 c-7 -2 -21 -2 -30 0 -10 3 -4 5 12 5 17 0 24 -2 18 -5z
m13814 1 c-3 -3 -12 -4 -19 -1 -8 3 -5 6 6 6 11 1 17 -2 13 -5z m-14180 -20
c-3 -3 -12 -4 -19 -1 -8 3 -5 6 6 6 11 1 17 -2 13 -5z m2720 -10 c-3 -3 -12
-4 -19 -1 -8 3 -5 6 6 6 11 1 17 -2 13 -5z m-5692 -26 c13 -53 55 -261 55
-270 0 -5 -4 -6 -10 -3 -5 3 -10 -1 -10 -9 0 -9 -5 -16 -11 -16 -5 0 -7 5 -4
10 4 6 -7 10 -27 10 -57 -1 -404 -46 -390 -51 7 -2 -15 -5 -50 -6 -116 -2
-142 -5 -128 -13 8 -5 -10 -8 -46 -8 -32 0 -75 -2 -94 -5 -19 -2 -61 -5 -92
-6 -44 -1 -58 -5 -58 -16 0 -8 -4 -15 -10 -15 -5 0 -10 5 -10 11 0 12 -129 2
-143 -11 -5 -4 -27 -5 -49 -2 -29 3 -39 2 -34 -6 4 -8 -3 -10 -25 -7 -25 3
-30 1 -24 -13 5 -13 3 -14 -6 -5 -12 12 -74 301 -66 309 5 5 1142 141 1194
143 26 1 34 -4 38 -21z m4630 -19 c-6 -24 -4 -30 5 -24 8 5 11 4 6 -3 -3 -6 2
-13 11 -15 15 -4 15 -5 2 -6 -20 -1 -34 15 -43 49 -6 19 -5 21 3 10 9 -13 11
-13 11 3 0 9 3 17 6 17 3 0 3 -14 -1 -31z m-2038 15 c-3 -3 -12 -4 -19 -1 -8
3 -5 6 6 6 11 1 17 -2 13 -5z m2810 0 c-3 -3 -12 -4 -19 -1 -8 3 -5 6 6 6 11
1 17 -2 13 -5z m11099 -20 c1 -9 0 -13 -4 -10 -3 4 -7 14 -8 22 -1 9 0 13 4
10 3 -4 7 -14 8 -22z m-14039 -6 c-3 -8 -6 -5 -6 6 -1 11 2 17 5 13 3 -3 4
-12 1 -19z m46 5 c-7 -2 -19 -2 -25 0 -7 3 -2 5 12 5 14 0 19 -2 13 -5z m1521
-9 c3 -8 2 -12 -4 -9 -6 3 -10 10 -10 16 0 14 7 11 14 -7z m1213 10 c-3 -3
-12 -4 -19 -1 -8 3 -5 6 6 6 11 1 17 -2 13 -5z m11310 0 c-3 -3 -12 -4 -19 -1
-8 3 -5 6 6 6 11 1 17 -2 13 -5z m-11774 -41 c-7 -2 -21 -2 -30 0 -10 3 -4 5
12 5 17 0 24 -2 18 -5z m67 3 c0 -2 -7 -6 -15 -10 -8 -3 -15 -1 -15 4 0 6 7
10 15 10 8 0 15 -2 15 -4z m12627 -18 c-3 -8 -6 -5 -6 6 -1 11 2 17 5 13 3 -3
4 -12 1 -19z m-1220 -14 c-3 -3 -12 -4 -19 -1 -8 3 -5 6 6 6 11 1 17 -2 13 -5z
m-14386 -31 c-12 -20 -14 -14 -5 12 4 9 9 14 11 11 3 -2 0 -13 -6 -23z m14381
8 c8 11 9 11 6 1 -4 -16 -22 -18 -24 -2 -2 7 -1 6 3 -1 4 -8 8 -7 15 2z
m-12339 -68 c-7 -2 -21 -2 -30 0 -10 3 -4 5 12 5 17 0 24 -2 18 -5z m-3025
-10 c-10 -2 -26 -2 -35 0 -10 3 -2 5 17 5 19 0 27 -2 18 -5z m299 1 c-3 -3
-12 -4 -19 -1 -8 3 -5 6 6 6 11 1 17 -2 13 -5z m15034 -17 c-10 -9 -11 -8 -5
6 3 10 9 15 12 12 3 -3 0 -11 -7 -18z m1279 3 c0 -5 -2 -10 -4 -10 -3 0 -8 5
-11 10 -3 6 -1 10 4 10 6 0 11 -4 11 -10z m-15608 -32 c-7 -7 -12 -8 -12 -2 0
14 12 26 19 19 2 -3 -1 -11 -7 -17z m1423 4 c-3 -3 -11 0 -18 7 -9 10 -8 11 6
5 10 -3 15 -9 12 -12z m155 7 c-11 -8 -6 -9 20 -5 30 5 32 5 11 -4 -29 -13
-72 -3 -50 11 20 12 37 11 19 -2z m177 5 c-3 -3 -12 -4 -19 -1 -8 3 -5 6 6 6
11 1 17 -2 13 -5z m-2998 -44 c0 -10 -3 -8 -9 5 -12 27 -12 43 0 25 5 -8 9
-22 9 -30z m1264 0 c3 -11 1 -18 -4 -14 -5 3 -9 12 -9 20 0 20 7 17 13 -6z
m1402 2 c-3 -3 -11 0 -18 7 -9 10 -8 11 6 5 10 -3 15 -9 12 -12z m11465 14 c0
-3 -4 -8 -10 -11 -5 -3 -10 -1 -10 4 0 6 5 11 10 11 6 0 10 -2 10 -4z m-11507
-13 c-7 -2 -21 -2 -30 0 -10 3 -4 5 12 5 17 0 24 -2 18 -5z m11584 1 c-3 -3
-12 -4 -19 -1 -8 3 -5 6 6 6 11 1 17 -2 13 -5z m2640 -14 c-3 -11 -1 -23 4
-26 5 -3 9 -11 9 -17 0 -7 -4 -6 -10 3 -8 13 -10 13 -10 -2 0 -9 -4 -19 -8
-22 -9 -5 -7 28 3 62 9 27 19 30 12 2z m-2804 3 c-7 -2 -19 -2 -25 0 -7 3 -2
5 12 5 14 0 19 -2 13 -5z m-11945 -38 c-3 -3 -9 2 -12 12 -6 14 -5 15 5 6 7
-7 10 -15 7 -18z m-2696 -7 c-7 -7 -12 -8 -12 -2 0 14 12 26 19 19 2 -3 -1
-11 -7 -17z m1865 0 c-3 -8 -6 -5 -6 6 -1 11 2 17 5 13 3 -3 4 -12 1 -19z
m612 -38 c0 -10 -3 -8 -9 5 -12 27 -12 43 0 25 5 -8 9 -22 9 -30z m12181 30
c0 -5 -2 -10 -4 -10 -3 0 -8 5 -11 10 -3 6 -1 10 4 10 6 0 11 -4 11 -10z
m-14933 -16 c-3 -3 -12 -4 -19 -1 -8 3 -5 6 6 6 11 1 17 -2 13 -5z m2128 -13
c-3 -6 -14 -10 -23 -10 -15 1 -15 2 1 6 9 2 17 9 17 15 0 6 3 9 6 5 3 -3 3
-10 -1 -16z m728 12 c-7 -2 -19 -2 -25 0 -7 3 -2 5 12 5 14 0 19 -2 13 -5z
m13609 -12 c8 11 9 11 6 1 -4 -16 -22 -18 -24 -2 -2 7 -1 6 3 -1 4 -8 8 -7 15
2z m-1542 -11 c0 -5 -2 -10 -4 -10 -3 0 -8 5 -11 10 -3 6 -1 10 4 10 6 0 11
-4 11 -10z m2763 -11 c-8 -8 -13 -7 -18 2 -5 8 -4 10 3 5 7 -4 12 -2 12 5 0 7
3 9 7 6 4 -4 2 -12 -4 -18z m-49 -5 c9 -3 13 -11 10 -16 -4 -6 -10 -5 -15 3
-8 12 -11 11 -19 -1 -5 -8 -10 -10 -10 -4 0 10 9 24 16 24 1 0 9 -3 18 -6z
m-1767 -10 c-3 -3 -12 -4 -19 -1 -8 3 -5 6 6 6 11 1 17 -2 13 -5z m-14950 -36
c-3 -7 -5 -2 -5 12 0 14 2 19 5 13 2 -7 2 -19 0 -25z m13991 7 c-3 -3 -9 2
-12 12 -6 14 -5 15 5 6 7 -7 10 -15 7 -18z m2762 21 c0 -2 -8 -10 -17 -17 -16
-13 -17 -12 -4 4 13 16 21 21 21 13z m-52 -28 c-2 -7 3 -12 10 -10 8 1 11 -2
7 -8 -5 -8 -11 -8 -21 1 -7 6 -11 15 -8 20 8 13 14 11 12 -3z m-2681 -20 c-3
-8 -6 -5 -6 6 -1 11 2 17 5 13 3 -3 4 -12 1 -19z m-13402 -8 c-11 -5 -27 -9
-35 -9 -9 0 -8 4 5 9 11 5 27 9 35 9 9 0 8 -4 -5 -9z m70 0 c-3 -5 -12 -10
-18 -10 -7 0 -6 4 3 10 19 12 23 12 15 0z m13308 -10 c-3 -12 -8 -19 -11 -16
-5 6 5 36 12 36 2 0 2 -9 -1 -20z m2649 -2 c-7 -7 -12 -8 -12 -2 0 14 12 26
19 19 2 -3 -1 -11 -7 -17z m-16015 -24 c-3 -3 -12 -4 -19 -1 -8 3 -5 6 6 6 11
1 17 -2 13 -5z m50 -10 c-3 -3 -12 -4 -19 -1 -8 3 -5 6 6 6 11 1 17 -2 13 -5z
m15966 -11 c-5 -12 -3 -14 8 -8 8 5 7 1 -4 -12 -9 -11 -14 -24 -10 -28 5 -5 1
-4 -8 3 -9 6 -19 10 -23 7 -3 -3 -2 0 4 7 6 8 6 16 -1 25 -8 9 -8 13 -1 13 6
0 13 -6 15 -12 3 -8 6 -6 6 5 1 9 5 17 11 17 5 0 6 -7 3 -17z m-2628 -12 c-3
-6 -11 -11 -16 -11 -5 0 -4 6 3 14 14 16 24 13 13 -3z m-15841 -27 c9 -24 2
-26 -12 -4 -7 11 -8 20 -3 20 5 0 12 -7 15 -16z m1246 -19 c0 -5 -5 -3 -10 5
-5 8 -10 20 -10 25 0 6 5 3 10 -5 5 -8 10 -19 10 -25z m600 25 c0 -5 -5 -10
-11 -10 -5 0 -7 5 -4 10 3 6 8 10 11 10 2 0 4 -4 4 -10z m14947 -12 c-3 -8 -6
-5 -6 6 -1 11 2 17 5 13 3 -3 4 -12 1 -19z m585 -3 c3 -13 1 -22 -3 -19 -9 5
-13 44 -5 44 2 0 6 -11 8 -25z m-15516 -11 c-4 -9 -9 -15 -11 -12 -3 3 -3 13
1 22 4 9 9 15 11 12 3 -3 3 -13 -1 -22z m14891 -21 c-3 -10 -5 -4 -5 12 0 17
2 24 5 18 2 -7 2 -21 0 -30z m1683 -7 c-6 -17 -14 -24 -22 -20 -7 5 -9 2 -6
-8 4 -8 2 -21 -3 -29 -7 -12 -9 -12 -10 1 -1 8 -1 19 0 24 1 5 -4 13 -11 18
-8 5 -4 7 14 4 21 -4 27 0 33 21 3 14 8 23 11 21 2 -3 0 -17 -6 -32z m-2583
-18 c-3 -8 -6 -5 -6 6 -1 11 2 17 5 13 3 -3 4 -12 1 -19z m943 18 c0 -2 -7 -7
-16 -10 -8 -3 -12 -2 -9 4 6 10 25 14 25 6z m-938 -81 c9 -20 9 -20 -6 -1 -9
11 -16 27 -15 35 0 14 1 14 6 1 3 -8 10 -24 15 -35z m-14679 18 c-7 -2 -19 -2
-25 0 -7 3 -2 5 12 5 14 0 19 -2 13 -5z m17207 -13 c0 -11 -2 -20 -4 -20 -2 0
-6 9 -9 20 -3 11 -1 20 4 20 5 0 9 -9 9 -20z m-21 -18 c7 -13 6 -19 -2 -19 -7
0 -13 9 -13 19 0 10 1 18 3 18 1 0 7 -8 12 -18z m-18264 -2 c3 -5 1 -10 -4
-10 -6 0 -11 5 -11 10 0 6 2 10 4 10 3 0 8 -4 11 -10z m438 -7 c-7 -2 -19 -2
-25 0 -7 3 -2 5 12 5 14 0 19 -2 13 -5z m240 0 c-7 -2 -19 -2 -25 0 -7 3 -2 5
12 5 14 0 19 -2 13 -5z m-706 -18 c8 -9 13 -18 11 -21 -3 -2 -13 5 -23 16 -21
23 -11 27 12 5z m608 -3 c-3 -3 -11 0 -18 7 -9 10 -8 11 6 5 10 -3 15 -9 12
-12z m15178 -2 c3 -11 1 -18 -4 -14 -5 3 -9 12 -9 20 0 20 7 17 13 -6z m1577
0 c0 -5 -2 -10 -4 -10 -3 0 -8 5 -11 10 -3 6 -1 10 4 10 6 0 11 -4 11 -10z
m-16980 -16 c0 -2 -7 -4 -15 -4 -8 0 -15 4 -15 10 0 5 7 7 15 4 8 -4 15 -8 15
-10z m-405 -4 c3 -5 1 -10 -4 -10 -6 0 -11 5 -11 10 0 6 2 10 4 10 3 0 8 -4
11 -10z m482 4 c-3 -3 -12 -4 -19 -1 -8 3 -5 6 6 6 11 1 17 -2 13 -5z m16893
-18 c0 -2 -7 -7 -16 -10 -8 -3 -12 -2 -9 4 6 10 25 14 25 6z m910 -12 c0 -8
-19 -13 -24 -6 -3 5 1 9 9 9 8 0 15 -2 15 -3z m-890 -42 c0 -7 -4 -10 -10 -7
-5 3 -10 16 -10 28 0 18 2 19 10 7 5 -8 10 -21 10 -28z m878 6 c-3 -7 -11 -13
-19 -13 -7 0 -15 -9 -17 -20 -3 -16 -1 -17 7 -5 7 9 11 10 11 3 0 -16 -17 -26
-25 -13 -10 17 5 52 21 46 8 -3 14 -1 14 4 0 6 3 10 6 10 3 0 4 -6 2 -12z
m-881 -38 c4 3 9 -11 10 -30 l1 -35 -8 35 c-4 19 -8 28 -9 20 -2 -16 -30 26
-30 45 0 6 6 -1 14 -15 7 -14 17 -23 22 -20z m-1513 -19 c3 -5 -3 -11 -13 -14
-14 -3 -18 -1 -14 9 6 16 19 18 27 5z m2313 3 c-3 -3 -12 -4 -19 -1 -8 3 -5 6
6 6 11 1 17 -2 13 -5z m-2353 -50 c3 -8 2 -12 -4 -9 -6 3 -10 10 -10 16 0 14
7 11 14 -7z m2349 9 c-7 -2 -19 -2 -25 0 -7 3 -2 5 12 5 14 0 19 -2 13 -5z
m-2320 -43 c-7 -27 -13 -25 -11 4 1 14 5 23 9 20 4 -2 5 -13 2 -24z m1680 3
c-7 -2 -19 -2 -25 0 -7 3 -2 5 12 5 14 0 19 -2 13 -5z m155 0 c-10 -2 -28 -2
-40 0 -13 2 -5 4 17 4 22 1 32 -1 23 -4z m-910 -28 c-3 -3 -9 2 -12 12 -6 14
-5 15 5 6 7 -7 10 -15 7 -18z m829 19 c-3 -3 -12 -4 -19 -1 -8 3 -5 6 6 6 11
1 17 -2 13 -5z m-1767 -39 c0 -5 -5 -3 -10 5 -5 8 -10 20 -10 25 0 6 5 3 10
-5 5 -8 10 -19 10 -25z m1558 17 c-10 -2 -18 -9 -18 -15 0 -7 -4 -6 -10 3 -8
12 -10 12 -10 1 0 -8 -2 -12 -5 -9 -3 3 -3 12 0 20 4 10 14 13 33 10 19 -4 22
-7 10 -10z m289 12 c-3 -3 -12 -4 -19 -1 -8 3 -5 6 6 6 11 1 17 -2 13 -5z
m-202 -14 c3 -6 -1 -7 -9 -4 -18 7 -21 14 -7 14 6 0 13 -4 16 -10z m-1628 -82
c-3 -8 -6 -5 -6 6 -1 11 2 17 5 13 3 -3 4 -12 1 -19z m803 -8 c0 -5 -2 -10 -4
-10 -3 0 -8 5 -11 10 -3 6 -1 10 4 10 6 0 11 -4 11 -10z m-792 -35 c-6 -14
-13 -23 -15 -21 -5 5 15 46 22 46 3 0 -1 -11 -7 -25z m79 -7 c-3 -8 -6 -5 -6
6 -1 11 2 17 5 13 3 -3 4 -12 1 -19z m343 2 c8 -5 11 -10 5 -10 -5 0 -17 5
-25 10 -8 5 -10 10 -5 10 6 0 17 -5 25 -10z m117 4 c-3 -3 -12 -4 -19 -1 -8 3
-5 6 6 6 11 1 17 -2 13 -5z m-380 -36 c-3 -8 -6 -5 -6 6 -1 11 2 17 5 13 3 -3
4 -12 1 -19z m-137 -8 c0 -5 -2 -10 -4 -10 -3 0 -8 5 -11 10 -3 6 -1 10 4 10
6 0 11 -4 11 -10z m-25446 -201 c20 -73 35 -133 34 -134 -2 -2 -66 -11 -143
-20 -77 -9 -151 -19 -165 -22 -23 -5 -24 -6 -5 -13 16 -7 17 -9 3 -9 -9 -1
-19 3 -22 7 -8 13 -38 260 -34 274 4 11 84 24 284 47 6 0 28 -58 48 -130z m40
-165 c3 -8 2 -12 -4 -9 -6 3 -10 10 -10 16 0 14 7 11 14 -7z m-107 -10 c-3 -3
-12 -4 -19 -1 -8 3 -5 6 6 6 11 1 17 -2 13 -5z m101 -35 c-3 -8 -7 -3 -11 10
-4 17 -3 21 5 13 5 -5 8 -16 6 -23z m23426 -11 c27 -198 27 -217 6 -238 -11
-11 -20 -15 -20 -10 0 6 -16 10 -35 10 -19 0 -35 -4 -35 -9 0 -5 -7 -12 -16
-15 -8 -3 -12 -2 -9 4 7 12 -1 12 -44 4 -24 -5 -31 -11 -27 -23 5 -14 5 -14
-7 1 -12 15 -22 15 -122 2 -61 -7 -112 -14 -115 -14 -3 0 2 -5 10 -10 9 -6 10
-10 3 -10 -6 0 -15 5 -18 10 -3 6 -16 10 -28 9 -21 0 -21 -1 -2 -10 15 -7 11
-8 -16 -4 -32 5 -67 1 -219 -22 -19 -2 -48 -5 -65 -4 -20 0 -26 -2 -17 -8 9
-5 -2 -7 -26 -5 -52 3 -246 -22 -272 -36 -15 -8 -20 -8 -20 1 0 9 -3 9 -14 0
-16 -13 -16 -13 -42 171 -10 70 -16 129 -14 132 3 2 201 25 440 50 239 25 473
49 520 54 47 5 111 10 142 11 l57 1 5 -42z m-23587 26 c-3 -3 -12 -4 -19 -1
-8 3 -5 6 6 6 11 1 17 -2 13 -5z m143 -29 c0 -5 -5 -3 -10 5 -5 8 -10 20 -10
25 0 6 5 3 10 -5 5 -8 10 -19 10 -25z m27 -37 c-3 -8 -6 -5 -6 6 -1 11 2 17 5
13 3 -3 4 -12 1 -19z m-289 -22 c-2 -20 -5 -23 -20 -15 -24 13 -23 39 2 39 15
0 19 -6 18 -24z m264 2 c-7 -7 -12 -8 -12 -2 0 14 12 26 19 19 2 -3 -1 -11 -7
-17z m-268 -47 c4 -5 -3 -7 -14 -4 -23 6 -26 13 -6 13 8 0 17 -4 20 -9z
m22000 -158 c10 -71 20 -140 23 -154 5 -24 2 -27 -39 -34 -23 -4 -56 -9 -73
-10 -16 -2 -66 -6 -110 -9 -44 -4 -87 -9 -95 -13 -8 -3 -26 -7 -40 -8 -38 -4
-304 -34 -400 -44 -47 -5 -114 -13 -150 -16 -36 -4 -71 -12 -77 -17 -7 -6 -19
-8 -27 -5 -18 7 -206 -14 -201 -22 1 -3 -21 -6 -51 -6 -54 0 -54 0 -60 35 -4
19 -17 89 -30 155 -13 66 -21 121 -19 123 4 4 1255 149 1300 151 l31 1 18
-127z m-21632 53 c7 4 8 2 4 -5 -9 -13 -26 -5 -25 12 0 9 2 8 6 -1 2 -6 10 -9
15 -6z m-18 -24 c3 -5 -1 -9 -9 -9 -8 0 -12 4 -9 9 3 4 7 8 9 8 2 0 6 -4 9 -8z
m44 -47 c-3 -3 -9 2 -12 12 -6 14 -5 15 5 6 7 -7 10 -15 7 -18z m-394 -1 c3
-8 2 -12 -4 -9 -6 3 -10 10 -10 16 0 14 7 11 14 -7z m23687 -7 c-10 -9 -11 -8
-5 6 3 10 9 15 12 12 3 -3 0 -11 -7 -18z m-194 7 c-3 -3 -12 -4 -19 -1 -8 3
-5 6 6 6 11 1 17 -2 13 -5z m-23137 -19 c0 -8 -4 -15 -10 -15 -5 0 -7 7 -4 15
4 8 8 15 10 15 2 0 4 -7 4 -15z m17 -7 c-3 -8 -6 -5 -6 6 -1 11 2 17 5 13 3
-3 4 -12 1 -19z m23120 6 c-3 -3 -12 -4 -19 -1 -8 3 -5 6 6 6 11 1 17 -2 13
-5z m86 -1 c-7 -2 -19 -2 -25 0 -7 3 -2 5 12 5 14 0 19 -2 13 -5z m-3484 -95
c31 -154 52 -271 48 -274 -2 -2 -29 -6 -61 -9 -32 -3 -63 -8 -69 -12 -6 -4
-38 -8 -71 -9 -77 -2 -247 -22 -306 -35 -25 -5 -72 -12 -105 -14 -33 -2 -82
-7 -110 -10 -27 -3 -63 -5 -80 -6 -26 0 -27 -1 -10 -8 14 -6 1 -9 -40 -8 -93
1 -218 -15 -233 -30 -11 -10 -17 -11 -28 -2 -10 8 -22 8 -45 0 -18 -6 -48 -11
-68 -11 -60 0 -221 -24 -221 -33 0 -5 -6 -2 -14 6 -13 13 -65 322 -55 331 2 2
328 42 724 88 396 47 723 86 727 87 4 0 11 -23 17 -51z m2764 35 c-7 -2 -19
-2 -25 0 -7 3 -2 5 12 5 14 0 19 -2 13 -5z m67 -13 c-8 -5 -22 -9 -30 -9 -10
0 -8 3 5 9 27 12 43 12 25 0z m-22603 -26 c-3 -3 -12 -4 -19 -1 -8 3 -5 6 6 6
11 1 17 -2 13 -5z m22300 -10 c-3 -3 -12 -4 -19 -1 -8 3 -5 6 6 6 11 1 17 -2
13 -5z m1130 -16 c-3 -8 -6 -5 -6 6 -1 11 2 17 5 13 3 -3 4 -12 1 -19z m-40 6
c-3 -3 -12 -4 -19 -1 -8 3 -5 6 6 6 11 1 17 -2 13 -5z m0 -20 c-3 -3 -12 -4
-19 -1 -8 3 -5 6 6 6 11 1 17 -2 13 -5z m-1077 -20 c0 -2 -7 -4 -15 -4 -8 0
-15 4 -15 10 0 5 7 7 15 4 8 -4 15 -8 15 -10z m-612 -25 c-3 -8 -7 -3 -11 10
-4 17 -3 21 5 13 5 -5 8 -16 6 -23z m601 -49 c0 -10 -3 -8 -9 5 -12 27 -12 43
0 25 5 -8 9 -22 9 -30z m-599 -10 c0 -5 -2 -10 -4 -10 -3 0 -8 5 -11 10 -3 6
-1 10 4 10 6 0 11 -4 11 -10z m613 -15 c-3 -9 -8 -14 -10 -11 -3 3 -2 9 2 15
9 16 15 13 8 -4z m-596 -27 c-3 -8 -6 -5 -6 6 -1 11 2 17 5 13 3 -3 4 -12 1
-19z m-3958 -145 c26 -181 26 -194 4 -186 -12 5 -14 3 -8 -7 6 -10 2 -11 -18
-6 -22 5 -474 -43 -557 -59 -36 -7 -131 -17 -160 -16 -20 1 -22 -1 -10 -9 13
-8 13 -10 -2 -10 -9 0 -25 -3 -35 -6 -15 -5 -16 -4 -3 6 12 9 5 10 -30 5 -25
-3 -52 -6 -60 -7 -13 0 -87 -10 -185 -24 -16 -2 -52 -6 -80 -8 -27 -2 -51 -9
-53 -16 -3 -8 -7 -8 -18 0 -10 9 -21 8 -45 -4 -37 -18 -51 -21 -29 -5 11 8 5
9 -25 4 -71 -12 -100 -16 -120 -17 -11 0 -74 -7 -140 -14 -66 -8 -151 -17
-190 -20 -38 -3 -76 -10 -83 -17 -10 -8 -15 -8 -21 1 -11 18 -55 322 -48 329
4 3 266 37 584 74 513 61 1288 155 1304 158 3 1 16 -65 28 -146z m4548 95 c-3
-7 -5 -2 -5 12 0 14 2 19 5 13 2 -7 2 -19 0 -25z m-1800 16 c-3 -3 -12 -4 -19
-1 -8 3 -5 6 6 6 11 1 17 -2 13 -5z m-23183 -35 c4 -3 27 -237 51 -520 299
-3427 625 -6255 880 -7638 14 -73 23 -137 20 -141 -13 -22 -431 -42 -635 -30
-406 23 -728 101 -1035 249 -460 222 -804 548 -1088 1031 -231 395 -330 745
-305 1083 34 452 346 861 876 1146 82 44 117 69 147 107 109 133 98 331 -23
452 -66 67 -139 96 -239 97 -81 0 -83 -1 -208 -64 -223 -112 -449 -277 -634
-461 -303 -301 -484 -628 -567 -1025 -25 -119 -28 -149 -28 -355 -1 -255 16
-383 81 -605 108 -372 322 -777 599 -1135 111 -143 375 -410 514 -520 618
-489 1412 -724 2294 -680 111 5 235 14 276 20 134 17 122 24 149 -87 85 -352
196 -627 300 -743 l49 -55 7 -165 c23 -546 89 -996 235 -1595 208 -857 636
-1886 1142 -2748 38 -65 68 -120 66 -122 -2 -2 -71 -9 -153 -14 -965 -68
-1947 -45 -2795 65 -2680 346 -4565 1541 -5542 3515 -417 840 -656 1795 -718
2864 -13 220 -13 802 0 1020 31 519 98 1033 202 1535 41 200 140 605 176 720
12 36 48 155 82 265 287 933 736 1860 1205 2490 400 537 860 961 1400 1292
827 506 1854 767 2987 760 124 -1 229 -5 232 -8z m26134 -35 c-3 -14 -5 -12
-10 9 -3 19 -2 25 4 19 6 -6 8 -18 6 -28z m-3673 -14 c3 -5 1 -10 -4 -10 -6 0
-11 5 -11 10 0 6 2 10 4 10 3 0 8 -4 11 -10z m39 -6 c3 -8 2 -12 -4 -9 -6 3
-10 10 -10 16 0 14 7 11 14 -7z m615 -34 c11 -24 11 -24 -3 -6 -9 11 -16 24
-16 30 0 12 5 7 19 -24z m1272 -1 c-5 -13 -10 -19 -10 -12 -1 15 10 45 15 40
3 -2 0 -15 -5 -28z m1736 -9 c-1 -10 -5 -16 -9 -14 -5 3 -6 10 -3 15 4 5 -1 9
-9 9 -8 0 -17 4 -20 9 -3 4 5 6 19 4 15 -3 23 -11 22 -23z m-4194 -7 c-7 -2
-19 -2 -25 0 -7 3 -2 5 12 5 14 0 19 -2 13 -5z m122 -11 c-3 -3 -11 0 -18 7
-9 10 -8 11 6 5 10 -3 15 -9 12 -12z m3968 11 c-7 -2 -19 -2 -25 0 -7 3 -2 5
12 5 14 0 19 -2 13 -5z m-4103 -17 c0 -3 -4 -8 -10 -11 -5 -3 -10 -1 -10 4 0
6 5 11 10 11 6 0 10 -2 10 -4z m2501 -19 c-10 -9 -11 -8 -5 6 3 10 9 15 12 12
3 -3 0 -11 -7 -18z m-1304 -9 c2 -17 0 -19 -7 -8 -5 8 -6 18 -4 22 8 12 10 10
11 -14z m1955 -7 c-5 -3 -12 -15 -15 -26 -4 -16 -5 -15 -6 6 -1 29 7 41 21 32
7 -3 7 -8 0 -12z m345 -3 c-3 -8 -6 -5 -6 6 -1 11 2 17 5 13 3 -3 4 -12 1 -19z
m103 8 c0 -3 -4 -8 -10 -11 -5 -3 -10 -1 -10 4 0 6 5 11 10 11 6 0 10 -2 10
-4z m255 -6 c-11 -5 -29 -8 -40 -8 -16 0 -15 2 5 8 34 11 60 11 35 0z m-2615
-35 c0 -5 -5 -3 -10 5 -5 8 -10 20 -10 25 0 6 5 3 10 -5 5 -8 10 -19 10 -25z
m1217 13 c-3 -8 -6 -5 -6 6 -1 11 2 17 5 13 3 -3 4 -12 1 -19z m57 6 c3 -8 2
-12 -4 -9 -6 3 -10 10 -10 16 0 14 7 11 14 -7z m1231 6 c25 -11 -1 -11 -35 0
-20 6 -21 8 -5 8 11 0 29 -3 40 -8z m-635 -10 c0 -5 -2 -10 -4 -10 -3 0 -8 5
-11 10 -3 6 -1 10 4 10 6 0 11 -4 11 -10z m520 -4 c0 -2 -7 -7 -16 -10 -8 -3
-12 -2 -9 4 6 10 25 14 25 6z m-3016 -22 c3 -8 2 -12 -4 -9 -6 3 -10 10 -10
16 0 14 7 11 14 -7z m2510 -9 c3 -8 1 -15 -4 -15 -6 0 -10 7 -10 15 0 8 2 15
4 15 2 0 6 -7 10 -15z m-4579 -75 c3 -5 1 -10 -4 -10 -6 0 -11 5 -11 10 0 6 2
10 4 10 3 0 8 -4 11 -10z m2676 -13 c-10 -9 -11 -8 -5 6 3 10 9 15 12 12 3 -3
0 -11 -7 -18z m-2084 -9 c-3 -8 -6 -5 -6 6 -1 11 2 17 5 13 3 -3 4 -12 1 -19z
m3313 -4 c0 -2 -7 -4 -15 -4 -8 0 -15 4 -15 10 0 5 7 7 15 4 8 -4 15 -8 15
-10z m-1820 -4 c0 -5 -2 -10 -4 -10 -3 0 -8 5 -11 10 -3 6 -1 10 4 10 6 0 11
-4 11 -10z m1715 -10 c-27 -12 -43 -12 -25 0 8 5 22 9 30 9 10 0 8 -3 -5 -9z
m62 4 c-3 -3 -12 -4 -19 -1 -8 3 -5 6 6 6 11 1 17 -2 13 -5z m80 0 c-3 -3 -12
-4 -19 -1 -8 3 -5 6 6 6 11 1 17 -2 13 -5z m48 -4 c-3 -5 -14 -10 -23 -10 -15
0 -15 2 -2 10 20 13 33 13 25 0z m-4468 -6 c-3 -3 -12 -4 -19 -1 -8 3 -5 6 6
6 11 1 17 -2 13 -5z m4410 -10 c-3 -3 -12 -4 -19 -1 -8 3 -5 6 6 6 11 1 17 -2
13 -5z m-4324 -11 c-7 -2 -21 -2 -30 0 -10 3 -4 5 12 5 17 0 24 -2 18 -5z
m384 -20 c1 -22 -1 -24 -8 -10 -6 9 -7 22 -4 27 9 14 10 13 12 -17z m-530 11
c-3 -3 -12 -4 -19 -1 -8 3 -5 6 6 6 11 1 17 -2 13 -5z m550 -26 c-3 -8 -6 -5
-6 6 -1 11 2 17 5 13 3 -3 4 -12 1 -19z m3126 -5 c-7 -2 -19 -2 -25 0 -7 3 -2
5 12 5 14 0 19 -2 13 -5z m150 0 c-7 -2 -19 -2 -25 0 -7 3 -2 5 12 5 14 0 19
-2 13 -5z m135 0 c-10 -2 -26 -2 -35 0 -10 3 -2 5 17 5 19 0 27 -2 18 -5z m82
-3 c-8 -5 -22 -9 -30 -9 -10 0 -8 3 5 9 27 12 43 12 25 0z m-1423 -32 c-3 -7
-5 -2 -5 12 0 14 2 19 5 13 2 -7 2 -19 0 -25z m1320 16 c-3 -3 -12 -4 -19 -1
-8 3 -5 6 6 6 11 1 17 -2 13 -5z m-214 -11 c-7 -2 -21 -2 -30 0 -10 3 -4 5 12
5 17 0 24 -2 18 -5z m72 -3 c-3 -5 -12 -10 -18 -10 -7 0 -6 4 3 10 19 12 23
12 15 0z m-4432 -17 c-7 -2 -19 -2 -25 0 -7 3 -2 5 12 5 14 0 19 -2 13 -5z
m144 1 c-3 -3 -12 -4 -19 -1 -8 3 -5 6 6 6 11 1 17 -2 13 -5z m1014 -37 c-10
-9 -11 -8 -5 6 3 10 9 15 12 12 3 -3 0 -11 -7 -18z m2732 8 c-3 -9 -8 -14 -10
-11 -3 3 -2 9 2 15 9 16 15 13 8 -4z m74 8 c-9 -2 -15 -9 -12 -14 3 -5 -1 -6
-9 -3 -22 8 -10 24 17 23 17 -1 18 -2 4 -6z m-680 -25 c-3 -8 -6 -5 -6 6 -1
11 2 17 5 13 3 -3 4 -12 1 -19z m-2079 -13 c-3 -3 -9 2 -12 12 -6 14 -5 15 5
6 7 -7 10 -15 7 -18z m-31 -7 c-3 -8 -6 -5 -6 6 -1 11 2 17 5 13 3 -3 4 -12 1
-19z m-1867 -28 c0 -5 -5 -10 -11 -10 -5 0 -7 5 -4 10 3 6 8 10 11 10 2 0 4
-4 4 -10z m1884 2 c-6 -4 -14 -14 -17 -22 -4 -11 -6 -10 -6 5 -1 17 -3 17 -11
5 -5 -8 -10 -10 -10 -4 0 15 6 19 32 21 12 1 18 -1 12 -5z m1973 -24 c-3 -8
-6 -5 -6 6 -1 11 2 17 5 13 3 -3 4 -12 1 -19z m40 0 c-3 -8 -6 -5 -6 6 -1 11
2 17 5 13 3 -3 4 -12 1 -19z m-1987 -19 c0 -6 -4 -7 -10 -4 -5 3 -10 11 -10
16 0 6 5 7 10 4 6 -3 10 -11 10 -16z m590 -10 c0 -6 -4 -7 -10 -4 -5 3 -10 11
-10 16 0 6 5 7 10 4 6 -3 10 -11 10 -16z m-620 -3 c0 -8 -4 -18 -10 -21 -5 -3
-10 3 -10 14 0 12 5 21 10 21 6 0 10 -6 10 -14z m679 -31 c0 -5 -4 -3 -9 5 -5
8 -9 22 -9 30 0 16 17 -16 18 -35z m1281 31 c0 -2 -7 -6 -15 -10 -8 -3 -15 -1
-15 4 0 6 7 10 15 10 8 0 15 -2 15 -4z m-1313 -38 c-3 -7 -5 -2 -5 12 0 14 2
19 5 13 2 -7 2 -19 0 -25z m-2517 -15 c0 -19 -13 -9 -16 12 -1 8 2 13 7 9 5
-3 9 -12 9 -21z m3207 5 c-3 -8 -6 -5 -6 6 -1 11 2 17 5 13 3 -3 4 -12 1 -19z
m393 12 c0 -5 -8 -10 -17 -10 -15 0 -16 2 -3 10 19 12 20 12 20 0z m-433 -6
c-3 -3 -12 -4 -19 -1 -8 3 -5 6 6 6 11 1 17 -2 13 -5z m107 -10 c3 -8 2 -12
-4 -9 -6 3 -10 10 -10 16 0 14 7 11 14 -7z m251 6 c-3 -5 -12 -7 -20 -3 -21 7
-19 13 6 13 11 0 18 -4 14 -10z m-278 -6 c-3 -3 -12 -4 -19 -1 -8 3 -5 6 6 6
11 1 17 -2 13 -5z m-3208 -38 c0 -7 -2 -6 -6 2 -2 6 -9 12 -14 12 -6 0 -7 -4
-4 -10 3 -5 0 -7 -9 -4 -12 5 -13 9 -3 19 13 14 38 2 36 -19z m25 18 c5 -14 4
-15 -9 -4 -17 14 -19 20 -6 20 5 0 12 -7 15 -16z m3291 6 c3 -6 -1 -7 -9 -4
-18 7 -21 14 -7 14 6 0 13 -4 16 -10z m73 3 c-10 -2 -28 -2 -40 0 -13 2 -5 4
17 4 22 1 32 -1 23 -4z m-258 -23 c0 -5 -5 -10 -11 -10 -5 0 -7 5 -4 10 3 6 8
10 11 10 2 0 4 -4 4 -10z m127 4 c-3 -3 -12 -4 -19 -1 -8 3 -5 6 6 6 11 1 17
-2 13 -5z m4298 -14 c3 -6 -1 -7 -9 -4 -18 7 -21 14 -7 14 6 0 13 -4 16 -10z
m-5082 -15 c-3 -9 -8 -14 -10 -11 -3 3 -2 9 2 15 9 16 15 13 8 -4z m-2448 -13
c0 -11 59 -67 70 -67 6 0 10 -4 10 -10 0 -5 13 -22 28 -37 15 -15 27 -32 27
-38 0 -5 5 -10 11 -10 5 0 7 5 4 10 -3 6 -2 10 3 10 6 0 9 -11 8 -24 -1 -20
-13 -10 -86 67 -46 49 -85 96 -86 104 -2 8 1 12 4 8 4 -4 7 -10 7 -13z m42 12
c-3 -3 -12 -4 -19 -1 -8 3 -5 6 6 6 11 1 17 -2 13 -5z m38 -5 c11 -16 1 -19
-13 -3 -7 8 -8 14 -3 14 5 0 13 -5 16 -11z m2805 7 c0 -3 -4 -8 -10 -11 -5 -3
-10 -1 -10 4 0 6 5 11 10 11 6 0 10 -2 10 -4z m60 0 c0 -2 -7 -7 -16 -10 -8
-3 -12 -2 -9 4 6 10 25 14 25 6z m4420 0 c0 -2 -7 -7 -16 -10 -8 -3 -12 -2 -9
4 6 10 25 14 25 6z m-4510 -16 c0 -5 -5 -10 -11 -10 -5 0 -7 5 -4 10 3 6 8 10
11 10 2 0 4 -4 4 -10z m4690 -15 c0 -8 -4 -16 -9 -19 -5 -3 -8 5 -7 18 1 25
16 26 16 1z m-4993 9 c-3 -3 -12 -4 -19 -1 -8 3 -5 6 6 6 11 1 17 -2 13 -5z
m158 -4 c-3 -5 -11 -10 -16 -10 -6 0 -7 5 -4 10 3 6 11 10 16 10 6 0 7 -4 4
-10z m50 0 c13 -6 15 -9 5 -9 -8 0 -22 4 -30 9 -18 12 -2 12 25 0z m4450 1 c3
-5 2 -12 -3 -15 -5 -3 -9 1 -9 9 0 17 3 19 12 6z m-4562 -22 c-6 -6 -19 -9
-29 -6 -16 4 -15 5 4 6 12 0 22 6 22 13 0 6 3 8 7 5 4 -4 2 -12 -4 -18z m4687
0 c0 -6 -4 -7 -10 -4 -5 3 -10 11 -10 16 0 6 5 7 10 4 6 -3 10 -11 10 -16z
m-7253 -11 c-3 -8 -6 -5 -6 6 -1 11 2 17 5 13 3 -3 4 -12 1 -19z m2430 0 c-3
-8 -6 -5 -6 6 -1 11 2 17 5 13 3 -3 4 -12 1 -19z m4778 2 c-3 -5 -12 -10 -18
-10 -7 0 -6 4 3 10 19 12 23 12 15 0z m-7168 -26 c-3 -3 -12 -4 -19 -1 -8 3
-5 6 6 6 11 1 17 -2 13 -5z m38 -5 c11 -16 1 -19 -13 -3 -7 8 -8 14 -3 14 5 0
13 -5 16 -11z m6440 -19 c-3 -5 -12 -10 -18 -10 -7 0 -6 4 3 10 19 12 23 12
15 0z m-6438 -32 c-3 -8 -6 -5 -6 6 -1 11 2 17 5 13 3 -3 4 -12 1 -19z m6346
5 c-7 -2 -19 -2 -25 0 -7 3 -2 5 12 5 14 0 19 -2 13 -5z m117 -3 c0 -5 -5 -10
-11 -10 -5 0 -7 5 -4 10 3 6 8 10 11 10 2 0 4 -4 4 -10z m87 -12 c-3 -8 -6 -5
-6 6 -1 11 2 17 5 13 3 -3 4 -12 1 -19z m-262 3 c3 -5 2 -12 -3 -15 -5 -3 -9
1 -9 9 0 17 3 19 12 6z m38 -21 c-3 -12 -8 -19 -11 -16 -5 6 5 36 12 36 2 0 2
-9 -1 -20z m-4783 0 c20 -6 21 -8 5 -8 -11 0 -29 3 -40 8 -25 11 1 11 35 0z
m-1477 -7 c-7 -2 -19 -2 -25 0 -7 3 -2 5 12 5 14 0 19 -2 13 -5z m1224 -7 c0
-8 -8 -11 -21 -8 -19 5 -19 6 0 13 10 4 19 8 20 8 0 1 1 -5 1 -13z m78 4 c3
-6 -1 -7 -9 -4 -18 7 -21 14 -7 14 6 0 13 -4 16 -10z m-208 -6 c-3 -3 -12 -4
-19 -1 -8 3 -5 6 6 6 11 1 17 -2 13 -5z m100 -20 c-3 -3 -12 -4 -19 -1 -8 3
-5 6 6 6 11 1 17 -2 13 -5z m70 0 c-3 -3 -12 -4 -19 -1 -8 3 -5 6 6 6 11 1 17
-2 13 -5z m4974 -24 c6 0 7 -5 3 -11 -8 -14 -24 8 -23 31 1 11 3 10 6 -2 2
-10 9 -18 14 -18z m-6254 -2 c-3 -8 -6 -5 -6 6 -1 11 2 17 5 13 3 -3 4 -12 1
-19z m1140 16 c-3 -3 -12 -4 -19 -1 -8 3 -5 6 6 6 11 1 17 -2 13 -5z m-1113
-20 c3 -8 2 -12 -4 -9 -6 3 -10 10 -10 16 0 14 7 11 14 -7z m5496 6 c18 -12 2
-12 -25 0 -13 6 -15 9 -5 9 8 0 22 -4 30 -9z m-5430 -14 c0 -2 -9 -6 -20 -9
-11 -3 -18 -1 -14 4 5 9 34 13 34 5z m748 -21 c-3 -3 -9 2 -12 12 -6 14 -5 15
5 6 7 -7 10 -15 7 -18z m-228 11 c0 -3 -4 -8 -10 -11 -5 -3 -10 -1 -10 4 0 6
5 11 10 11 6 0 10 -2 10 -4z m-97 -13 c-7 -2 -19 -2 -25 0 -7 3 -2 5 12 5 14
0 19 -2 13 -5z m294 1 c-3 -3 -12 -4 -19 -1 -8 3 -5 6 6 6 11 1 17 -2 13 -5z
m4373 -14 c-8 -6 -24 -9 -35 -9 l-20 1 20 5 c11 3 24 9 29 14 5 5 12 6 15 3 3
-3 -1 -9 -9 -14z m-4447 3 c-7 -2 -19 -2 -25 0 -7 3 -2 5 12 5 14 0 19 -2 13
-5z m4373 -8 c-11 -8 -25 -15 -30 -15 -6 1 0 7 14 15 32 19 40 18 16 0z m2244
11 c0 -3 -4 -8 -10 -11 -5 -3 -10 -1 -10 4 0 6 5 11 10 11 6 0 10 -2 10 -4z
m-7225 -24 c-3 -3 -11 0 -18 7 -9 10 -8 11 6 5 10 -3 15 -9 12 -12z m368 11
c-7 -2 -21 -2 -30 0 -10 3 -4 5 12 5 17 0 24 -2 18 -5z m4807 -3 c-8 -5 -19
-10 -25 -10 -5 0 -3 5 5 10 8 5 20 10 25 10 6 0 3 -5 -5 -10z m2057 -16 c-3
-3 -12 -4 -19 -1 -8 3 -5 6 6 6 11 1 17 -2 13 -5z m-7142 -34 c13 -6 15 -9 5
-9 -8 0 -22 4 -30 9 -18 12 -2 12 25 0z m4445 0 c-8 -5 -19 -10 -25 -10 -5 0
-3 5 5 10 8 5 20 10 25 10 6 0 3 -5 -5 -10z m-135 -39 c-6 -5 -25 10 -25 20 0
5 6 4 14 -3 8 -7 12 -15 11 -17z m188 22 c-7 -2 -19 -2 -25 0 -7 3 -2 5 12 5
14 0 19 -2 13 -5z m1555 -18 c-3 -3 -9 2 -12 12 -6 14 -5 15 5 6 7 -7 10 -15
7 -18z m-1818 0 c0 -2 -9 -3 -19 -2 -11 0 -18 5 -15 9 4 6 34 0 34 -7z m177 9
c-3 -3 -12 -4 -19 -1 -8 3 -5 6 6 6 11 1 17 -2 13 -5z m60 -10 c-3 -3 -12 -4
-19 -1 -8 3 -5 6 6 6 11 1 17 -2 13 -5z m2674 -47 c-13 -13 -15 1 -4 30 7 17
8 17 11 -1 2 -10 -1 -23 -7 -29z m-1705 -14 c-10 -10 -19 5 -10 18 6 11 8 11
12 0 2 -7 1 -15 -2 -18z m-1236 -13 c0 -5 -2 -10 -4 -10 -3 0 -8 5 -11 10 -3
6 -1 10 4 10 6 0 11 -4 11 -10z m-615 -10 c-3 -5 -12 -10 -18 -10 -7 0 -6 4 3
10 19 12 23 12 15 0z m3547 -22 c-8 -8 -9 -4 -5 13 4 13 8 18 11 10 2 -7 -1
-18 -6 -23z m-3677 12 c-3 -5 -11 -10 -16 -10 -6 0 -7 5 -4 10 3 6 11 10 16
10 6 0 7 -4 4 -10z m2012 -32 c-3 -7 -5 -2 -5 12 0 14 2 19 5 13 2 -7 2 -19 0
-25z m1643 22 c0 -5 -5 -10 -11 -10 -5 0 -7 5 -4 10 3 6 8 10 11 10 2 0 4 -4
4 -10z m-3780 -21 c0 -6 -4 -7 -10 -4 -5 3 -10 11 -10 16 0 6 5 7 10 4 6 -3
10 -11 10 -16z m874 5 c3 -8 2 -12 -4 -9 -6 3 -10 10 -10 16 0 14 7 11 14 -7z
m-584 -25 c0 -6 -4 -7 -10 -4 -5 3 -10 11 -10 16 0 6 5 7 10 4 6 -3 10 -11 10
-16z m-27 -18 c-4 -4 -11 -10 -14 -14 -4 -5 -6 3 -5 16 1 20 4 23 14 15 7 -6
9 -14 5 -17z m2494 -3 c-3 -7 -5 -2 -5 12 0 14 2 19 5 13 2 -7 2 -19 0 -25z
m1066 12 c3 -11 1 -23 -4 -26 -5 -3 -9 6 -9 20 0 31 6 34 13 6z m-3886 4 c-3
-3 -12 -4 -19 -1 -8 3 -5 6 6 6 11 1 17 -2 13 -5z m-124 -11 c-7 -2 -21 -2
-30 0 -10 3 -4 5 12 5 17 0 24 -2 18 -5z m3974 1 c-3 -3 -12 -4 -19 -1 -8 3
-5 6 6 6 11 1 17 -2 13 -5z m-3493 -22 c2 -4 -4 -8 -14 -8 -10 0 -16 4 -14 8
3 4 9 8 14 8 5 0 11 -4 14 -8z m-994 -22 c0 -5 -5 -10 -11 -10 -5 0 -7 5 -4
10 3 6 8 10 11 10 2 0 4 -4 4 -10z m-63 -6 c-3 -3 -12 -4 -19 -1 -8 3 -5 6 6
6 11 1 17 -2 13 -5z m1032 -49 c0 -5 -4 -3 -9 5 -5 8 -9 22 -9 30 0 16 17 -16
18 -35z m625 29 c3 -8 2 -12 -4 -9 -6 3 -10 10 -10 16 0 14 7 11 14 -7z
m-1814 -4 c0 -5 -4 -10 -10 -10 -5 0 -10 5 -10 10 0 6 5 10 10 10 6 0 10 -4
10 -10z m3707 -12 c-3 -8 -6 -5 -6 6 -1 11 2 17 5 13 3 -3 4 -12 1 -19z
m-3664 -3 c-3 -9 -8 -14 -10 -11 -3 3 -2 9 2 15 9 16 15 13 8 -4z m184 -7 c-3
-8 -6 -5 -6 6 -1 11 2 17 5 13 3 -3 4 -12 1 -19z m-74 5 c-7 -2 -19 -2 -25 0
-7 3 -2 5 12 5 14 0 19 -2 13 -5z m3527 -8 c0 -8 -2 -15 -4 -15 -2 0 -6 7 -10
15 -3 8 -1 15 4 15 6 0 10 -7 10 -15z m-1853 -27 c-3 -7 -5 -2 -5 12 0 14 2
19 5 13 2 -7 2 -19 0 -25z m1867 -13 c-4 -8 -8 -15 -10 -15 -2 0 -4 7 -4 15 0
8 4 15 10 15 5 0 7 -7 4 -15z m-4007 -27 c-3 -8 -6 -5 -6 6 -1 11 2 17 5 13 3
-3 4 -12 1 -19z m2169 -27 c1 -18 1 -31 0 -29 -1 2 -10 13 -21 26 -16 20 -16
22 -2 16 18 -7 24 11 7 19 -6 3 -5 4 2 3 7 -1 13 -17 14 -35z m-2145 -18 c-5
-38 -5 -38 -11 -8 -3 17 -2 32 2 33 5 2 5 9 2 14 -4 6 -3 8 3 5 5 -3 7 -23 4
-44z m3996 5 c-3 -7 -5 -2 -5 12 0 14 2 19 5 13 2 -7 2 -19 0 -25z m-4682 2
c-3 -5 -12 -10 -18 -10 -7 0 -6 4 3 10 19 12 23 12 15 0z m4085 -25 c0 -5 -5
-3 -10 5 -5 8 -10 20 -10 25 0 6 5 3 10 -5 5 -8 10 -19 10 -25z m-4150 19 c0
-8 -19 -13 -24 -6 -3 5 1 9 9 9 8 0 15 -2 15 -3z m-85 -14 c-3 -5 -13 -10 -21
-10 -9 0 -12 -5 -8 -12 5 -10 3 -10 -7 0 -12 11 -12 14 1 22 20 13 43 13 35 0z
m242 -22 c-3 -8 -6 -5 -6 6 -1 11 2 17 5 13 3 -3 4 -12 1 -19z m-352 1 c11
-16 1 -19 -13 -3 -7 8 -8 14 -3 14 5 0 13 -5 16 -11z m232 5 c-3 -3 -12 -4
-19 -1 -8 3 -5 6 6 6 11 1 17 -2 13 -5z m-270 -20 c-3 -3 -12 -4 -19 -1 -8 3
-5 6 6 6 11 1 17 -2 13 -5z m2530 -21 c1 -22 -1 -24 -8 -10 -6 9 -7 22 -4 27
9 14 10 13 12 -17z m-2129 -33 c-2 -7 -10 1 -17 16 -12 27 -11 28 4 12 10 -9
16 -21 13 -28z m-778 26 c0 -11 -19 -15 -25 -6 -3 5 1 10 9 10 9 0 16 -2 16
-4z m13 -21 c-3 -9 -8 -14 -10 -11 -3 3 -2 9 2 15 9 16 15 13 8 -4z m1355 -10
c-3 -3 -9 2 -12 12 -6 14 -5 15 5 6 7 -7 10 -15 7 -18z m3992 15 c0 -5 -2 -10
-4 -10 -3 0 -8 5 -11 10 -3 6 -1 10 4 10 6 0 11 -4 11 -10z m-1839 -27 c-12
-20 -14 -14 -5 12 4 9 9 14 11 11 3 -2 0 -13 -6 -23z m1849 -3 c0 -5 -2 -10
-4 -10 -3 0 -8 5 -11 10 -3 6 -1 10 4 10 6 0 11 -4 11 -10z m-5305 -18 c-3 -3
-11 0 -18 7 -9 10 -8 11 6 5 10 -3 15 -9 12 -12z m705 8 c0 -5 -2 -10 -4 -10
-3 0 -8 5 -11 10 -3 6 -1 10 4 10 6 0 11 -4 11 -10z m2147 -12 c-3 -8 -6 -5
-6 6 -1 11 2 17 5 13 3 -3 4 -12 1 -19z m3520 0 c1 -10 0 -18 -2 -18 -2 0 -9
8 -14 18 -7 14 -6 19 3 19 6 0 13 -9 13 -19z m-6337 -18 c0 -5 -5 -10 -11 -10
-5 0 -7 5 -4 10 3 6 8 10 11 10 2 0 4 -4 4 -10z m25 -20 c3 -5 1 -10 -4 -10
-6 0 -11 5 -11 10 0 6 2 10 4 10 3 0 8 -4 11 -10z m2777 -22 c-8 -8 -9 -4 -5
13 4 13 8 18 11 10 2 -7 -1 -18 -6 -23z m1859 5 c-12 -20 -14 -14 -5 12 4 9 9
14 11 11 3 -2 0 -13 -6 -23z m1689 17 c0 -5 -5 -10 -11 -10 -5 0 -7 5 -4 10 3
6 8 10 11 10 2 0 4 -4 4 -10z m-5709 -33 c-10 -9 -11 -8 -5 6 3 10 9 15 12 12
3 -3 0 -11 -7 -18z m46 -9 c-3 -8 -6 -5 -6 6 -1 11 2 17 5 13 3 -3 4 -12 1
-19z m-604 -5 c-4 -10 -9 -11 -19 -2 -18 15 -18 15 5 15 11 0 17 -5 14 -13z
m65 -4 c3 -11 2 -11 -7 1 -10 13 -12 13 -21 0 -5 -8 -10 -10 -10 -4 0 27 31
30 38 3z m2689 -11 c-3 -8 -6 -5 -6 6 -1 11 2 17 5 13 3 -3 4 -12 1 -19z
m3523 -13 c0 -5 -5 -3 -10 5 -5 8 -10 20 -10 25 0 6 5 3 10 -5 5 -8 10 -19 10
-25z m-6249 -2 c13 -16 12 -17 -3 -4 -17 13 -22 21 -14 21 2 0 10 -8 17 -17z
m1196 -25 c-3 -7 -5 -2 -5 12 0 14 2 19 5 13 2 -7 2 -19 0 -25z m5030 10 c-3
-8 -6 -5 -6 6 -1 11 2 17 5 13 3 -3 4 -12 1 -19z m-3520 -20 c-3 -8 -6 -5 -6
6 -1 11 2 17 5 13 3 -3 4 -12 1 -19z m-2587 -8 c0 -5 -5 -10 -11 -10 -5 0 -7
5 -4 10 3 6 8 10 11 10 2 0 4 -4 4 -10z m2632 -25 c3 -14 1 -25 -3 -25 -5 0
-9 6 -9 14 0 8 -3 22 -7 32 -4 11 -3 15 4 11 6 -4 13 -18 15 -32z m3481 15
c-3 -12 -8 -19 -11 -16 -5 6 5 36 12 36 2 0 2 -9 -1 -20z m-5010 -41 c-6 -6
-7 3 -4 23 4 28 6 29 9 9 2 -13 0 -27 -5 -32z m-1142 24 c13 -16 12 -17 -3 -4
-10 7 -18 15 -18 17 0 8 8 3 21 -13z m4486 -5 c-3 -8 -6 -5 -6 6 -1 11 2 17 5
13 3 -3 4 -12 1 -19z m1400 6 c-3 -3 -12 -4 -19 -1 -8 3 -5 6 6 6 11 1 17 -2
13 -5z m-67 -35 c0 -6 -4 -7 -10 -4 -5 3 -10 11 -10 16 0 6 5 7 10 4 6 -3 10
-11 10 -16z m-703 -11 c-3 -8 -6 -5 -6 6 -1 11 2 17 5 13 3 -3 4 -12 1 -19z
m-3986 -25 c-12 -20 -14 -14 -5 12 4 9 9 14 11 11 3 -2 0 -13 -6 -23z m2147
-4 c-3 -8 -7 -3 -11 10 -4 17 -3 21 5 13 5 -5 8 -16 6 -23z m2479 25 c-3 -3
-12 -4 -19 -1 -8 3 -5 6 6 6 11 1 17 -2 13 -5z m-482 -14 c3 -5 -1 -10 -10
-10 -9 0 -13 5 -10 10 3 6 8 10 10 10 2 0 7 -4 10 -10z m340 0 c-3 -5 -11 -10
-16 -10 -6 0 -7 5 -4 10 3 6 11 10 16 10 6 0 7 -4 4 -10z m58 3 c-7 -2 -19 -2
-25 0 -7 3 -2 5 12 5 14 0 19 -2 13 -5z m-356 -9 c-3 -3 -12 -4 -19 -1 -8 3
-5 6 6 6 11 1 17 -2 13 -5z m-197 -25 c0 -6 -4 -7 -10 -4 -5 3 -10 11 -10 16
0 6 5 7 10 4 6 -3 10 -11 10 -16z m-2426 -15 c3 -8 2 -12 -4 -9 -6 3 -10 10
-10 16 0 14 7 11 14 -7z m-1537 -36 c-3 -8 -6 -5 -6 6 -1 11 2 17 5 13 3 -3 4
-12 1 -19z m-620 -10 c-3 -8 -6 -5 -6 6 -1 11 2 17 5 13 3 -3 4 -12 1 -19z
m2761 -23 c-3 -3 -9 2 -12 12 -6 14 -5 15 5 6 7 -7 10 -15 7 -18z m-19613 -75
c34 -58 49 -96 55 -142 5 -34 8 -63 7 -64 -1 -1 -38 -6 -82 -12 -44 -6 -93
-12 -110 -15 -16 -3 -75 -8 -130 -12 -55 -4 -106 -12 -112 -17 -7 -6 -19 -8
-27 -5 -7 3 -99 -5 -202 -17 -104 -12 -182 -25 -174 -28 8 -3 -10 -3 -40 -1
-36 3 -50 1 -42 -5 9 -6 -5 -8 -40 -5 -29 2 -48 1 -42 -4 7 -4 -25 -9 -72 -10
l-83 -2 -5 32 c-12 72 -26 240 -21 245 3 3 245 36 538 73 292 36 533 67 534
68 0 0 22 -35 48 -79z m17466 43 c-12 -20 -14 -14 -5 12 4 9 9 14 11 11 3 -2
0 -13 -6 -23z m3384 7 c3 -5 1 -10 -4 -10 -6 0 -11 5 -11 10 0 6 2 10 4 10 3
0 8 -4 11 -10z m-4295 -10 c0 -5 -4 -10 -10 -10 -5 0 -10 5 -10 10 0 6 5 10
10 10 6 0 10 -4 10 -10z m4010 0 c0 -5 -5 -10 -11 -10 -5 0 -7 5 -4 10 3 6 8
10 11 10 2 0 4 -4 4 -10z m245 0 c-3 -5 -16 -10 -28 -9 -20 1 -20 2 3 9 14 4
26 8 28 9 2 1 0 -3 -3 -9z m-1785 -10 c0 -5 -2 -10 -4 -10 -3 0 -8 5 -11 10
-3 6 -1 10 4 10 6 0 11 -4 11 -10z m1665 -8 c-3 -3 -11 0 -18 7 -9 10 -8 11 6
5 10 -3 15 -9 12 -12z m-298 2 c-3 -3 -12 -4 -19 -1 -8 3 -5 6 6 6 11 1 17 -2
13 -5z m120 0 c-3 -3 -12 -4 -19 -1 -8 3 -5 6 6 6 11 1 17 -2 13 -5z m123 -4
c8 -5 11 -10 5 -10 -5 0 -17 5 -25 10 -8 5 -10 10 -5 10 6 0 17 -5 25 -10z
m-4040 -20 c0 -5 -4 -10 -10 -10 -5 0 -10 5 -10 10 0 6 5 10 10 10 6 0 10 -4
10 -10z m3897 4 c-3 -3 -12 -4 -19 -1 -8 3 -5 6 6 6 11 1 17 -2 13 -5z m70 0
c-3 -3 -12 -4 -19 -1 -8 3 -5 6 6 6 11 1 17 -2 13 -5z m-140 -10 c-3 -3 -12
-4 -19 -1 -8 3 -5 6 6 6 11 1 17 -2 13 -5z m-3570 -26 c-3 -8 -6 -5 -6 6 -1
11 2 17 5 13 3 -3 4 -12 1 -19z m3178 -8 c3 -5 0 -7 -8 -5 -7 3 -22 -3 -32
-15 -10 -11 -22 -20 -27 -20 -5 0 3 11 18 25 29 27 40 30 49 15z m-3376 -26
c12 -15 21 -32 21 -38 0 -6 -6 -2 -12 9 -6 11 -20 28 -31 38 -11 9 -15 17 -9
17 6 0 20 -12 31 -26z m3241 22 c0 -3 -4 -8 -10 -11 -5 -3 -10 -1 -10 4 0 6 5
11 10 11 6 0 10 -2 10 -4z m230 -6 c0 -5 -2 -10 -4 -10 -3 0 -8 5 -11 10 -3 6
-1 10 4 10 6 0 11 -4 11 -10z m-323 -6 c-3 -3 -12 -4 -19 -1 -8 3 -5 6 6 6 11
1 17 -2 13 -5z m-780 -26 c-3 -8 -6 -5 -6 6 -1 11 2 17 5 13 3 -3 4 -12 1 -19z
m830 16 c-3 -3 -12 -4 -19 -1 -8 3 -5 6 6 6 11 1 17 -2 13 -5z m-74 -11 c-7
-2 -19 -2 -25 0 -7 3 -2 5 12 5 14 0 19 -2 13 -5z m-2885 -48 c-3 -3 -9 2 -12
12 -6 14 -5 15 5 6 7 -7 10 -15 7 -18z m2165 -10 c4 -8 2 -17 -3 -20 -6 -4
-10 1 -10 9 0 8 -8 17 -17 19 -14 4 -13 5 3 6 12 0 24 -6 27 -14z m-2313 -35
c12 -16 19 -30 16 -30 -2 0 -14 14 -26 30 -12 17 -19 30 -16 30 2 0 14 -13 26
-30z m2290 10 c0 -5 -2 -10 -4 -10 -3 0 -8 5 -11 10 -3 6 -1 10 4 10 6 0 11
-4 11 -10z m-2136 -35 c-4 -8 -11 -12 -16 -9 -6 4 -5 10 3 15 19 12 19 11 13
-6z m2170 3 c-3 -4 -12 -8 -20 -8 -8 0 -14 4 -14 8 0 4 9 8 19 8 11 0 17 -4
15 -8z m-2259 -8 c3 -6 -1 -7 -9 -4 -18 7 -21 14 -7 14 6 0 13 -4 16 -10z
m1920 0 c3 -5 1 -10 -4 -10 -6 0 -11 5 -11 10 0 6 2 10 4 10 3 0 8 -4 11 -10z
m-65 -10 c13 -9 13 -10 0 -10 -8 0 -22 5 -30 10 -13 9 -13 10 0 10 8 0 22 -5
30 -10z m-1865 -20 c10 -11 16 -20 13 -20 -3 0 -13 9 -23 20 -10 11 -16 20
-13 20 3 0 13 -9 23 -20z m-16792 -27 c-7 -2 -19 -2 -25 0 -7 3 -2 5 12 5 14
0 19 -2 13 -5z m17497 -2 c0 -6 -4 -12 -8 -15 -5 -3 -9 1 -9 9 0 8 4 15 9 15
4 0 8 -4 8 -9z m1088 2 c-10 -2 -28 -2 -40 0 -13 2 -5 4 17 4 22 1 32 -1 23
-4z m-18520 -39 c-3 -14 -5 -12 -10 9 -3 19 -2 25 4 19 6 -6 8 -18 6 -28z
m18097 16 c-3 -5 -12 -10 -18 -10 -7 0 -6 4 3 10 19 12 23 12 15 0z m108 -7
c-7 -2 -19 -2 -25 0 -7 3 -2 5 12 5 14 0 19 -2 13 -5z m57 3 c0 -2 -9 -6 -20
-9 -11 -3 -18 -1 -14 4 5 9 34 13 34 5z m-18863 -12 c-3 -3 -12 -4 -19 -1 -8
3 -5 6 6 6 11 1 17 -2 13 -5z m18518 -4 c-3 -5 -14 -10 -23 -9 -14 0 -13 2 3
9 27 11 27 11 20 0z m192 -6 c-3 -3 -12 -4 -19 -1 -8 3 -5 6 6 6 11 1 17 -2
13 -5z m-1297 -26 c0 -6 -6 -5 -15 2 -8 7 -15 14 -15 16 0 2 7 1 15 -2 8 -4
15 -11 15 -16z m5570 -4 c0 -2 -9 -4 -21 -4 -11 0 -18 4 -14 10 5 8 35 3 35
-6z m-5530 -4 c0 -5 -5 -10 -11 -10 -5 0 -7 5 -4 10 3 6 8 10 11 10 2 0 4 -4
4 -10z m5450 6 c0 -2 -7 -6 -15 -10 -8 -3 -15 -1 -15 4 0 6 7 10 15 10 8 0 15
-2 15 -4z m-4850 -16 c0 -5 -5 -10 -11 -10 -5 0 -7 5 -4 10 3 6 8 10 11 10 2
0 4 -4 4 -10z m67 -32 c-3 -7 -5 -2 -5 12 0 14 2 19 5 13 2 -7 2 -19 0 -25z
m-657 -33 c0 -4 -9 4 -20 18 -11 14 -20 28 -20 32 0 4 9 -4 20 -18 11 -14 20
-28 20 -32z m614 40 c-4 -8 -10 -15 -15 -15 -4 0 -6 7 -3 15 4 8 10 15 15 15
4 0 6 -7 3 -15z m146 5 c0 -5 -2 -10 -4 -10 -3 0 -8 5 -11 10 -3 6 -1 10 4 10
6 0 11 -4 11 -10z m4870 -27 c0 -43 -5 -41 -13 5 -4 18 -2 32 3 32 6 0 10 -16
10 -37z m-4999 4 c-10 -9 -11 -8 -5 6 3 10 9 15 12 12 3 -3 0 -11 -7 -18z
m4589 19 c0 -2 -9 -6 -20 -9 -11 -3 -20 -1 -20 4 0 5 9 9 20 9 11 0 20 -2 20
-4z m-180 -20 c0 -11 -19 -15 -25 -6 -3 5 1 10 9 10 9 0 16 -2 16 -4z m87 -28
c-3 -8 -6 -5 -6 6 -1 11 2 17 5 13 3 -3 4 -12 1 -19z m40 0 c-3 -8 -6 -5 -6 6
-1 11 2 17 5 13 3 -3 4 -12 1 -19z m-330 6 c-3 -3 -12 -4 -19 -1 -8 3 -5 6 6
6 11 1 17 -2 13 -5z m-172 -24 c-3 -5 -11 -10 -16 -10 -6 0 -7 5 -4 10 3 6 11
10 16 10 6 0 7 -4 4 -10z m-21541 -45 c5 -22 4 -26 -4 -15 -5 8 -10 24 -10 34
0 26 6 18 14 -19z m21486 21 c24 -10 28 -15 16 -19 -9 -4 -16 -2 -16 4 0 6 -5
7 -11 3 -17 -10 12 -24 41 -19 23 5 23 4 -3 -6 -31 -12 -62 4 -53 27 3 7 0 15
-7 18 -7 2 -9 5 -6 5 4 1 21 -5 39 -13z m-22588 -35 c8 12 9 12 6 0 -6 -22
-28 -25 -27 -4 0 12 2 14 6 4 5 -11 7 -11 15 0z m1145 -58 c-3 -10 -5 -4 -5
12 0 17 2 24 5 18 2 -7 2 -21 0 -30z m20823 27 c0 -5 -2 -10 -4 -10 -3 0 -8 5
-11 10 -3 6 -1 10 4 10 6 0 11 -4 11 -10z m617 -12 c-3 -8 -6 -5 -6 6 -1 11 2
17 5 13 3 -3 4 -12 1 -19z m-22602 2 c3 -5 1 -10 -4 -10 -6 0 -11 5 -11 10 0
6 2 10 4 10 3 0 8 -4 11 -10z m21907 3 c-6 -2 -9 -10 -6 -15 4 -7 2 -8 -5 -4
-13 9 -5 26 12 25 9 0 8 -2 -1 -6z m93 -12 c-3 -6 -11 -11 -16 -11 -5 0 -4 6
3 14 14 16 24 13 13 -3z m1612 -3 c-3 -8 -6 -5 -6 6 -1 11 2 17 5 13 3 -3 4
-12 1 -19z m-23577 -28 c0 -4 -9 -6 -21 -3 -15 4 -17 8 -8 14 14 8 29 3 29
-11z m23547 -2 c-3 -8 -6 -5 -6 6 -1 11 2 17 5 13 3 -3 4 -12 1 -19z m50 -10
c-3 -8 -6 -5 -6 6 -1 11 2 17 5 13 3 -3 4 -12 1 -19z m-1930 6 c-3 -3 -12 -4
-19 -1 -8 3 -5 6 6 6 11 1 17 -2 13 -5z m305 -36 c-7 -7 -12 -8 -12 -2 0 14
12 26 19 19 2 -3 -1 -11 -7 -17z m-626 -15 c-1 -1 -12 0 -25 4 -15 4 -19 8
-10 13 10 7 42 -10 35 -17z m-186 -23 c0 -5 -2 -10 -4 -10 -3 0 -8 5 -11 10
-3 6 -1 10 4 10 6 0 11 -4 11 -10z m-365 -30 c-3 -5 -12 -10 -18 -10 -7 0 -6
4 3 10 19 12 23 12 15 0z m5 -35 c0 -8 -4 -15 -8 -15 -5 0 -9 7 -9 15 0 8 4
15 9 15 4 0 8 -7 8 -15z m1147 -27 c-3 -8 -6 -5 -6 6 -1 11 2 17 5 13 3 -3 4
-12 1 -19z m-1761 -19 c5 -8 9 -7 14 1 5 8 7 3 7 -13 -2 -28 -17 -38 -17 -11
0 9 -5 12 -12 8 -6 -4 -8 -3 -4 4 3 6 -3 12 -16 15 -23 4 -23 4 -1 6 12 0 25
-4 29 -10z m1781 -11 c-3 -8 -6 -5 -6 6 -1 11 2 17 5 13 3 -3 4 -12 1 -19z
m-20810 -10 c-3 -8 -6 -5 -6 6 -1 11 2 17 5 13 3 -3 4 -12 1 -19z m18936 15
c-7 -2 -19 -2 -25 0 -7 3 -2 5 12 5 14 0 19 -2 13 -5z m42 -21 c-8 -8 -25 10
-19 20 4 6 9 5 15 -3 4 -7 6 -15 4 -17z m-121 9 c4 -5 -3 -7 -14 -4 -23 6 -26
13 -6 13 8 0 17 -4 20 -9z m796 -12 c0 -6 -4 -7 -10 -4 -5 3 -10 11 -10 16 0
6 5 7 10 4 6 -3 10 -11 10 -16z m-950 -9 c0 -5 -2 -10 -4 -10 -3 0 -8 5 -11
10 -3 6 -1 10 4 10 6 0 11 -4 11 -10z m217 4 c-3 -3 -12 -4 -19 -1 -8 3 -5 6
6 6 11 1 17 -2 13 -5z m3554 -25 c-5 -13 -10 -19 -10 -12 -1 15 10 45 15 40 3
-2 0 -15 -5 -28z m-1661 11 c0 -5 -5 -10 -11 -10 -5 0 -7 5 -4 10 3 6 8 10 11
10 2 0 4 -4 4 -10z m-1987 -7 c-7 -2 -19 -2 -25 0 -7 3 -2 5 12 5 14 0 19 -2
13 -5z m90 0 c-7 -2 -19 -2 -25 0 -7 3 -2 5 12 5 14 0 19 -2 13 -5z m740 -8
c-3 -9 -8 -14 -10 -11 -3 3 -2 9 2 15 9 16 15 13 8 -4z m-1205 -9 c-7 -8 -15
-12 -17 -11 -5 6 10 25 20 25 5 0 4 -6 -3 -14z m-48 -8 c0 -4 -4 -8 -9 -8 -6
0 -12 4 -15 8 -3 5 1 9 9 9 8 0 15 -4 15 -9z m-97 -12 c4 -10 1 -13 -8 -9 -8
3 -12 9 -9 14 7 12 11 11 17 -5z m44 8 c-3 -3 -12 -4 -19 -1 -8 3 -5 6 6 6 11
1 17 -2 13 -5z m723 -15 c0 -6 -4 -7 -10 -4 -5 3 -10 11 -10 16 0 6 5 7 10 4
6 -3 10 -11 10 -16z m-893 -5 c-3 -3 -12 -4 -19 -1 -8 3 -5 6 6 6 11 1 17 -2
13 -5z m-160 -20 c-3 -3 -12 -4 -19 -1 -8 3 -5 6 6 6 11 1 17 -2 13 -5z m1023
-29 c0 -5 -5 -3 -10 5 -5 8 -10 20 -10 25 0 6 5 3 10 -5 5 -8 10 -19 10 -25z
m3447 3 c-3 -8 -6 -5 -6 6 -1 11 2 17 5 13 3 -3 4 -12 1 -19z m-4697 -3 c0 -2
-10 -10 -22 -16 -21 -11 -22 -11 -9 4 13 16 31 23 31 12z m60 1 c0 -3 -4 -8
-10 -11 -5 -3 -10 -1 -10 4 0 6 5 11 10 11 6 0 10 -2 10 -4z m17 -31 c-23 -22
-33 -18 -12 5 10 11 20 18 23 16 2 -3 -3 -12 -11 -21z m1185 -2 c-3 -16 -7
-22 -10 -15 -4 13 4 42 11 42 2 0 2 -12 -1 -27z m2443 -13 c-9 -41 -17 -33 -9
9 4 17 9 30 11 27 3 -2 2 -19 -2 -36z m-3825 10 c0 -5 -7 -7 -15 -4 -8 4 -15
8 -15 10 0 2 7 4 15 4 8 0 15 -4 15 -10z m63 -7 c-7 -2 -19 -2 -25 0 -7 3 -2
5 12 5 14 0 19 -2 13 -5z m72 -3 c-11 -5 -27 -9 -35 -9 -9 0 -8 4 5 9 11 5 27
9 35 9 9 0 8 -4 -5 -9z m1282 -13 c-2 -7 0 -21 6 -32 8 -17 7 -18 -4 -7 -15
14 -21 64 -6 55 4 -2 6 -10 4 -16z m-1497 3 c-8 -5 -19 -10 -25 -10 -5 0 -3 5
5 10 8 5 20 10 25 10 6 0 3 -5 -5 -10z m310 6 c0 -3 -4 -8 -10 -11 -5 -3 -10
-1 -10 4 0 6 5 11 10 11 6 0 10 -2 10 -4z m-17875 -16 c-3 -5 -1 -10 6 -10 7
0 10 -2 7 -5 -3 -3 -13 -2 -22 1 -14 5 -15 9 -4 15 17 11 20 11 13 -1z m-150
-10 c3 -5 1 -10 -4 -10 -6 0 -11 5 -11 10 0 6 2 10 4 10 3 0 8 -4 11 -10z
m-65 -10 c13 -9 13 -10 0 -10 -8 0 -22 5 -30 10 -13 9 -13 10 0 10 8 0 22 -5
30 -10z m141 -18 c-7 -2 -18 1 -23 6 -8 8 -4 9 13 5 13 -4 18 -8 10 -11z
m17528 -22 c0 -10 -3 -8 -9 5 -12 27 -12 43 0 25 5 -8 9 -22 9 -30z m5024 2
c4 -21 3 -31 -3 -27 -6 3 -10 20 -10 37 0 38 5 34 13 -10z m-3433 18 c0 -5 -2
-10 -4 -10 -3 0 -8 5 -11 10 -3 6 -1 10 4 10 6 0 11 -4 11 -10z m2407 -12 c-3
-8 -6 -5 -6 6 -1 11 2 17 5 13 3 -3 4 -12 1 -19z m-21739 -15 c-10 -2 -28 -2
-40 0 -13 2 -5 4 17 4 22 1 32 -1 23 -4z m-258 -27 c0 -2 -9 -6 -20 -9 -11 -3
-18 -1 -14 4 5 9 34 13 34 5z m20237 -18 c-3 -8 -6 -5 -6 6 -1 11 2 17 5 13 3
-3 4 -12 1 -19z m-20547 2 c-8 -5 -22 -9 -30 -9 -10 0 -8 3 5 9 27 12 43 12
25 0z m23320 0 c-13 -8 -12 -10 3 -10 10 0 17 -7 17 -17 0 -10 -4 -14 -8 -8
-10 15 -32 17 -32 3 0 -6 -3 -9 -6 -6 -9 9 15 48 29 48 7 0 6 -4 -3 -10z
m-1613 -57 c-3 -10 -5 -4 -5 12 0 17 2 24 5 18 2 -7 2 -21 0 -30z m-21730 21
c-3 -3 -12 -4 -19 -1 -8 3 -5 6 6 6 11 1 17 -2 13 -5z m19970 -26 c2 -17 0
-19 -7 -8 -5 8 -6 18 -4 22 8 12 10 10 11 -14z m3020 6 c-3 -3 -12 -4 -19 -1
-8 3 -5 6 6 6 11 1 17 -2 13 -5z m-23210 -10 c-3 -3 -12 -4 -19 -1 -8 3 -5 6
6 6 11 1 17 -2 13 -5z m22950 0 c-3 -3 -12 -4 -19 -1 -8 3 -5 6 6 6 11 1 17
-2 13 -5z m73 -8 c0 -2 -7 -7 -16 -10 -8 -3 -12 -2 -9 4 6 10 25 14 25 6z m93
-3 c-7 -2 -21 -2 -30 0 -10 3 -4 5 12 5 17 0 24 -2 18 -5z m-140 -10 c-7 -2
-19 -2 -25 0 -7 3 -2 5 12 5 14 0 19 -2 13 -5z m134 -9 c-3 -3 -12 -4 -19 -1
-8 3 -5 6 6 6 11 1 17 -2 13 -5z m-2310 -26 c-3 -8 -6 -5 -6 6 -1 11 2 17 5
13 3 -3 4 -12 1 -19z m2153 8 c0 -2 -7 -7 -16 -10 -8 -3 -12 -2 -9 4 6 10 25
14 25 6z m-960 -50 c0 -26 -6 -18 -14 19 -5 22 -4 26 4 15 5 -8 10 -24 10 -34z
m584 18 c3 -8 2 -12 -4 -9 -6 3 -10 10 -10 16 0 14 7 11 14 -7z m-1764 -49 c0
-5 -5 -3 -10 5 -5 8 -10 20 -10 25 0 6 5 3 10 -5 5 -8 10 -19 10 -25z m1147
-2 c-3 -10 -5 -4 -5 12 0 17 2 24 5 18 2 -7 2 -21 0 -30z m680 31 c-3 -3 -12
-4 -19 -1 -8 3 -5 6 6 6 11 1 17 -2 13 -5z m-640 -56 c2 -16 0 -16 -13 -4 -17
18 -18 23 -1 23 7 0 14 -9 14 -19z m-3357 8 c0 -3 -4 -8 -10 -11 -5 -3 -10 -1
-10 4 0 6 5 11 10 11 6 0 10 -2 10 -4z m1580 -22 c0 -8 -5 -12 -10 -9 -6 4 -8
11 -5 16 9 14 15 11 15 -7z m-1593 -36 c-3 -8 -6 -5 -6 6 -1 11 2 17 5 13 3
-3 4 -12 1 -19z m3313 12 c-8 -5 -22 -9 -30 -9 -10 0 -8 3 5 9 27 12 43 12 25
0z m-1706 -46 c3 -8 2 -12 -4 -9 -6 3 -10 10 -10 16 0 14 7 11 14 -7z m1066 6
c0 -5 -2 -10 -4 -10 -3 0 -8 5 -11 10 -3 6 -1 10 4 10 6 0 11 -4 11 -10z m60
0 c8 -5 11 -10 5 -10 -5 0 -17 5 -25 10 -8 5 -10 10 -5 10 6 0 17 -5 25 -10z
m-518 -51 c12 -19 13 -26 4 -26 -7 0 -13 5 -13 11 0 6 -4 20 -8 31 -10 24 -5
19 17 -16z m338 27 c0 -3 -4 -8 -10 -11 -5 -3 -10 -1 -10 4 0 6 5 11 10 11 6
0 10 -2 10 -4z m-935 -16 c3 -5 1 -10 -4 -10 -6 0 -11 5 -11 10 0 6 2 10 4 10
3 0 8 -4 11 -10z m625 0 c0 -5 -4 -10 -10 -10 -5 0 -10 5 -10 10 0 6 5 10 10
10 6 0 10 -4 10 -10z m347 -5 c0 -8 -4 -12 -9 -9 -4 3 -8 9 -8 15 0 5 4 9 8 9
5 0 9 -7 9 -15z m-2597 -35 c-6 -11 -8 -31 -5 -43 5 -20 5 -20 -5 -4 -9 14 -9
26 0 48 7 16 15 28 17 25 3 -2 0 -14 -7 -26z m1577 24 c-3 -3 -12 -4 -19 -1
-8 3 -5 6 6 6 11 1 17 -2 13 -5z m828 -24 c13 -6 15 -9 5 -9 -8 0 -22 4 -30 9
-18 12 -2 12 25 0z m-19065 -9 c0 -5 -7 -12 -16 -15 -14 -5 -15 -4 -4 9 14 17
20 19 20 6z m80 -49 c-5 -2 -8 -8 -4 -13 3 -5 1 -9 -5 -9 -5 0 -11 -6 -14 -12
-2 -7 -3 -6 -2 2 2 8 6 24 11 35 7 18 6 19 -11 5 -11 -9 -16 -10 -11 -2 5 8 1
12 -11 13 -17 1 -17 2 0 6 15 4 16 7 5 21 -7 10 2 4 20 -13 18 -16 28 -31 22
-33z m18907 42 c-3 -3 -12 -4 -19 -1 -8 3 -5 6 6 6 11 1 17 -2 13 -5z m-19173
-22 c3 -5 -1 -9 -9 -9 -8 0 -12 4 -9 9 3 4 7 8 9 8 2 0 6 -4 9 -8z m63 -8 c-3
-3 -12 -4 -19 -1 -8 3 -5 6 6 6 11 1 17 -2 13 -5z m148 -12 c-3 -3 -11 0 -18
7 -9 10 -8 11 6 5 10 -3 15 -9 12 -12z m18279 2 c3 -8 2 -12 -4 -9 -6 3 -10
10 -10 16 0 14 7 11 14 -7z m-18387 0 c-3 -3 -12 -4 -19 -1 -8 3 -5 6 6 6 11
1 17 -2 13 -5z m16754 -17 c-10 -9 -11 -8 -5 6 3 10 9 15 12 12 3 -3 0 -11 -7
-18z m1204 -7 c3 -5 1 -10 -4 -10 -6 0 -11 5 -11 10 0 6 2 10 4 10 3 0 8 -4
11 -10z m45 -22 c0 -5 -8 -8 -17 -8 -15 0 -16 2 -3 10 11 7 11 10 2 10 -7 0
-10 5 -6 11 6 11 23 -6 24 -23z m-17794 1 c19 -22 19 -22 -3 -10 -24 12 -39
31 -25 31 5 0 17 -10 28 -21z m17717 14 c-7 -2 -19 -2 -25 0 -7 3 -2 5 12 5
14 0 19 -2 13 -5z m122 -13 c13 -6 15 -9 5 -9 -8 0 -22 4 -30 9 -18 12 -2 12
25 0z m-18777 -27 c-9 -10 -13 -24 -10 -32 4 -12 3 -12 -10 -1 -12 12 -12 16
1 31 21 23 39 24 19 2z m39 -20 c-3 -10 -5 -4 -5 12 0 17 2 24 5 18 2 -7 2
-21 0 -30z m-137 17 c0 -5 -2 -10 -4 -10 -3 0 -8 5 -11 10 -3 6 -1 10 4 10 6
0 11 -4 11 -10z m18750 0 c0 -5 -4 -10 -10 -10 -5 0 -10 5 -10 10 0 6 5 10 10
10 6 0 10 -4 10 -10z m40 0 c0 -5 -4 -10 -10 -10 -5 0 -10 5 -10 10 0 6 5 10
10 10 6 0 10 -4 10 -10z m-17710 -21 c0 -4 -5 -11 -11 -15 -6 -3 -8 -17 -5
-29 3 -14 1 -27 -6 -31 -7 -4 -8 -3 -4 5 4 6 3 18 -4 26 -7 9 -8 15 0 20 5 3
10 11 10 16 0 6 -4 8 -9 4 -5 -3 -12 -2 -15 3 -2 4 6 8 20 8 13 0 24 -3 24 -7z
m-1332 -13 c-7 -8 -15 -12 -17 -11 -5 6 10 25 20 25 5 0 4 -6 -3 -14z m-48 -8
c0 -4 -4 -8 -9 -8 -6 0 -12 4 -15 8 -3 5 1 9 9 9 8 0 15 -4 15 -9z m414 -3 c3
-8 1 -15 -4 -15 -6 0 -10 7 -10 15 0 8 2 15 4 15 2 0 6 -7 10 -15z m-467 -1
c-3 -3 -12 -4 -19 -1 -8 3 -5 6 6 6 11 1 17 -2 13 -5z m1467 -13 c14 -15 15
-21 4 -27 -7 -4 -10 -3 -5 1 4 5 0 17 -10 27 -9 10 -14 18 -11 18 3 0 13 -9
22 -19z m17161 9 c13 -6 15 -9 5 -9 -8 0 -22 4 -30 9 -18 12 -2 12 25 0z m52
4 c-3 -3 -12 -4 -19 -1 -8 3 -5 6 6 6 11 1 17 -2 13 -5z m-18770 -10 c-3 -3
-12 -4 -19 -1 -8 3 -5 6 6 6 11 1 17 -2 13 -5z m1230 -16 c-3 -8 -6 -5 -6 6
-1 11 2 17 5 13 3 -3 4 -12 1 -19z m304 5 c13 -16 12 -17 -3 -4 -17 13 -22 21
-14 21 2 0 10 -8 17 -17z m17396 11 c-3 -3 -12 -4 -19 -1 -8 3 -5 6 6 6 11 1
17 -2 13 -5z m-19010 -10 c-3 -3 -12 -4 -19 -1 -8 3 -5 6 6 6 11 1 17 -2 13
-5z m1268 -4 c3 -5 1 -10 -4 -10 -6 0 -11 5 -11 10 0 6 2 10 4 10 3 0 8 -4 11
-10z m-1428 -16 c-3 -3 -12 -4 -19 -1 -8 3 -5 6 6 6 11 1 17 -2 13 -5z m1450
-26 c-3 -7 -5 -2 -5 12 0 14 2 19 5 13 2 -7 2 -19 0 -25z m17520 26 c-3 -3
-12 -4 -19 -1 -8 3 -5 6 6 6 11 1 17 -2 13 -5z m-17128 -40 c-11 -14 -4 -34
12 -34 6 0 8 4 5 8 -3 5 1 9 8 9 7 0 13 -6 13 -13 0 -7 -4 -11 -9 -8 -4 3 -8
1 -8 -4 0 -5 -6 -9 -14 -9 -8 0 -15 3 -14 6 0 3 -1 8 -2 11 -2 3 -3 19 -4 37
-2 26 0 30 11 21 10 -8 10 -14 2 -24z m16636 16 c-3 -5 2 -10 11 -10 10 0 15
-3 11 -6 -10 -10 -39 5 -32 16 3 5 8 10 11 10 3 0 2 -4 -1 -10z m46 -32 c-11
-11 -13 -10 -7 0 4 7 2 21 -5 30 -12 15 -11 15 6 0 16 -15 17 -20 6 -30z
m-18744 10 c-3 -8 -6 -5 -6 6 -1 11 2 17 5 13 3 -3 4 -12 1 -19z m18691 -17
c-7 -2 -16 -9 -20 -14 -3 -6 -5 1 -5 15 2 21 5 23 20 14 12 -8 13 -12 5 -15z
m-18618 9 c0 -5 -5 -10 -11 -10 -5 0 -7 5 -4 10 3 6 8 10 11 10 2 0 4 -4 4
-10z m18710 0 c0 -5 -5 -10 -11 -10 -5 0 -7 5 -4 10 3 6 8 10 11 10 2 0 4 -4
4 -10z m-18915 -9 c3 -5 0 -13 -6 -17 -7 -4 -9 -3 -5 4 3 5 0 13 -6 15 -9 4
-10 6 -1 6 6 1 14 -3 18 -8z m2169 -7 c3 -8 2 -12 -4 -9 -6 3 -10 10 -10 16 0
14 7 11 14 -7z m89 -29 c-7 -21 -12 -19 -10 4 0 11 5 18 9 15 4 -3 5 -11 1
-19z m16381 -1 c3 -8 2 -12 -4 -9 -6 3 -10 10 -10 16 0 14 7 11 14 -7z
m-16300 -86 c-6 -9 -34 9 -32 20 2 21 -4 23 -18 6 -15 -19 -15 -19 -5 1 7 15
5 25 -7 40 -9 11 2 2 25 -19 23 -22 40 -43 37 -48z m-2347 40 c-3 -8 -6 -5 -6
6 -1 11 2 17 5 13 3 -3 4 -12 1 -19z m1833 -13 c0 -5 -5 -3 -10 5 -5 8 -10 20
-10 25 0 6 5 3 10 -5 5 -8 10 -19 10 -25z m434 -5 c-6 -6 -10 -3 -10 10 0 13
4 16 10 10 7 -7 7 -13 0 -20z m-1047 -62 c-3 -7 -5 -2 -5 12 0 14 2 19 5 13 2
-7 2 -19 0 -25z m1152 -9 c-5 -10 -14 -19 -20 -19 -6 0 -3 7 5 16 19 18 19 21
7 29 -5 3 -17 -2 -25 -11 -9 -8 -16 -11 -16 -5 0 5 8 14 17 20 26 14 46 -5 32
-30z m55 -31 c-3 -5 -14 -2 -25 8 -10 9 -16 21 -13 26 3 5 14 2 25 -8 10 -9
16 -21 13 -26z m-600 17 c3 -9 0 -15 -9 -15 -9 0 -12 6 -9 15 4 8 7 15 9 15 2
0 5 -7 9 -15z m-7 -57 c-3 -7 -5 -2 -5 12 0 14 2 19 5 13 2 -7 2 -19 0 -25z
m632 -9 c-5 -10 -14 -19 -20 -19 -6 0 -3 7 5 16 19 18 19 21 7 29 -5 3 -17 -2
-25 -11 -9 -8 -16 -11 -16 -5 0 5 8 14 17 20 26 14 46 -5 32 -30z m-2372 25
c-3 -3 -12 -4 -19 -1 -8 3 -5 6 6 6 11 1 17 -2 13 -5z m-60 -26 c-3 -8 -6 -5
-6 6 -1 11 2 17 5 13 3 -3 4 -12 1 -19z m60 6 c-3 -3 -12 -4 -19 -1 -8 3 -5 6
6 6 11 1 17 -2 13 -5z m2427 -36 c-3 -5 -14 -2 -25 8 -10 9 -16 21 -13 26 3 5
14 2 25 -8 10 -9 16 -21 13 -26z m-2437 -20 c-3 -7 -5 -2 -5 12 0 14 2 19 5
13 2 -7 2 -19 0 -25z m1764 -19 c-5 -13 -10 -19 -10 -12 -1 15 10 45 15 40 3
-2 0 -15 -5 -28z m698 -10 c-5 -10 -14 -19 -20 -19 -6 0 -3 7 5 16 19 18 19
21 7 29 -5 3 -17 -2 -25 -11 -9 -8 -16 -11 -16 -5 0 5 8 14 17 20 26 14 46 -5
32 -30z m125 -88 c5 -11 4 -11 -8 -2 -10 8 -16 9 -19 1 -3 -6 -4 -5 -3 2 5 20
-34 57 -53 51 -14 -4 -14 -3 -1 6 8 6 12 11 8 12 -5 1 -12 3 -18 4 -5 1 -13 3
-16 4 -3 0 -2 6 1 12 7 10 97 -64 109 -90z m-2574 24 c0 -8 -4 -15 -10 -15 -5
0 -7 7 -4 15 4 8 8 15 10 15 2 0 4 -7 4 -15z m1757 -27 c-3 -8 -6 -5 -6 6 -1
11 2 17 5 13 3 -3 4 -12 1 -19z m-626 -11 c-10 -9 -11 -8 -5 6 3 10 9 15 12
12 3 -3 0 -11 -7 -18z m34 13 c3 -5 1 -10 -4 -10 -6 0 -11 5 -11 10 0 6 2 10
4 10 3 0 8 -4 11 -10z m-1191 -25 c3 -8 1 -15 -3 -15 -5 0 -11 7 -15 15 -3 8
-1 15 3 15 5 0 11 -7 15 -15z m1836 -25 c0 -5 -2 -10 -4 -10 -3 0 -8 5 -11 10
-3 6 -1 10 4 10 6 0 11 -4 11 -10z m900 -78 c0 -2 -4 0 -10 3 -5 3 -10 1 -10
-5 0 -6 -5 -8 -12 -4 -9 6 -9 9 1 12 9 3 6 11 -10 28 -12 13 -26 21 -32 17
-11 -7 -28 17 -20 30 4 7 93 -69 93 -81z m-116 53 c-4 -8 -11 -12 -17 -8 -8 5
-7 8 1 11 7 2 9 9 6 14 -4 7 -2 8 4 4 6 -4 9 -13 6 -21z m-1410 -17 c-3 -4 -9
-8 -15 -8 -5 0 -9 4 -9 8 0 5 7 9 15 9 8 0 12 -4 9 -9z m616 2 c0 -5 -2 -10
-4 -10 -3 0 -8 5 -11 10 -3 6 -1 10 4 10 6 0 11 -4 11 -10z m-17 -40 c3 -11 1
-18 -4 -14 -5 3 -9 12 -9 20 0 20 7 17 13 -6z m-618 0 c3 -5 1 -10 -4 -10 -6
0 -11 5 -11 10 0 6 2 10 4 10 3 0 8 -4 11 -10z m1568 -14 c4 -10 0 -12 -15 -8
-15 4 -17 7 -6 13 17 11 15 11 21 -5z m-928 -26 c3 -5 1 -10 -4 -10 -6 0 -11
5 -11 10 0 6 2 10 4 10 3 0 8 -4 11 -10z m938 -25 c-7 -21 -12 -19 -10 4 0 11
5 18 9 15 4 -3 5 -11 1 -19z m48 -2 c13 -16 17 -22 9 -15 -18 16 -31 15 -24
-1 3 -8 -3 -20 -13 -28 -16 -12 -17 -12 -6 1 6 9 10 28 9 43 -2 15 -2 27 -1
27 1 0 12 -12 26 -27z m-2804 -15 c-3 -8 -6 -5 -6 6 -1 11 2 17 5 13 3 -3 4
-12 1 -19z m1850 -10 c-3 -8 -6 -5 -6 6 -1 11 2 17 5 13 3 -3 4 -12 1 -19z
m908 -8 c-3 -5 -12 -10 -18 -10 -7 0 -6 4 3 10 19 12 23 12 15 0z m111 -22
c16 -18 21 -26 10 -18 -22 17 -44 21 -52 9 -3 -5 -11 -9 -17 -9 -7 0 -6 4 3
10 8 5 16 14 16 20 4 27 4 27 40 -12z m-149 -4 c-3 -3 -12 -4 -19 -1 -8 3 -5
6 6 6 11 1 17 -2 13 -5z m143 -18 c0 -2 -7 -7 -16 -10 -8 -3 -12 -2 -9 4 6 10
25 14 25 6z m-271 -19 c-28 -21 -59 -36 -59 -29 0 9 37 30 54 31 5 1 7 0 5 -2z
m-745 -33 c3 -8 2 -12 -4 -9 -6 3 -10 10 -10 16 0 14 7 11 14 -7z m283 -10
c-3 -3 -12 -4 -19 -1 -8 3 -5 6 6 6 11 1 17 -2 13 -5z m-154 -11 c-7 -2 -19
-2 -25 0 -7 3 -2 5 12 5 14 0 19 -2 13 -5z m340 0 c-7 -2 -19 -2 -25 0 -7 3
-2 5 12 5 14 0 19 -2 13 -5z m-276 -9 c-3 -3 -12 -4 -19 -1 -8 3 -5 6 6 6 11
1 17 -2 13 -5z m140 -10 c-3 -3 -12 -4 -19 -1 -8 3 -5 6 6 6 11 1 17 -2 13 -5z
m60 0 c-3 -3 -12 -4 -19 -1 -8 3 -5 6 6 6 11 1 17 -2 13 -5z m-224 -11 c-7 -2
-19 -2 -25 0 -7 3 -2 5 12 5 14 0 19 -2 13 -5z m82 -2 c3 -6 -4 -8 -16 -6 -30
6 -37 15 -11 15 11 0 23 -4 27 -9z m-258 -33 c-3 -8 -6 -5 -6 6 -1 11 2 17 5
13 3 -3 4 -12 1 -19z m-609 -53 c-3 -3 -9 2 -12 12 -6 14 -5 15 5 6 7 -7 10
-15 7 -18z m32 -25 c0 -5 -8 -10 -17 -10 -15 0 -16 2 -3 10 19 12 20 12 20 0z
m-503 -32 c-3 -7 -5 -2 -5 12 0 14 2 19 5 13 2 -7 2 -19 0 -25z m297 16 c3 -8
2 -12 -4 -9 -6 3 -10 10 -10 16 0 14 7 11 14 -7z m-84 -24 c-20 -13 -43 -13
-35 0 3 6 13 10 21 10 9 0 12 5 8 13 -5 9 -3 9 7 -1 12 -11 12 -14 -1 -22z
m-133 14 c-3 -3 -12 -4 -19 -1 -8 3 -5 6 6 6 11 1 17 -2 13 -5z m-797 -24 c0
-5 -2 -10 -4 -10 -3 0 -8 5 -11 10 -3 6 -1 10 4 10 6 0 11 -4 11 -10z m25 0
c3 -5 1 -10 -4 -10 -6 0 -11 5 -11 10 0 6 2 10 4 10 3 0 8 -4 11 -10z m809 2
c3 -5 -1 -9 -9 -9 -8 0 -12 4 -9 9 3 4 7 8 9 8 2 0 6 -4 9 -8z m-124 -16 c0
-3 -4 -8 -10 -11 -5 -3 -10 -1 -10 4 0 6 5 11 10 11 6 0 10 -2 10 -4z m-265
-26 c-3 -5 -14 -10 -23 -9 -14 0 -13 2 3 9 27 11 27 11 20 0z m-180 -10 c3 -5
1 -10 -4 -10 -6 0 -11 5 -11 10 0 6 2 10 4 10 3 0 8 -4 11 -10z m-88 -6 c-3
-3 -12 -4 -19 -1 -8 3 -5 6 6 6 11 1 17 -2 13 -5z m3 -34 c-8 -5 -19 -10 -25
-10 -5 0 -3 5 5 10 8 5 20 10 25 10 6 0 3 -5 -5 -10z m-169 -23 c-10 -9 -11
-8 -5 6 3 10 9 15 12 12 3 -3 0 -11 -7 -18z m26095 -1830 c183 -266 370 -584
531 -902 l76 -150 -75 -115 c-182 -279 -424 -731 -596 -1110 -350 -774 -675
-1729 -927 -2725 -119 -469 -148 -610 -141 -682 11 -127 96 -239 214 -283 79
-30 195 -25 267 12 59 31 125 97 152 153 11 22 39 126 62 230 174 779 475
1761 764 2495 300 763 621 1369 971 1835 113 151 347 385 488 490 450 333 988
546 1588 627 134 18 214 22 425 23 284 0 387 -9 617 -56 365 -74 681 -210 948
-408 90 -67 272 -241 345 -331 287 -353 441 -778 560 -1543 54 -351 102 -867
80 -867 -3 0 -16 6 -28 14 -33 21 -143 38 -201 31 -70 -9 -168 -42 -211 -71
-20 -13 -39 -24 -43 -24 -14 0 -127 -104 -126 -116 1 -7 -5 -10 -14 -6 -11 4
-14 1 -9 -11 4 -10 2 -16 -5 -14 -30 6 -174 -213 -235 -356 -249 -591 -128
-1288 257 -1475 67 -32 85 -37 173 -40 121 -5 204 18 313 89 62 41 74 45 74
30 0 -35 -41 -325 -75 -538 -311 -1915 -1055 -3503 -2045 -4364 -550 -477
-1122 -729 -1845 -811 -143 -16 -615 -16 -775 0 -780 79 -1380 232 -3070 786
-775 253 -962 312 -1275 403 -1043 301 -2174 523 -3308 649 -136 16 -242 31
-235 35 623 327 1224 721 1779 1166 93 74 182 151 199 171 106 128 89 353 -35
459 -53 46 -98 68 -168 83 -122 25 -202 -6 -367 -141 -142 -117 -327 -257
-565 -431 -122 -89 -500 -337 -660 -433 -544 -325 -1147 -613 -1655 -790 -52
-18 -129 -45 -170 -60 -261 -95 -780 -235 -1125 -304 -1147 -229 -2351 -239
-3582 -31 -693 117 -1352 296 -2018 548 -318 120 -605 247 -605 267 0 6 9 92
20 191 39 363 45 498 45 1034 0 536 -5 651 -46 1030 -138 1274 -540 2405
-1172 3300 -113 159 -292 381 -430 532 -113 123 -116 127 -89 132 15 3 268 37
562 76 2641 349 6462 898 9957 1430 1416 216 3469 535 4322 671 205 33 375 58
377 56 2 -2 -30 -120 -71 -263 -115 -401 -130 -449 -226 -754 -50 -157 -93
-306 -96 -331 -6 -50 10 -135 34 -183 9 -16 35 -50 59 -76 95 -101 253 -134
376 -78 78 36 140 96 171 166 50 113 279 866 417 1373 40 145 74 266 75 267 5
5 874 150 905 151 21 1 39 -19 116 -132z m-19381 -1836 c612 -94 1142 -323
1610 -697 135 -108 448 -419 576 -574 268 -324 458 -617 653 -1010 488 -983
726 -2167 703 -3505 -6 -346 -22 -603 -53 -885 -14 -129 -19 -150 -45 -190
-17 -24 -41 -83 -55 -130 -223 -749 -603 -1470 -1059 -2005 -104 -123 -319
-339 -440 -444 -516 -446 -1104 -711 -1760 -795 -323 -41 -852 -46 -1164 -11
-701 78 -1309 292 -1846 648 -313 207 -619 489 -797 733 -35 48 -81 107 -102
131 -34 38 -46 67 -101 246 -368 1187 -614 2449 -707 3627 -17 223 -18 1123 0
1320 53 593 121 864 317 1265 447 914 1382 1705 2445 2070 300 103 621 178
890 209 74 9 151 18 170 20 19 2 168 3 330 1 240 -2 321 -7 435 -24z m-4392
-1365 c-10 -13 -22 -21 -27 -18 -5 3 -6 1 -3 -5 8 -13 -57 -105 -68 -96 -4 5
-5 3 -2 -3 6 -11 -74 -146 -110 -186 -10 -11 -16 -21 -15 -22 7 -2 -21 -56
-30 -56 -4 0 -7 -3 -6 -7 4 -16 -76 -162 -85 -156 -6 3 -7 1 -4 -5 10 -15 -3
-43 -16 -35 -5 3 -7 1 -4 -4 9 -14 -27 -86 -38 -76 -4 4 -5 3 -2 -3 4 -7 -11
-52 -33 -102 -22 -49 -40 -95 -40 -101 0 -7 -5 -9 -12 -5 -6 4 -8 3 -5 -4 4
-5 -2 -31 -13 -57 -55 -129 -141 -432 -174 -615 -96 -530 -118 -1404 -56
-2160 5 -63 12 -142 14 -175 49 -595 202 -1496 380 -2238 20 -82 38 -159 40
-173 3 -13 8 -29 11 -36 4 -7 -8 5 -27 26 -18 22 -33 45 -33 50 -1 6 -6 10
-12 9 -7 -2 -34 25 -62 58 -44 52 -49 64 -40 82 9 20 9 20 -4 4 -12 -14 -16
-15 -26 -4 -6 8 -7 18 -3 22 4 5 2 5 -5 1 -14 -8 -36 27 -25 39 4 5 2 5 -4 2
-12 -7 -71 61 -66 76 1 5 -2 6 -7 2 -12 -7 -33 29 -23 40 4 3 2 5 -4 3 -14 -4
-115 112 -108 124 3 4 1 7 -4 6 -10 -3 -102 105 -102 120 0 6 -5 12 -10 14
-12 4 -48 48 -193 238 -706 923 -1306 1999 -1664 2985 -277 761 -432 1467
-479 2183 l-7 102 234 -6 c331 -9 916 15 1619 66 287 21 856 67 925 75 146 16
288 26 300 21 8 -3 15 -1 15 5 0 6 20 9 50 8 27 -2 53 0 56 4 18 18 23 4 7
-17z"/>
<path d="M35380 53273 c-71 -8 -277 -53 -350 -77 -335 -108 -626 -290 -895
-560 -476 -479 -781 -1138 -891 -1926 -25 -178 -30 -693 -10 -887 89 -842 419
-1569 939 -2069 519 -500 1165 -703 1811 -569 385 80 723 268 1045 580 512
497 825 1180 927 2015 25 202 25 657 1 860 -36 301 -85 524 -172 787 -307 922
-961 1606 -1720 1797 -166 41 -296 56 -481 54 -93 0 -185 -3 -204 -5z m1200
-1370 c534 -177 783 -1052 481 -1689 -64 -135 -119 -213 -211 -304 -84 -83
-155 -129 -258 -168 -60 -23 -81 -26 -197 -26 -116 0 -137 3 -197 26 -105 40
-175 86 -264 173 -216 212 -336 535 -336 905 0 230 41 425 127 607 57 121 105
192 190 282 191 203 429 272 665 194z"/>
<path d="M48475 52198 c-260 -26 -547 -124 -799 -272 -266 -157 -556 -431
-762 -721 -326 -459 -531 -1027 -600 -1663 -21 -196 -21 -607 0 -802 105 -964
526 -1777 1171 -2260 581 -435 1286 -529 1935 -258 831 348 1458 1286 1604
2400 109 829 -52 1692 -439 2355 -278 474 -639 824 -1070 1033 -335 163 -676
225 -1040 188z m-460 -1353 c261 -66 477 -300 589 -636 54 -161 69 -267 69
-469 0 -143 -4 -194 -22 -280 -79 -372 -254 -636 -506 -761 -152 -75 -297 -86
-455 -33 -103 35 -182 85 -271 174 -121 120 -200 253 -264 443 -47 142 -66
258 -70 427 -4 169 6 263 45 415 57 225 157 403 305 543 92 87 198 148 305
176 73 19 201 20 275 1z"/>
<path d="M42120 47629 c-339 -23 -590 -89 -687 -182 -45 -43 -68 -114 -67
-212 0 -126 44 -236 154 -385 136 -186 398 -412 725 -629 l192 -127 -13 -26
c-24 -46 -32 -152 -65 -818 -21 -420 -36 -659 -43 -666 -6 -7 -74 -32 -151
-57 -504 -163 -961 -207 -1300 -123 -473 117 -960 553 -1320 1181 -68 119
-108 163 -183 201 -50 25 -68 29 -142 29 -73 0 -93 -4 -142 -28 -138 -68 -215
-213 -188 -357 17 -94 139 -311 310 -550 318 -444 701 -784 1105 -980 214
-104 366 -152 595 -187 161 -25 535 -24 715 1 288 40 555 104 846 205 81 28
152 51 158 51 6 0 34 -18 62 -39 175 -139 468 -272 754 -342 243 -59 370 -73
695 -73 269 -1 305 1 408 22 615 125 1136 551 1464 1201 85 166 102 223 96
312 -9 123 -72 215 -190 276 -45 23 -65 27 -138 28 -77 0 -92 -3 -152 -33 -76
-37 -127 -90 -160 -166 -213 -486 -570 -829 -983 -943 -96 -26 -110 -27 -340
-28 -265 0 -367 12 -573 66 -204 54 -377 135 -502 236 -57 46 -60 50 -60 93 0
65 69 1362 72 1365 2 1 32 12 68 25 117 41 312 134 460 219 495 284 760 577
760 841 -1 125 -87 223 -285 322 -402 202 -1258 323 -1955 277z"/>
<path d="M26050 31990 c0 -5 5 -10 10 -10 6 0 10 5 10 10 0 6 -4 10 -10 10 -5
0 -10 -4 -10 -10z"/>
<path d="M29030 27426 c0 -2 8 -10 18 -17 15 -13 16 -12 3 4 -13 16 -21 21
-21 13z"/>
<path d="M29110 27346 c0 -2 8 -10 18 -17 15 -13 16 -12 3 4 -13 16 -21 21
-21 13z"/>
<path d="M56951 22484 c-63 -17 -163 -64 -206 -96 -66 -51 -184 -177 -233
-250 -45 -68 -94 -153 -97 -168 0 -3 -9 -20 -19 -39 -108 -202 -168 -584 -136
-851 17 -136 85 -361 104 -343 4 4 5 1 2 -7 -7 -19 71 -141 127 -199 158 -164
377 -195 580 -83 102 57 254 192 240 215 -3 5 -1 7 4 4 6 -4 35 30 66 76 69
103 80 125 71 139 -4 6 -3 8 3 5 16 -10 84 146 122 278 173 611 -13 1218 -404
1320 -73 19 -153 18 -224 -1z"/>
<path d="M54425 21982 c-33 -10 -88 -33 -122 -51 -78 -42 -216 -159 -209 -178
3 -8 2 -12 -3 -8 -16 9 -109 -116 -103 -138 1 -5 -1 -6 -6 -3 -11 7 -71 -99
-115 -204 -150 -361 -174 -741 -67 -1061 17 -51 36 -99 43 -107 6 -8 12 -21
13 -29 8 -52 137 -200 221 -253 329 -209 765 78 958 631 64 183 88 328 89 529
1 185 -8 253 -51 400 -61 208 -187 375 -335 445 -65 31 -89 37 -164 41 -67 3
-104 -1 -149 -14z"/>
<path d="M55905 18994 c-44 -8 -125 -28 -180 -45 -103 -32 -284 -112 -296
-130 -3 -6 -9 -10 -13 -10 -20 3 -26 0 -20 -11 4 -7 3 -8 -4 -4 -13 8 -189
-108 -282 -185 -111 -92 -271 -252 -266 -265 3 -7 0 -11 -7 -9 -10 4 -145
-155 -171 -202 -5 -10 -24 -37 -43 -61 -46 -61 -162 -258 -217 -371 -402 -821
-429 -1765 -69 -2392 164 -285 397 -483 678 -577 130 -43 222 -57 375 -56 404
3 817 200 1180 565 708 712 1023 1889 744 2782 -39 125 -84 228 -96 220 -7 -3
-8 -1 -4 5 19 31 -178 343 -205 326 -5 -3 -6 1 -3 9 6 18 -160 178 -241 232
-134 89 -314 160 -468 185 -87 14 -297 11 -392 -6z"/>
<path d="M32330 21347 c-169 -58 -298 -184 -390 -381 -88 -186 -123 -353 -123
-581 -1 -133 15 -293 31 -319 3 -5 6 -25 8 -45 7 -69 101 -324 117 -314 5 3 7
2 4 -4 -7 -12 57 -125 105 -184 123 -153 249 -241 395 -275 121 -29 261 -1
373 73 57 37 170 148 170 165 0 6 12 24 26 41 65 77 138 268 170 442 24 130
24 381 1 515 -18 107 -55 241 -86 313 -11 26 -20 48 -19 50 3 4 -74 141 -110
196 -172 260 -446 386 -672 308z"/>
<path d="M34897 20576 c-71 -21 -118 -46 -111 -58 5 -7 2 -8 -5 -4 -17 11 -81
-36 -145 -105 -195 -210 -299 -575 -268 -933 17 -184 59 -353 124 -498 17 -37
35 -65 39 -62 5 3 6 -3 2 -12 -4 -12 -3 -15 5 -10 7 4 10 2 7 -6 -13 -33 202
-297 228 -281 6 3 7 1 3 -5 -7 -12 52 -56 130 -95 67 -34 203 -61 252 -51 20
4 42 7 48 6 22 -4 125 36 180 69 65 40 208 185 200 205 -3 8 0 13 6 11 13 -2
77 119 113 213 149 392 90 922 -142 1283 -27 42 -48 65 -55 61 -7 -5 -8 -3 -3
5 10 16 -88 117 -172 177 -97 70 -170 95 -288 100 -66 2 -116 -1 -148 -10z"/>
<path d="M30184 20290 c-168 -34 -330 -177 -432 -383 -116 -236 -157 -522
-117 -817 92 -677 586 -1104 995 -861 162 97 279 266 356 516 66 215 72 569
12 780 -6 22 -13 48 -15 58 -6 36 -52 155 -87 229 -48 101 -134 230 -148 222
-6 -4 -8 -2 -5 3 4 6 -29 45 -74 87 -150 141 -318 199 -485 166z"/>
<path d="M32595 18065 c-140 -20 -270 -50 -410 -97 -147 -49 -369 -154 -359
-170 4 -7 3 -8 -5 -4 -31 19 -285 -168 -446 -329 -218 -217 -344 -404 -463
-685 -160 -376 -197 -859 -97 -1255 129 -512 427 -931 865 -1217 637 -417
1469 -452 2147 -92 400 213 712 538 907 946 138 288 200 569 199 898 -3 542
-216 1044 -609 1430 -65 65 -107 99 -115 94 -7 -4 -9 -3 -6 3 11 17 -244 204
-283 208 -3 0 -20 10 -37 23 -77 54 -352 164 -503 201 -183 44 -262 53 -475
57 -144 2 -242 -1 -310 -11z"/>
<path d="M67103 64690 c-1169 -58 -2266 -559 -3088 -1412 -686 -711 -1119
-1617 -1245 -2601 -121 -951 46 -1878 490 -2727 l60 -115 -251 -855 c-138
-470 -253 -881 -256 -912 -20 -208 138 -392 346 -405 58 -3 181 22 991 204
l925 208 160 -81 c921 -472 1982 -621 2995 -423 669 131 1306 415 1858 829
1090 816 1745 2017 1843 3380 15 203 7 633 -15 815 -115 954 -469 1768 -1083
2490 -725 853 -1739 1408 -2853 1564 -280 39 -604 54 -877 41z m607 -760
c1115 -110 2117 -691 2770 -1606 364 -509 615 -1150 684 -1744 22 -192 28
-281 28 -465 0 -423 -53 -780 -178 -1185 -374 -1212 -1378 -2192 -2608 -2545
-836 -240 -1728 -191 -2537 140 -131 54 -340 158 -476 237 -107 62 -179 88
-249 88 -30 0 -1102 -233 -1400 -305 l-22 -5 23 78 c350 1195 347 1182 352
1242 8 84 -17 160 -97 299 -563 977 -674 2119 -310 3183 275 806 798 1482
1520 1965 543 363 1177 580 1850 633 135 10 500 5 650 -10z"/>
<path d="M66410 61505 c-144 -30 -248 -80 -361 -171 -172 -137 -294 -354 -330
-585 -24 -153 6 -372 71 -516 69 -152 95 -181 768 -856 364 -364 667 -660 692
-675 59 -35 164 -37 225 -5 24 13 307 289 705 690 706 708 700 701 771 867 52
122 64 188 64 361 0 126 -4 175 -19 230 -73 271 -252 491 -488 599 -104 48
-177 66 -304 73 -184 10 -336 -22 -507 -108 -101 -50 -162 -94 -254 -182 l-72
-70 -73 68 c-139 129 -301 220 -476 267 -100 26 -318 34 -412 13z"/>
</g>
</svg>
