<?xml version="1.0" standalone="no"?>
<!DOCTYPE svg PUBLIC "-//W3C//DTD SVG 20010904//EN"
 "http://www.w3.org/TR/2001/REC-SVG-20010904/DTD/svg10.dtd">
<svg version="1.0" xmlns="http://www.w3.org/2000/svg"
 width="338.000000pt" height="338.000000pt" viewBox="0 0 338.000000 338.000000"
 preserveAspectRatio="xMidYMid meet">

<g transform="translate(0.000000,338.000000) scale(0.100000,-0.100000)"
fill="#000000" stroke="none">
<path d="M1194 3146 c-81 -36 -144 -209 -144 -393 0 -84 -1 -86 -36 -126 -44
-48 -84 -136 -85 -186 -2 -50 -25 -117 -59 -171 -75 -117 -86 -255 -30 -363
25 -47 25 -47 -5 -47 -124 0 -235 -184 -191 -317 53 -159 239 -275 445 -277
l86 -1 -3 -140 c-3 -104 1 -159 13 -210 l16 -70 -30 -25 c-51 -43 -64 -82 -59
-179 3 -70 10 -99 35 -154 42 -88 78 -134 132 -169 82 -52 163 -31 271 69 l59
54 68 -5 c38 -2 90 -14 118 -26 73 -33 166 -37 238 -12 48 17 59 18 71 7 60
-60 153 -73 206 -29 65 55 82 138 46 225 -6 13 4 17 59 22 192 18 325 181 325
398 0 210 -114 354 -292 367 -80 6 -138 -9 -193 -48 l-40 -28 -71 67 c-42 39
-105 84 -154 110 l-83 44 89 18 c182 37 306 128 351 260 13 35 28 89 34 119 6
30 20 65 32 77 44 48 25 238 -31 318 -15 22 -38 66 -51 98 -22 54 -23 64 -13
125 44 258 29 466 -37 502 -29 15 -100 12 -162 -6 -68 -20 -146 -63 -227 -126
l-62 -48 -99 20 c-55 11 -124 20 -154 20 l-54 0 -81 93 c-120 138 -181 173
-248 143z m85 -31 c16 -8 68 -56 115 -107 l86 -93 -38 -7 c-62 -11 -65 -10
-127 73 -83 111 -112 115 -159 20 -33 -66 -45 -105 -61 -212 l-15 -94 5 90 c8
150 56 287 117 329 28 20 41 20 77 1z m-15 -107 c35 -40 35 -42 16 -55 -11 -8
-20 -25 -20 -38 0 -15 -7 -26 -20 -30 -19 -6 -24 -16 -21 -41 1 -6 -21 -30
-49 -53 l-50 -42 0 30 c0 89 68 271 100 271 5 0 24 -19 44 -42z m1009 4 c44
-48 50 -284 11 -461 -4 -19 -7 -22 -14 -11 -5 8 -11 12 -14 9 -3 -2 8 -32 23
-64 16 -33 27 -62 25 -64 -2 -2 -24 15 -49 38 -104 96 -272 185 -427 226 -193
51 -480 70 -618 41 -36 -8 -66 -13 -68 -11 -2 1 19 22 45 45 59 52 149 96 228
111 75 14 297 5 380 -16 70 -17 88 -18 81 -7 -13 22 126 118 227 157 76 29
147 32 170 7z m-933 -102 c11 -20 4 -30 -21 -30 -24 0 -46 39 -28 50 16 11 37
2 49 -20z m-74 -55 c-21 -16 -32 -13 -21 4 3 6 14 11 23 11 15 -1 15 -2 -2
-15z m331 -160 c229 -30 379 -80 525 -178 95 -63 205 -161 230 -204 11 -19
-10 -3 -55 42 -220 218 -517 327 -902 329 -155 0 -225 -10 -298 -45 -25 -12
-35 -13 -27 -5 16 21 102 55 162 65 85 14 237 12 365 -4z m43 -41 c146 -21
240 -47 347 -99 116 -56 231 -143 327 -247 75 -80 96 -120 96 -181 0 -27 -2
-26 -54 30 -156 169 -471 324 -771 379 -138 26 -402 26 -495 0 -35 -10 -77
-24 -92 -32 -34 -17 -35 -11 -5 41 66 116 306 157 647 109z m-20 -194 c132
-28 248 -69 373 -131 127 -64 202 -115 293 -202 69 -65 74 -72 74 -111 0 -63
-26 -168 -55 -225 -51 -101 -146 -168 -290 -206 -63 -16 -354 -40 -386 -32
-10 3 -19 2 -19 -2 0 -8 120 -21 192 -21 78 0 298 -131 370 -221 48 -60 63
-103 62 -174 -2 -78 -34 -144 -101 -206 -55 -52 -83 -69 -130 -80 -31 -7 -45
3 -23 16 6 3 10 11 10 16 0 6 -10 3 -22 -5 -30 -21 -51 -20 -73 4 -18 20 -18
21 16 50 19 16 29 29 22 30 -6 0 -15 -4 -18 -10 -3 -5 -15 -10 -26 -10 -14 0
-19 7 -19 28 0 26 21 65 97 178 35 50 36 69 3 39 -19 -17 -21 -16 -76 34 -31
29 -59 50 -62 47 -4 -5 6 -19 72 -101 18 -23 18 -24 -17 -82 -20 -32 -39 -71
-43 -86 -3 -15 -9 -26 -13 -24 -215 116 -383 75 -506 -126 -8 -14 -16 -15 -52
-6 -32 9 -42 17 -47 37 -23 105 -27 139 -27 232 0 127 19 229 67 373 40 115
39 114 107 98 20 -5 37 -5 37 -1 0 4 -13 10 -30 13 -59 12 -246 88 -311 127
-82 49 -166 132 -198 196 -50 98 -38 233 28 335 16 24 36 68 46 97 21 64 59
96 141 116 96 24 102 25 269 22 118 -3 187 -9 265 -26z m-720 -652 c47 -32 52
-52 11 -43 -20 4 -31 3 -31 -4 0 -6 8 -11 18 -11 27 0 42 -20 42 -54 0 -42
-15 -65 -32 -48 -6 6 -26 11 -43 11 -22 -1 -24 -3 -8 -6 55 -11 55 -70 -1 -97
-19 -9 -55 -16 -80 -16 -25 0 -46 -4 -46 -10 0 -13 101 -13 133 -1 32 12 64
46 88 93 l19 36 71 -36 c65 -33 78 -37 153 -37 l83 0 -23 -50 c-19 -41 -38
-102 -70 -222 -2 -9 -30 -13 -92 -13 -138 0 -236 35 -324 118 -57 53 -94 111
-103 164 -10 51 18 140 58 184 56 65 121 80 177 42z m202 -138 c43 -22 84 -40
93 -40 8 0 15 -5 15 -11 0 -12 -45 -8 -111 11 -53 15 -119 66 -119 91 0 20 1
21 23 5 12 -9 57 -34 99 -56z m1445 -333 c51 -27 103 -85 131 -146 36 -78 42
-220 13 -303 -58 -168 -178 -245 -364 -236 -102 5 -214 41 -210 68 1 8 8 48
16 89 l13 75 45 2 c90 6 167 56 194 128 15 38 15 48 3 73 -25 52 -98 36 -98
-23 0 -17 -5 -24 -20 -24 -17 0 -19 4 -13 28 13 46 8 145 -10 178 -16 31 -15
32 12 58 16 15 46 34 67 42 51 19 177 13 221 -9z m-189 -284 c5 -55 -84 -133
-152 -133 l-25 0 27 45 c22 37 32 44 58 45 35 0 54 16 54 45 0 47 33 44 38 -2z
m-571 -76 c43 -22 52 -32 57 -61 9 -45 57 -93 101 -102 35 -6 94 8 133 33 13
8 26 12 29 10 9 -9 -17 -111 -41 -164 -66 -141 -202 -222 -373 -223 -67 0 -73
6 -47 45 32 48 -2 24 -73 -52 -59 -64 -74 -75 -82 -63 -9 13 -11 13 -11 -1 0
-25 -54 -69 -92 -75 -96 -16 -217 123 -248 286 -31 160 86 262 189 167 25 -24
81 -128 100 -189 16 -50 35 -62 26 -17 -13 67 -36 128 -71 185 l-36 59 23 43
c74 141 265 195 416 119z m393 -327 c25 -10 66 -21 91 -25 35 -5 49 -13 57
-30 47 -103 -8 -215 -105 -215 -22 0 -104 42 -103 53 0 1 14 29 30 61 42 82
39 119 -3 41 -28 -52 -40 -64 -91 -90 -48 -24 -71 -29 -125 -28 -36 0 -79 6
-96 13 l-30 12 53 19 c87 30 161 89 214 172 23 35 35 46 47 41 9 -3 36 -15 61
-24z"/>
<path d="M2150 2965 c-88 -42 -160 -121 -160 -178 0 -26 21 -48 95 -98 28 -18
71 -53 97 -77 44 -41 47 -42 57 -23 34 62 54 293 32 371 -10 35 -52 37 -121 5z
m100 -21 c15 -37 12 -179 -5 -258 -8 -38 -17 -71 -19 -74 -3 -2 -32 20 -65 49
-57 50 -60 54 -44 71 15 17 15 20 -6 42 -19 21 -20 24 -6 30 23 9 15 49 -12
61 -13 5 -23 13 -23 17 0 18 126 85 163 88 4 0 12 -12 17 -26z m-154 -105 c4
-7 -3 -19 -16 -29 l-23 -18 21 -13 c26 -16 28 -34 6 -43 -41 -16 -79 36 -63
83 9 25 17 31 39 31 16 0 32 -5 36 -11z"/>
<path d="M1208 2333 c-39 -42 -50 -70 -50 -126 1 -67 26 -101 76 -105 91 -8
149 150 85 232 -28 36 -76 35 -111 -1z m75 -14 c15 -25 -17 -71 -46 -67 -28 4
-35 43 -11 69 20 23 42 21 57 -2z m-13 -184 c-9 -11 -16 -13 -23 -6 -7 7 -6
15 3 26 9 11 16 13 23 6 7 -7 6 -15 -3 -26z"/>
<path d="M1704 2272 c-76 -61 -70 -221 10 -259 109 -51 181 152 88 250 -30 31
-67 35 -98 9z m62 -37 c7 -28 -18 -75 -39 -75 -35 0 -47 42 -21 78 21 30 52
29 60 -3z m24 -170 c0 -15 -26 -32 -36 -23 -2 3 -2 13 2 22 8 20 34 21 34 1z"/>
<path d="M1383 2153 c-23 -9 -14 -50 17 -84 37 -38 36 -69 -2 -86 -32 -16 -54
-8 -73 26 l-14 26 -1 -32 c0 -22 6 -37 20 -45 13 -8 20 -24 20 -44 0 -50 20
-93 51 -109 58 -31 103 -8 120 61 6 24 17 44 24 44 21 0 45 29 45 53 l0 21
-16 -22 c-9 -13 -25 -22 -42 -22 -33 0 -45 8 -61 37 -19 37 -13 59 27 84 53
34 54 62 2 83 -39 15 -92 20 -117 9z m48 -253 c1 -23 2 -22 10 7 l9 31 24 -21
c20 -18 22 -25 13 -53 -22 -71 -107 -42 -107 37 0 28 5 39 18 41 21 5 31 -9
33 -42z"/>
</g>
</svg>
